%TF.GenerationSoftware,KiCad,Pcbnew,10.0.6*%
%TF.CreationDate,2026-09-24T13:37:59-04:00*%
%TF.ProjectId,Hackpad-stardance,4861636b-7061-4642-9d73-74617264616e,rev?*%
%TF.SameCoordinates,Original*%
%TF.FileFunction,Copper,L2,Bot*%
%TF.FilePolarity,Positive*%
%FSLAX46Y46*%
G04 Gerber Fmt 4.6, Leading zero omitted, Abs format (unit mm)*
G04 Created by KiCad (PCBNEW 10.0.6) date 2026-09-24 13:37:59*
%MOMM*%
%LPD*%
G01*
G04 APERTURE LIST*
%TA.AperFunction,ComponentPad*%
%ADD10C,2.200000*%
%TD*%
%TA.AperFunction,ComponentPad*%
%ADD11R,3.500000X1.700000*%
%TD*%
%TA.AperFunction,ComponentPad*%
%ADD12O,3.600000X1.700000*%
%TD*%
%TA.AperFunction,ComponentPad*%
%ADD13O,3.700000X1.700000*%
%TD*%
%TA.AperFunction,Conductor*%
%ADD14C,0.200000*%
%TD*%
G04 APERTURE END LIST*
D10*
%TO.P,SW1,1,1_1*%
%TO.N,Net-(U1-PA6_A10_D10_MOSI)*%
X130366000Y-74745000D03*
%TO.P,SW1,2,2_2*%
%TO.N,GND*%
X124016000Y-77285000D03*
%TD*%
%TO.P,SW4,1,1_1*%
%TO.N,Net-(U1-PB09_A7_D7_RX)*%
X149540000Y-93920000D03*
%TO.P,SW4,2,2_2*%
%TO.N,GND*%
X143190000Y-96460000D03*
%TD*%
%TO.P,SW3,1,1_1*%
%TO.N,Net-(U1-PA7_A8_D8_SCK)*%
X111140000Y-93920000D03*
%TO.P,SW3,2,2_2*%
%TO.N,GND*%
X104790000Y-96460000D03*
%TD*%
%TO.P,SW2,1,1_1*%
%TO.N,Net-(U1-PA5_A9_D9_MISO)*%
X130340000Y-93920000D03*
%TO.P,SW2,2,2_2*%
%TO.N,GND*%
X123990000Y-96460000D03*
%TD*%
D11*
%TO.P,U1,1,PA02_A0_D0_1*%
%TO.N,unconnected-(U1-PA02_A0_D0-Pad1)*%
X136500000Y-71260000D03*
D12*
%TO.P,U1,2,PA4_A1_D1_2*%
%TO.N,unconnected-(U1-PA4_A1_D1-Pad2)*%
X136500000Y-73800000D03*
%TO.P,U1,3,PA10_A2_D2_3*%
%TO.N,unconnected-(U1-PA10_A2_D2-Pad3)*%
X136500000Y-76340000D03*
%TO.P,U1,4,PA11_A3_D3_4*%
%TO.N,unconnected-(U1-PA11_A3_D3-Pad4)*%
X136500000Y-78880000D03*
%TO.P,U1,5,PA8_A4_D4_SDA_5*%
%TO.N,unconnected-(U1-PA8_A4_D4_SDA-Pad5)*%
X136500000Y-81420000D03*
%TO.P,U1,6,PA9_A5_D5_SCL_6*%
%TO.N,unconnected-(U1-PA9_A5_D5_SCL-Pad6)*%
X136500000Y-83960000D03*
%TO.P,U1,7,PB08_A6_D6_TX_7*%
%TO.N,unconnected-(U1-PB08_A6_D6_TX-Pad7)*%
X136500000Y-86500000D03*
%TO.P,U1,8,PB09_A7_D7_RX_8*%
%TO.N,Net-(U1-PB09_A7_D7_RX)*%
X119250000Y-86500000D03*
%TO.P,U1,9,PA7_A8_D8_SCK_9*%
%TO.N,Net-(U1-PA7_A8_D8_SCK)*%
X119250000Y-83960000D03*
%TO.P,U1,10,PA5_A9_D9_MISO_10*%
%TO.N,Net-(U1-PA5_A9_D9_MISO)*%
X119250000Y-81420000D03*
D13*
%TO.P,U1,11,PA6_A10_D10_MOSI_11*%
%TO.N,Net-(U1-PA6_A10_D10_MOSI)*%
X119250000Y-78880000D03*
%TO.P,U1,12,3V3_12*%
%TO.N,unconnected-(U1-3V3-Pad12)*%
X119250000Y-76340000D03*
%TO.P,U1,13,GND_13*%
%TO.N,GND*%
X119250000Y-73800000D03*
%TO.P,U1,14,5V_14*%
%TO.N,unconnected-(U1-5V-Pad14)*%
X119250000Y-71260000D03*
%TD*%
%TO.N,Net-(U1-PB09_A7_D7_RX)*%
D14*
X149540000Y-93920000D02*
X132319899Y-93920000D01*
X130919899Y-95320000D02*
X129070000Y-95320000D01*
X132319899Y-93920000D02*
X130919899Y-95320000D01*
X129070000Y-95320000D02*
X120250000Y-86500000D01*
%TO.N,Net-(U1-PA7_A8_D8_SCK)*%
X111140000Y-93920000D02*
X111140000Y-92033654D01*
X111140000Y-92033654D02*
X119213654Y-83960000D01*
X119213654Y-83960000D02*
X120250000Y-83960000D01*
%TO.N,Net-(U1-PA5_A9_D9_MISO)*%
X130340000Y-91510000D02*
X120250000Y-81420000D01*
X130340000Y-93920000D02*
X130340000Y-91510000D01*
%TD*%
M02*
