ISO-10303-21;
HEADER;
/* Generated by software containing ST-Developer
 * from STEP Tools, Inc. (www.steptools.com) 
 */
/* OPTION: using custom renumber hook */

FILE_DESCRIPTION(
/* description */ ('STEP AP242 Edition 2',
'CAx-IF Rec.Pracs.---Representation and Presentation of Product Manufa
cturing Information (PMI)---4.0---2014-10-13',
'CAx-IF Rec.Pracs.---3D Tessellated Geometry---0.4---2014-09-14','2;1',
'CAx-IF Rec.Pracs.---User Defined Attributes---1.5---2016-08-15'),
/* implementation_level */ '2;1');

FILE_NAME(
/* name */ 'Part Studio 1 - Part 1',
/* time_stamp */ '2026-09-24T17:34:45Z',
/* author */ (''),
/* organization */ (''),
/* preprocessor_version */ 'ST-DEVELOPER v20',
/* originating_system */ 'ONSHAPE BY PTC INC, 1.221',
/* authorisation */ '  ');

FILE_SCHEMA (('AP242_MANAGED_MODEL_BASED_3D_ENGINEERING_MIM_LF { 1 0 10303 442 3 1 4 }'));
ENDSEC;

DATA;
#10=SHAPE_REPRESENTATION_RELATIONSHIP('','',#130,#11);
#11=ADVANCED_BREP_SHAPE_REPRESENTATION('',(#128),#192);
#12=OVER_RIDING_STYLED_ITEM('',(#110),#105,#108);
#13=OVER_RIDING_STYLED_ITEM('',(#111),#106,#108);
#14=DRAUGHTING_PRE_DEFINED_COLOUR('black');
#15=ORIENTED_EDGE('',*,*,#39,.F.);
#16=ORIENTED_EDGE('',*,*,#40,.F.);
#17=ORIENTED_EDGE('',*,*,#41,.T.);
#18=ORIENTED_EDGE('',*,*,#42,.T.);
#19=ORIENTED_EDGE('',*,*,#43,.T.);
#20=ORIENTED_EDGE('',*,*,#44,.F.);
#21=ORIENTED_EDGE('',*,*,#45,.F.);
#22=ORIENTED_EDGE('',*,*,#40,.T.);
#23=ORIENTED_EDGE('',*,*,#46,.T.);
#24=ORIENTED_EDGE('',*,*,#47,.F.);
#25=ORIENTED_EDGE('',*,*,#48,.F.);
#26=ORIENTED_EDGE('',*,*,#44,.T.);
#27=ORIENTED_EDGE('',*,*,#49,.F.);
#28=ORIENTED_EDGE('',*,*,#42,.F.);
#29=ORIENTED_EDGE('',*,*,#50,.T.);
#30=ORIENTED_EDGE('',*,*,#47,.T.);
#31=ORIENTED_EDGE('',*,*,#41,.F.);
#32=ORIENTED_EDGE('',*,*,#45,.T.);
#33=ORIENTED_EDGE('',*,*,#48,.T.);
#34=ORIENTED_EDGE('',*,*,#50,.F.);
#35=ORIENTED_EDGE('',*,*,#39,.T.);
#36=ORIENTED_EDGE('',*,*,#49,.T.);
#37=ORIENTED_EDGE('',*,*,#46,.F.);
#38=ORIENTED_EDGE('',*,*,#43,.F.);
#39=EDGE_CURVE('',#51,#52,#59,.T.);
#40=EDGE_CURVE('',#53,#51,#60,.T.);
#41=EDGE_CURVE('',#53,#54,#61,.T.);
#42=EDGE_CURVE('',#54,#52,#62,.T.);
#43=EDGE_CURVE('',#51,#55,#63,.T.);
#44=EDGE_CURVE('',#56,#55,#64,.T.);
#45=EDGE_CURVE('',#53,#56,#65,.T.);
#46=EDGE_CURVE('',#55,#57,#66,.T.);
#47=EDGE_CURVE('',#58,#57,#67,.T.);
#48=EDGE_CURVE('',#56,#58,#68,.T.);
#49=EDGE_CURVE('',#52,#57,#69,.T.);
#50=EDGE_CURVE('',#54,#58,#70,.T.);
#51=VERTEX_POINT('',#167);
#52=VERTEX_POINT('',#168);
#53=VERTEX_POINT('',#170);
#54=VERTEX_POINT('',#172);
#55=VERTEX_POINT('',#176);
#56=VERTEX_POINT('',#178);
#57=VERTEX_POINT('',#182);
#58=VERTEX_POINT('',#184);
#59=LINE('',#166,#71);
#60=LINE('',#169,#72);
#61=LINE('',#171,#73);
#62=LINE('',#173,#74);
#63=LINE('',#175,#75);
#64=LINE('',#177,#76);
#65=LINE('',#179,#77);
#66=LINE('',#181,#78);
#67=LINE('',#183,#79);
#68=LINE('',#185,#80);
#69=LINE('',#187,#81);
#70=LINE('',#188,#82);
#71=VECTOR('',#142,1.);
#72=VECTOR('',#143,1.);
#73=VECTOR('',#144,1.);
#74=VECTOR('',#145,1.);
#75=VECTOR('',#148,1.);
#76=VECTOR('',#149,1.);
#77=VECTOR('',#150,1.);
#78=VECTOR('',#153,1.);
#79=VECTOR('',#154,1.);
#80=VECTOR('',#155,1.);
#81=VECTOR('',#158,1.);
#82=VECTOR('',#159,1.);
#83=EDGE_LOOP('',(#15,#16,#17,#18));
#84=EDGE_LOOP('',(#19,#20,#21,#22));
#85=EDGE_LOOP('',(#23,#24,#25,#26));
#86=EDGE_LOOP('',(#27,#28,#29,#30));
#87=EDGE_LOOP('',(#31,#32,#33,#34));
#88=EDGE_LOOP('',(#35,#36,#37,#38));
#89=FACE_BOUND('',#83,.T.);
#90=FACE_BOUND('',#84,.T.);
#91=FACE_BOUND('',#85,.T.);
#92=FACE_BOUND('',#86,.T.);
#93=FACE_BOUND('',#87,.T.);
#94=FACE_BOUND('',#88,.T.);
#95=PLANE('',#132);
#96=PLANE('',#133);
#97=PLANE('',#134);
#98=PLANE('',#135);
#99=PLANE('',#136);
#100=PLANE('',#137);
#101=ADVANCED_FACE('',(#89),#95,.T.);
#102=ADVANCED_FACE('',(#90),#96,.F.);
#103=ADVANCED_FACE('',(#91),#97,.F.);
#104=ADVANCED_FACE('',(#92),#98,.T.);
#105=ADVANCED_FACE('Face appearance 1',(#93),#99,.T.);
#106=ADVANCED_FACE('Face appearance 1',(#94),#100,.F.);
#107=CLOSED_SHELL('',(#101,#102,#103,#104,#105,#106));
#108=STYLED_ITEM('',(#109),#128);
#109=PRESENTATION_STYLE_ASSIGNMENT((#112));
#110=PRESENTATION_STYLE_ASSIGNMENT((#113));
#111=PRESENTATION_STYLE_ASSIGNMENT((#114));
#112=SURFACE_STYLE_USAGE(.BOTH.,#115);
#113=SURFACE_STYLE_USAGE(.BOTH.,#116);
#114=SURFACE_STYLE_USAGE(.BOTH.,#117);
#115=SURFACE_SIDE_STYLE('',(#118));
#116=SURFACE_SIDE_STYLE('',(#119));
#117=SURFACE_SIDE_STYLE('',(#120));
#118=SURFACE_STYLE_FILL_AREA(#121);
#119=SURFACE_STYLE_FILL_AREA(#122);
#120=SURFACE_STYLE_FILL_AREA(#123);
#121=FILL_AREA_STYLE('',(#124));
#122=FILL_AREA_STYLE('',(#125));
#123=FILL_AREA_STYLE('',(#126));
#124=FILL_AREA_STYLE_COLOUR('',#127);
#125=FILL_AREA_STYLE_COLOUR('',#14);
#126=FILL_AREA_STYLE_COLOUR('',#14);
#127=COLOUR_RGB('',0.615686274509804,0.811764705882353,0.929411764705882);
#128=MANIFOLD_SOLID_BREP('Part 1',#107);
#129=SHAPE_DEFINITION_REPRESENTATION(#197,#130);
#130=SHAPE_REPRESENTATION('Part 1',(#131),#192);
#131=AXIS2_PLACEMENT_3D('',#164,#138,#139);
#132=AXIS2_PLACEMENT_3D('',#165,#140,#141);
#133=AXIS2_PLACEMENT_3D('',#174,#146,#147);
#134=AXIS2_PLACEMENT_3D('',#180,#151,#152);
#135=AXIS2_PLACEMENT_3D('',#186,#156,#157);
#136=AXIS2_PLACEMENT_3D('',#189,#160,#161);
#137=AXIS2_PLACEMENT_3D('',#190,#162,#163);
#138=DIRECTION('',(0.,0.,1.));
#139=DIRECTION('',(1.,0.,0.));
#140=DIRECTION('',(-1.,-1.55930200087803E-16,0.));
#141=DIRECTION('',(1.55930200087803E-16,-1.,0.));
#142=DIRECTION('',(-1.55930200087803E-16,1.,0.));
#143=DIRECTION('',(0.,0.,-1.));
#144=DIRECTION('',(-1.55930200087803E-16,1.,0.));
#145=DIRECTION('',(0.,0.,-1.));
#146=DIRECTION('',(0.,1.,0.));
#147=DIRECTION('',(0.,0.,1.));
#148=DIRECTION('',(1.,0.,0.));
#149=DIRECTION('',(0.,0.,-1.));
#150=DIRECTION('',(1.,0.,0.));
#151=DIRECTION('',(-1.,-1.94912750109753E-16,0.));
#152=DIRECTION('',(1.94912750109753E-16,-1.,0.));
#153=DIRECTION('',(-1.94912750109753E-16,1.,0.));
#154=DIRECTION('',(0.,0.,-1.));
#155=DIRECTION('',(-1.94912750109753E-16,1.,0.));
#156=DIRECTION('',(0.,1.,0.));
#157=DIRECTION('',(0.,0.,1.));
#158=DIRECTION('',(1.,0.,0.));
#159=DIRECTION('',(1.,0.,0.));
#160=DIRECTION('',(0.,0.,1.));
#161=DIRECTION('',(1.,0.,0.));
#162=DIRECTION('',(0.,0.,1.));
#163=DIRECTION('',(1.,0.,0.));
#164=CARTESIAN_POINT('',(0.,0.,0.));
#165=CARTESIAN_POINT('',(-0.0546619514352315,-0.0126234208196401,0.003));
#166=CARTESIAN_POINT('',(-0.0546619514352315,-0.0126234208196401,0.));
#167=CARTESIAN_POINT('',(-0.0546619514352315,-0.0348734208196401,0.));
#168=CARTESIAN_POINT('',(-0.0546619514352315,0.00962657918035984,0.));
#169=CARTESIAN_POINT('',(-0.0546619514352315,-0.0348734208196401,0.003));
#170=CARTESIAN_POINT('',(-0.0546619514352315,-0.0348734208196401,0.003));
#171=CARTESIAN_POINT('',(-0.0546619514352315,-0.0126234208196401,0.003));
#172=CARTESIAN_POINT('',(-0.0546619514352315,0.00962657918035984,0.003));
#173=CARTESIAN_POINT('',(-0.0546619514352315,0.00962657918035984,0.003));
#174=CARTESIAN_POINT('',(-0.0244119514352315,-0.0348734208196401,0.003));
#175=CARTESIAN_POINT('',(-0.0244119514352315,-0.0348734208196401,0.));
#176=CARTESIAN_POINT('',(0.00583804856476846,-0.0348734208196401,0.));
#177=CARTESIAN_POINT('',(0.00583804856476846,-0.0348734208196401,0.003));
#178=CARTESIAN_POINT('',(0.00583804856476846,-0.0348734208196401,0.003));
#179=CARTESIAN_POINT('',(-0.0244119514352315,-0.0348734208196401,0.003));
#180=CARTESIAN_POINT('',(0.00583804856476846,-0.0126234208196402,0.003));
#181=CARTESIAN_POINT('',(0.00583804856476846,-0.0126234208196402,0.));
#182=CARTESIAN_POINT('',(0.00583804856476845,0.00962657918035985,0.));
#183=CARTESIAN_POINT('',(0.00583804856476845,0.00962657918035985,0.003));
#184=CARTESIAN_POINT('',(0.00583804856476845,0.00962657918035985,0.003));
#185=CARTESIAN_POINT('',(0.00583804856476846,-0.0126234208196402,0.003));
#186=CARTESIAN_POINT('',(-0.0244119514352315,0.00962657918035984,0.003));
#187=CARTESIAN_POINT('',(-0.0244119514352315,0.00962657918035984,0.));
#188=CARTESIAN_POINT('',(-0.0244119514352315,0.00962657918035984,0.003));
#189=CARTESIAN_POINT('',(-0.0244119514352315,-0.0126234208196402,0.003));
#190=CARTESIAN_POINT('',(-0.0244119514352315,-0.0126234208196402,0.));
#191=MECHANICAL_DESIGN_GEOMETRIC_PRESENTATION_REPRESENTATION('',(#108,#12,
#13),#192);
#192=(
GEOMETRIC_REPRESENTATION_CONTEXT(3)
GLOBAL_UNCERTAINTY_ASSIGNED_CONTEXT((#193))
GLOBAL_UNIT_ASSIGNED_CONTEXT((#196,#195,#194))
REPRESENTATION_CONTEXT('Part 1','TOP_LEVEL_ASSEMBLY_PART')
);
#193=UNCERTAINTY_MEASURE_WITH_UNIT(LENGTH_MEASURE(1.E-8),#196,
'DISTANCE_ACCURACY_VALUE','Maximum Tolerance applied to model');
#194=(
NAMED_UNIT(*)
SI_UNIT($,.STERADIAN.)
SOLID_ANGLE_UNIT()
);
#195=(
NAMED_UNIT(*)
PLANE_ANGLE_UNIT()
SI_UNIT($,.RADIAN.)
);
#196=(
LENGTH_UNIT()
NAMED_UNIT(*)
SI_UNIT($,.METRE.)
);
#197=PRODUCT_DEFINITION_SHAPE('','',#198);
#198=PRODUCT_DEFINITION('','',#200,#199);
#199=PRODUCT_DEFINITION_CONTEXT('',#206,'design');
#200=PRODUCT_DEFINITION_FORMATION_WITH_SPECIFIED_SOURCE('','',#202,
 .NOT_KNOWN.);
#201=PRODUCT_RELATED_PRODUCT_CATEGORY('','',(#202));
#202=PRODUCT('Part 1','Part 1','Part 1',(#204));
#203=PRODUCT_CATEGORY('','');
#204=PRODUCT_CONTEXT('',#206,'mechanical');
#205=APPLICATION_PROTOCOL_DEFINITION('international standard',
'ap242_managed_model_based_3d_engineering',2020,#206);
#206=APPLICATION_CONTEXT('managed model based 3d engineering');
ENDSEC;
END-ISO-10303-21;
