ISO-10303-21;
HEADER;
/* Generated by software containing ST-Developer
 * from STEP Tools, Inc. (www.steptools.com) 
 */
/* OPTION: using custom renumber hook */

FILE_DESCRIPTION(
/* description */ ('STEP AP242 Edition 2',
'CAx-IF Rec.Pracs.---Representation and Presentation of Product Manufa
cturing Information (PMI)---4.0---2014-10-13',
'CAx-IF Rec.Pracs.---3D Tessellated Geometry---0.4---2014-09-14','2;1',
'CAx-IF Rec.Pracs.---User Defined Attributes---1.5---2016-08-15'),
/* implementation_level */ '2;1');

FILE_NAME(
/* name */ 'Part Studio 1 - Part 2',
/* time_stamp */ '2026-09-24T17:34:38Z',
/* author */ (''),
/* organization */ (''),
/* preprocessor_version */ 'ST-DEVELOPER v20',
/* originating_system */ 'ONSHAPE BY PTC INC, 1.221',
/* authorisation */ '  ');

FILE_SCHEMA (('AP242_MANAGED_MODEL_BASED_3D_ENGINEERING_MIM_LF { 1 0 10303 442 3 1 4 }'));
ENDSEC;

DATA;
#10=SHAPE_REPRESENTATION_RELATIONSHIP('','',#1346,#11);
#11=ADVANCED_BREP_SHAPE_REPRESENTATION('',(#1344),#2008);
#12=CIRCLE('',#1355,0.00145);
#13=CIRCLE('',#1356,0.00145);
#14=CIRCLE('',#1358,0.00145);
#15=CIRCLE('',#1359,0.00145);
#16=CIRCLE('',#1361,0.00145);
#17=CIRCLE('',#1362,0.00145);
#18=CIRCLE('',#1364,0.00145);
#19=CIRCLE('',#1365,0.00145);
#20=CIRCLE('',#1370,0.0005);
#21=CIRCLE('',#1371,0.0005);
#22=CIRCLE('',#1374,0.0005);
#23=CIRCLE('',#1375,0.0005);
#24=CIRCLE('',#1378,0.0005);
#25=CIRCLE('',#1379,0.0005);
#26=CIRCLE('',#1382,0.0005);
#27=CIRCLE('',#1383,0.0005);
#28=CIRCLE('',#1385,0.0005);
#29=CIRCLE('',#1386,0.0005);
#30=CIRCLE('',#1389,0.0005);
#31=CIRCLE('',#1390,0.0005);
#32=CIRCLE('',#1393,0.0005);
#33=CIRCLE('',#1394,0.0005);
#34=CIRCLE('',#1397,0.0005);
#35=CIRCLE('',#1398,0.0005);
#36=CIRCLE('',#1400,0.000500000000000006);
#37=CIRCLE('',#1401,0.000500000000000006);
#38=CIRCLE('',#1404,0.0005);
#39=CIRCLE('',#1405,0.0005);
#40=CIRCLE('',#1408,0.0005);
#41=CIRCLE('',#1409,0.0005);
#42=CIRCLE('',#1412,0.000500000000000009);
#43=CIRCLE('',#1413,0.000500000000000009);
#44=CIRCLE('',#1415,0.0005);
#45=CIRCLE('',#1416,0.0005);
#46=CIRCLE('',#1419,0.0005);
#47=CIRCLE('',#1420,0.0005);
#48=CIRCLE('',#1423,0.0005);
#49=CIRCLE('',#1424,0.0005);
#50=CIRCLE('',#1427,0.0005);
#51=CIRCLE('',#1428,0.0005);
#52=CYLINDRICAL_SURFACE('',#1354,0.00145);
#53=CYLINDRICAL_SURFACE('',#1357,0.00145);
#54=CYLINDRICAL_SURFACE('',#1360,0.00145);
#55=CYLINDRICAL_SURFACE('',#1363,0.00145);
#56=CYLINDRICAL_SURFACE('',#1369,0.0005);
#57=CYLINDRICAL_SURFACE('',#1373,0.0005);
#58=CYLINDRICAL_SURFACE('',#1377,0.0005);
#59=CYLINDRICAL_SURFACE('',#1381,0.0005);
#60=CYLINDRICAL_SURFACE('',#1384,0.0005);
#61=CYLINDRICAL_SURFACE('',#1388,0.0005);
#62=CYLINDRICAL_SURFACE('',#1392,0.0005);
#63=CYLINDRICAL_SURFACE('',#1396,0.0005);
#64=CYLINDRICAL_SURFACE('',#1399,0.000500000000000006);
#65=CYLINDRICAL_SURFACE('',#1403,0.0005);
#66=CYLINDRICAL_SURFACE('',#1407,0.0005);
#67=CYLINDRICAL_SURFACE('',#1411,0.000500000000000009);
#68=CYLINDRICAL_SURFACE('',#1414,0.0005);
#69=CYLINDRICAL_SURFACE('',#1418,0.0005);
#70=CYLINDRICAL_SURFACE('',#1422,0.0005);
#71=CYLINDRICAL_SURFACE('',#1426,0.0005);
#72=ORIENTED_EDGE('',*,*,#352,.F.);
#73=ORIENTED_EDGE('',*,*,#353,.F.);
#74=ORIENTED_EDGE('',*,*,#354,.T.);
#75=ORIENTED_EDGE('',*,*,#355,.T.);
#76=ORIENTED_EDGE('',*,*,#356,.F.);
#77=ORIENTED_EDGE('',*,*,#357,.T.);
#78=ORIENTED_EDGE('',*,*,#358,.T.);
#79=ORIENTED_EDGE('',*,*,#359,.F.);
#80=ORIENTED_EDGE('',*,*,#360,.F.);
#81=ORIENTED_EDGE('',*,*,#361,.F.);
#82=ORIENTED_EDGE('',*,*,#362,.T.);
#83=ORIENTED_EDGE('',*,*,#363,.T.);
#84=ORIENTED_EDGE('',*,*,#364,.F.);
#85=ORIENTED_EDGE('',*,*,#365,.T.);
#86=ORIENTED_EDGE('',*,*,#366,.T.);
#87=ORIENTED_EDGE('',*,*,#367,.F.);
#88=ORIENTED_EDGE('',*,*,#368,.F.);
#89=ORIENTED_EDGE('',*,*,#361,.T.);
#90=ORIENTED_EDGE('',*,*,#369,.T.);
#91=ORIENTED_EDGE('',*,*,#370,.F.);
#92=ORIENTED_EDGE('',*,*,#371,.T.);
#93=ORIENTED_EDGE('',*,*,#372,.F.);
#94=ORIENTED_EDGE('',*,*,#373,.F.);
#95=ORIENTED_EDGE('',*,*,#370,.T.);
#96=ORIENTED_EDGE('',*,*,#374,.T.);
#97=ORIENTED_EDGE('',*,*,#375,.F.);
#98=ORIENTED_EDGE('',*,*,#376,.F.);
#99=ORIENTED_EDGE('',*,*,#353,.T.);
#100=ORIENTED_EDGE('',*,*,#377,.T.);
#101=ORIENTED_EDGE('',*,*,#378,.F.);
#102=ORIENTED_EDGE('',*,*,#379,.F.);
#103=ORIENTED_EDGE('',*,*,#375,.T.);
#104=ORIENTED_EDGE('',*,*,#380,.F.);
#105=ORIENTED_EDGE('',*,*,#381,.T.);
#106=ORIENTED_EDGE('',*,*,#382,.F.);
#107=ORIENTED_EDGE('',*,*,#383,.T.);
#108=ORIENTED_EDGE('',*,*,#384,.F.);
#109=ORIENTED_EDGE('',*,*,#385,.T.);
#110=ORIENTED_EDGE('',*,*,#386,.F.);
#111=ORIENTED_EDGE('',*,*,#387,.T.);
#112=ORIENTED_EDGE('',*,*,#388,.F.);
#113=ORIENTED_EDGE('',*,*,#355,.F.);
#114=ORIENTED_EDGE('',*,*,#389,.T.);
#115=ORIENTED_EDGE('',*,*,#378,.T.);
#116=ORIENTED_EDGE('',*,*,#390,.F.);
#117=ORIENTED_EDGE('',*,*,#363,.F.);
#118=ORIENTED_EDGE('',*,*,#391,.T.);
#119=ORIENTED_EDGE('',*,*,#372,.T.);
#120=ORIENTED_EDGE('',*,*,#352,.T.);
#121=ORIENTED_EDGE('',*,*,#388,.T.);
#122=ORIENTED_EDGE('',*,*,#377,.F.);
#123=ORIENTED_EDGE('',*,*,#374,.F.);
#124=ORIENTED_EDGE('',*,*,#386,.T.);
#125=ORIENTED_EDGE('',*,*,#384,.T.);
#126=ORIENTED_EDGE('',*,*,#382,.T.);
#127=ORIENTED_EDGE('',*,*,#380,.T.);
#128=ORIENTED_EDGE('',*,*,#360,.T.);
#129=ORIENTED_EDGE('',*,*,#390,.T.);
#130=ORIENTED_EDGE('',*,*,#371,.F.);
#131=ORIENTED_EDGE('',*,*,#369,.F.);
#132=ORIENTED_EDGE('',*,*,#392,.F.);
#133=ORIENTED_EDGE('',*,*,#393,.F.);
#134=ORIENTED_EDGE('',*,*,#394,.T.);
#135=ORIENTED_EDGE('',*,*,#395,.T.);
#136=ORIENTED_EDGE('',*,*,#396,.T.);
#137=ORIENTED_EDGE('',*,*,#397,.F.);
#138=ORIENTED_EDGE('',*,*,#398,.F.);
#139=ORIENTED_EDGE('',*,*,#393,.T.);
#140=ORIENTED_EDGE('',*,*,#399,.F.);
#141=ORIENTED_EDGE('',*,*,#400,.F.);
#142=ORIENTED_EDGE('',*,*,#401,.T.);
#143=ORIENTED_EDGE('',*,*,#397,.T.);
#144=ORIENTED_EDGE('',*,*,#402,.T.);
#145=ORIENTED_EDGE('',*,*,#403,.F.);
#146=ORIENTED_EDGE('',*,*,#404,.F.);
#147=ORIENTED_EDGE('',*,*,#400,.T.);
#148=ORIENTED_EDGE('',*,*,#405,.F.);
#149=ORIENTED_EDGE('',*,*,#406,.F.);
#150=ORIENTED_EDGE('',*,*,#407,.T.);
#151=ORIENTED_EDGE('',*,*,#403,.T.);
#152=ORIENTED_EDGE('',*,*,#408,.F.);
#153=ORIENTED_EDGE('',*,*,#409,.F.);
#154=ORIENTED_EDGE('',*,*,#410,.T.);
#155=ORIENTED_EDGE('',*,*,#406,.T.);
#156=ORIENTED_EDGE('',*,*,#411,.F.);
#157=ORIENTED_EDGE('',*,*,#412,.F.);
#158=ORIENTED_EDGE('',*,*,#413,.T.);
#159=ORIENTED_EDGE('',*,*,#409,.T.);
#160=ORIENTED_EDGE('',*,*,#414,.F.);
#161=ORIENTED_EDGE('',*,*,#415,.F.);
#162=ORIENTED_EDGE('',*,*,#416,.T.);
#163=ORIENTED_EDGE('',*,*,#417,.T.);
#164=ORIENTED_EDGE('',*,*,#418,.T.);
#165=ORIENTED_EDGE('',*,*,#419,.F.);
#166=ORIENTED_EDGE('',*,*,#420,.F.);
#167=ORIENTED_EDGE('',*,*,#415,.T.);
#168=ORIENTED_EDGE('',*,*,#421,.F.);
#169=ORIENTED_EDGE('',*,*,#422,.F.);
#170=ORIENTED_EDGE('',*,*,#423,.T.);
#171=ORIENTED_EDGE('',*,*,#419,.T.);
#172=ORIENTED_EDGE('',*,*,#424,.T.);
#173=ORIENTED_EDGE('',*,*,#425,.F.);
#174=ORIENTED_EDGE('',*,*,#426,.F.);
#175=ORIENTED_EDGE('',*,*,#422,.T.);
#176=ORIENTED_EDGE('',*,*,#427,.F.);
#177=ORIENTED_EDGE('',*,*,#428,.F.);
#178=ORIENTED_EDGE('',*,*,#429,.T.);
#179=ORIENTED_EDGE('',*,*,#425,.T.);
#180=ORIENTED_EDGE('',*,*,#430,.F.);
#181=ORIENTED_EDGE('',*,*,#431,.F.);
#182=ORIENTED_EDGE('',*,*,#432,.T.);
#183=ORIENTED_EDGE('',*,*,#428,.T.);
#184=ORIENTED_EDGE('',*,*,#433,.F.);
#185=ORIENTED_EDGE('',*,*,#434,.F.);
#186=ORIENTED_EDGE('',*,*,#435,.T.);
#187=ORIENTED_EDGE('',*,*,#431,.T.);
#188=ORIENTED_EDGE('',*,*,#436,.F.);
#189=ORIENTED_EDGE('',*,*,#437,.F.);
#190=ORIENTED_EDGE('',*,*,#438,.T.);
#191=ORIENTED_EDGE('',*,*,#439,.T.);
#192=ORIENTED_EDGE('',*,*,#440,.T.);
#193=ORIENTED_EDGE('',*,*,#441,.F.);
#194=ORIENTED_EDGE('',*,*,#442,.F.);
#195=ORIENTED_EDGE('',*,*,#437,.T.);
#196=ORIENTED_EDGE('',*,*,#443,.F.);
#197=ORIENTED_EDGE('',*,*,#444,.F.);
#198=ORIENTED_EDGE('',*,*,#445,.T.);
#199=ORIENTED_EDGE('',*,*,#441,.T.);
#200=ORIENTED_EDGE('',*,*,#446,.T.);
#201=ORIENTED_EDGE('',*,*,#447,.F.);
#202=ORIENTED_EDGE('',*,*,#448,.F.);
#203=ORIENTED_EDGE('',*,*,#444,.T.);
#204=ORIENTED_EDGE('',*,*,#449,.F.);
#205=ORIENTED_EDGE('',*,*,#450,.F.);
#206=ORIENTED_EDGE('',*,*,#451,.T.);
#207=ORIENTED_EDGE('',*,*,#447,.T.);
#208=ORIENTED_EDGE('',*,*,#452,.F.);
#209=ORIENTED_EDGE('',*,*,#453,.F.);
#210=ORIENTED_EDGE('',*,*,#454,.T.);
#211=ORIENTED_EDGE('',*,*,#450,.T.);
#212=ORIENTED_EDGE('',*,*,#455,.F.);
#213=ORIENTED_EDGE('',*,*,#456,.F.);
#214=ORIENTED_EDGE('',*,*,#457,.T.);
#215=ORIENTED_EDGE('',*,*,#453,.T.);
#216=ORIENTED_EDGE('',*,*,#458,.F.);
#217=ORIENTED_EDGE('',*,*,#459,.F.);
#218=ORIENTED_EDGE('',*,*,#460,.T.);
#219=ORIENTED_EDGE('',*,*,#461,.T.);
#220=ORIENTED_EDGE('',*,*,#462,.T.);
#221=ORIENTED_EDGE('',*,*,#463,.F.);
#222=ORIENTED_EDGE('',*,*,#464,.F.);
#223=ORIENTED_EDGE('',*,*,#459,.T.);
#224=ORIENTED_EDGE('',*,*,#465,.F.);
#225=ORIENTED_EDGE('',*,*,#466,.F.);
#226=ORIENTED_EDGE('',*,*,#467,.T.);
#227=ORIENTED_EDGE('',*,*,#463,.T.);
#228=ORIENTED_EDGE('',*,*,#468,.T.);
#229=ORIENTED_EDGE('',*,*,#469,.F.);
#230=ORIENTED_EDGE('',*,*,#470,.F.);
#231=ORIENTED_EDGE('',*,*,#466,.T.);
#232=ORIENTED_EDGE('',*,*,#471,.F.);
#233=ORIENTED_EDGE('',*,*,#472,.F.);
#234=ORIENTED_EDGE('',*,*,#473,.T.);
#235=ORIENTED_EDGE('',*,*,#469,.T.);
#236=ORIENTED_EDGE('',*,*,#474,.F.);
#237=ORIENTED_EDGE('',*,*,#475,.F.);
#238=ORIENTED_EDGE('',*,*,#476,.T.);
#239=ORIENTED_EDGE('',*,*,#472,.T.);
#240=ORIENTED_EDGE('',*,*,#477,.F.);
#241=ORIENTED_EDGE('',*,*,#478,.F.);
#242=ORIENTED_EDGE('',*,*,#479,.T.);
#243=ORIENTED_EDGE('',*,*,#475,.T.);
#244=ORIENTED_EDGE('',*,*,#480,.F.);
#245=ORIENTED_EDGE('',*,*,#417,.F.);
#246=ORIENTED_EDGE('',*,*,#481,.T.);
#247=ORIENTED_EDGE('',*,*,#434,.T.);
#248=ORIENTED_EDGE('',*,*,#482,.F.);
#249=ORIENTED_EDGE('',*,*,#439,.F.);
#250=ORIENTED_EDGE('',*,*,#483,.T.);
#251=ORIENTED_EDGE('',*,*,#456,.T.);
#252=ORIENTED_EDGE('',*,*,#484,.F.);
#253=ORIENTED_EDGE('',*,*,#461,.F.);
#254=ORIENTED_EDGE('',*,*,#485,.T.);
#255=ORIENTED_EDGE('',*,*,#478,.T.);
#256=ORIENTED_EDGE('',*,*,#486,.F.);
#257=ORIENTED_EDGE('',*,*,#395,.F.);
#258=ORIENTED_EDGE('',*,*,#487,.T.);
#259=ORIENTED_EDGE('',*,*,#412,.T.);
#260=ORIENTED_EDGE('',*,*,#354,.F.);
#261=ORIENTED_EDGE('',*,*,#376,.T.);
#262=ORIENTED_EDGE('',*,*,#379,.T.);
#263=ORIENTED_EDGE('',*,*,#389,.F.);
#264=ORIENTED_EDGE('',*,*,#387,.F.);
#265=ORIENTED_EDGE('',*,*,#385,.F.);
#266=ORIENTED_EDGE('',*,*,#383,.F.);
#267=ORIENTED_EDGE('',*,*,#381,.F.);
#268=ORIENTED_EDGE('',*,*,#460,.F.);
#269=ORIENTED_EDGE('',*,*,#464,.T.);
#270=ORIENTED_EDGE('',*,*,#467,.F.);
#271=ORIENTED_EDGE('',*,*,#470,.T.);
#272=ORIENTED_EDGE('',*,*,#473,.F.);
#273=ORIENTED_EDGE('',*,*,#476,.F.);
#274=ORIENTED_EDGE('',*,*,#479,.F.);
#275=ORIENTED_EDGE('',*,*,#485,.F.);
#276=ORIENTED_EDGE('',*,*,#438,.F.);
#277=ORIENTED_EDGE('',*,*,#442,.T.);
#278=ORIENTED_EDGE('',*,*,#445,.F.);
#279=ORIENTED_EDGE('',*,*,#448,.T.);
#280=ORIENTED_EDGE('',*,*,#451,.F.);
#281=ORIENTED_EDGE('',*,*,#454,.F.);
#282=ORIENTED_EDGE('',*,*,#457,.F.);
#283=ORIENTED_EDGE('',*,*,#483,.F.);
#284=ORIENTED_EDGE('',*,*,#416,.F.);
#285=ORIENTED_EDGE('',*,*,#420,.T.);
#286=ORIENTED_EDGE('',*,*,#423,.F.);
#287=ORIENTED_EDGE('',*,*,#426,.T.);
#288=ORIENTED_EDGE('',*,*,#429,.F.);
#289=ORIENTED_EDGE('',*,*,#432,.F.);
#290=ORIENTED_EDGE('',*,*,#435,.F.);
#291=ORIENTED_EDGE('',*,*,#481,.F.);
#292=ORIENTED_EDGE('',*,*,#394,.F.);
#293=ORIENTED_EDGE('',*,*,#398,.T.);
#294=ORIENTED_EDGE('',*,*,#401,.F.);
#295=ORIENTED_EDGE('',*,*,#404,.T.);
#296=ORIENTED_EDGE('',*,*,#407,.F.);
#297=ORIENTED_EDGE('',*,*,#410,.F.);
#298=ORIENTED_EDGE('',*,*,#413,.F.);
#299=ORIENTED_EDGE('',*,*,#487,.F.);
#300=ORIENTED_EDGE('',*,*,#368,.T.);
#301=ORIENTED_EDGE('',*,*,#488,.T.);
#302=ORIENTED_EDGE('',*,*,#357,.F.);
#303=ORIENTED_EDGE('',*,*,#489,.F.);
#304=ORIENTED_EDGE('',*,*,#364,.T.);
#305=ORIENTED_EDGE('',*,*,#373,.T.);
#306=ORIENTED_EDGE('',*,*,#391,.F.);
#307=ORIENTED_EDGE('',*,*,#362,.F.);
#308=ORIENTED_EDGE('',*,*,#443,.T.);
#309=ORIENTED_EDGE('',*,*,#440,.F.);
#310=ORIENTED_EDGE('',*,*,#436,.T.);
#311=ORIENTED_EDGE('',*,*,#482,.T.);
#312=ORIENTED_EDGE('',*,*,#455,.T.);
#313=ORIENTED_EDGE('',*,*,#452,.T.);
#314=ORIENTED_EDGE('',*,*,#449,.T.);
#315=ORIENTED_EDGE('',*,*,#446,.F.);
#316=ORIENTED_EDGE('',*,*,#392,.T.);
#317=ORIENTED_EDGE('',*,*,#486,.T.);
#318=ORIENTED_EDGE('',*,*,#411,.T.);
#319=ORIENTED_EDGE('',*,*,#408,.T.);
#320=ORIENTED_EDGE('',*,*,#405,.T.);
#321=ORIENTED_EDGE('',*,*,#402,.F.);
#322=ORIENTED_EDGE('',*,*,#399,.T.);
#323=ORIENTED_EDGE('',*,*,#396,.F.);
#324=ORIENTED_EDGE('',*,*,#414,.T.);
#325=ORIENTED_EDGE('',*,*,#480,.T.);
#326=ORIENTED_EDGE('',*,*,#433,.T.);
#327=ORIENTED_EDGE('',*,*,#430,.T.);
#328=ORIENTED_EDGE('',*,*,#427,.T.);
#329=ORIENTED_EDGE('',*,*,#424,.F.);
#330=ORIENTED_EDGE('',*,*,#421,.T.);
#331=ORIENTED_EDGE('',*,*,#418,.F.);
#332=ORIENTED_EDGE('',*,*,#458,.T.);
#333=ORIENTED_EDGE('',*,*,#484,.T.);
#334=ORIENTED_EDGE('',*,*,#477,.T.);
#335=ORIENTED_EDGE('',*,*,#474,.T.);
#336=ORIENTED_EDGE('',*,*,#471,.T.);
#337=ORIENTED_EDGE('',*,*,#468,.F.);
#338=ORIENTED_EDGE('',*,*,#465,.T.);
#339=ORIENTED_EDGE('',*,*,#462,.F.);
#340=ORIENTED_EDGE('',*,*,#489,.T.);
#341=ORIENTED_EDGE('',*,*,#356,.T.);
#342=ORIENTED_EDGE('',*,*,#490,.F.);
#343=ORIENTED_EDGE('',*,*,#365,.F.);
#344=ORIENTED_EDGE('',*,*,#490,.T.);
#345=ORIENTED_EDGE('',*,*,#359,.T.);
#346=ORIENTED_EDGE('',*,*,#491,.F.);
#347=ORIENTED_EDGE('',*,*,#366,.F.);
#348=ORIENTED_EDGE('',*,*,#367,.T.);
#349=ORIENTED_EDGE('',*,*,#491,.T.);
#350=ORIENTED_EDGE('',*,*,#358,.F.);
#351=ORIENTED_EDGE('',*,*,#488,.F.);
#352=EDGE_CURVE('',#492,#493,#588,.T.);
#353=EDGE_CURVE('',#494,#492,#589,.T.);
#354=EDGE_CURVE('',#494,#495,#590,.T.);
#355=EDGE_CURVE('',#495,#493,#591,.T.);
#356=EDGE_CURVE('',#496,#497,#592,.T.);
#357=EDGE_CURVE('',#496,#498,#593,.T.);
#358=EDGE_CURVE('',#498,#499,#594,.T.);
#359=EDGE_CURVE('',#497,#499,#595,.T.);
#360=EDGE_CURVE('',#500,#501,#596,.T.);
#361=EDGE_CURVE('',#502,#500,#597,.T.);
#362=EDGE_CURVE('',#502,#503,#598,.T.);
#363=EDGE_CURVE('',#503,#501,#599,.T.);
#364=EDGE_CURVE('',#504,#505,#600,.T.);
#365=EDGE_CURVE('',#504,#506,#601,.T.);
#366=EDGE_CURVE('',#506,#507,#602,.T.);
#367=EDGE_CURVE('',#508,#507,#603,.T.);
#368=EDGE_CURVE('',#502,#508,#604,.T.);
#369=EDGE_CURVE('',#500,#509,#605,.T.);
#370=EDGE_CURVE('',#505,#509,#606,.T.);
#371=EDGE_CURVE('',#509,#510,#607,.T.);
#372=EDGE_CURVE('',#511,#510,#608,.T.);
#373=EDGE_CURVE('',#505,#511,#609,.T.);
#374=EDGE_CURVE('',#492,#512,#610,.T.);
#375=EDGE_CURVE('',#513,#512,#611,.T.);
#376=EDGE_CURVE('',#494,#513,#612,.T.);
#377=EDGE_CURVE('',#512,#514,#613,.T.);
#378=EDGE_CURVE('',#515,#514,#614,.T.);
#379=EDGE_CURVE('',#513,#515,#615,.T.);
#380=EDGE_CURVE('',#516,#516,#12,.T.);
#381=EDGE_CURVE('',#517,#517,#13,.T.);
#382=EDGE_CURVE('',#518,#518,#14,.T.);
#383=EDGE_CURVE('',#519,#519,#15,.T.);
#384=EDGE_CURVE('',#520,#520,#16,.T.);
#385=EDGE_CURVE('',#521,#521,#17,.T.);
#386=EDGE_CURVE('',#522,#522,#18,.T.);
#387=EDGE_CURVE('',#523,#523,#19,.T.);
#388=EDGE_CURVE('',#493,#514,#616,.T.);
#389=EDGE_CURVE('',#495,#515,#617,.T.);
#390=EDGE_CURVE('',#501,#510,#618,.T.);
#391=EDGE_CURVE('',#503,#511,#619,.T.);
#392=EDGE_CURVE('',#524,#525,#20,.T.);
#393=EDGE_CURVE('',#526,#524,#620,.T.);
#394=EDGE_CURVE('',#526,#527,#21,.T.);
#395=EDGE_CURVE('',#527,#525,#621,.T.);
#396=EDGE_CURVE('',#524,#528,#622,.T.);
#397=EDGE_CURVE('',#529,#528,#623,.T.);
#398=EDGE_CURVE('',#526,#529,#624,.T.);
#399=EDGE_CURVE('',#530,#528,#22,.T.);
#400=EDGE_CURVE('',#531,#530,#625,.T.);
#401=EDGE_CURVE('',#531,#529,#23,.T.);
#402=EDGE_CURVE('',#530,#532,#626,.T.);
#403=EDGE_CURVE('',#533,#532,#627,.T.);
#404=EDGE_CURVE('',#531,#533,#628,.T.);
#405=EDGE_CURVE('',#534,#532,#24,.T.);
#406=EDGE_CURVE('',#535,#534,#629,.T.);
#407=EDGE_CURVE('',#535,#533,#25,.T.);
#408=EDGE_CURVE('',#536,#534,#630,.T.);
#409=EDGE_CURVE('',#537,#536,#631,.T.);
#410=EDGE_CURVE('',#537,#535,#632,.T.);
#411=EDGE_CURVE('',#538,#536,#26,.T.);
#412=EDGE_CURVE('',#539,#538,#633,.T.);
#413=EDGE_CURVE('',#539,#537,#27,.T.);
#414=EDGE_CURVE('',#540,#541,#28,.T.);
#415=EDGE_CURVE('',#542,#540,#634,.T.);
#416=EDGE_CURVE('',#542,#543,#29,.T.);
#417=EDGE_CURVE('',#543,#541,#635,.T.);
#418=EDGE_CURVE('',#540,#544,#636,.T.);
#419=EDGE_CURVE('',#545,#544,#637,.T.);
#420=EDGE_CURVE('',#542,#545,#638,.T.);
#421=EDGE_CURVE('',#546,#544,#30,.T.);
#422=EDGE_CURVE('',#547,#546,#639,.T.);
#423=EDGE_CURVE('',#547,#545,#31,.T.);
#424=EDGE_CURVE('',#546,#548,#640,.T.);
#425=EDGE_CURVE('',#549,#548,#641,.T.);
#426=EDGE_CURVE('',#547,#549,#642,.T.);
#427=EDGE_CURVE('',#550,#548,#32,.T.);
#428=EDGE_CURVE('',#551,#550,#643,.T.);
#429=EDGE_CURVE('',#551,#549,#33,.T.);
#430=EDGE_CURVE('',#552,#550,#644,.T.);
#431=EDGE_CURVE('',#553,#552,#645,.T.);
#432=EDGE_CURVE('',#553,#551,#646,.T.);
#433=EDGE_CURVE('',#554,#552,#34,.T.);
#434=EDGE_CURVE('',#555,#554,#647,.T.);
#435=EDGE_CURVE('',#555,#553,#35,.T.);
#436=EDGE_CURVE('',#556,#557,#36,.T.);
#437=EDGE_CURVE('',#558,#556,#648,.T.);
#438=EDGE_CURVE('',#558,#559,#37,.T.);
#439=EDGE_CURVE('',#559,#557,#649,.T.);
#440=EDGE_CURVE('',#556,#560,#650,.T.);
#441=EDGE_CURVE('',#561,#560,#651,.T.);
#442=EDGE_CURVE('',#558,#561,#652,.T.);
#443=EDGE_CURVE('',#562,#560,#38,.T.);
#444=EDGE_CURVE('',#563,#562,#653,.T.);
#445=EDGE_CURVE('',#563,#561,#39,.T.);
#446=EDGE_CURVE('',#562,#564,#654,.T.);
#447=EDGE_CURVE('',#565,#564,#655,.T.);
#448=EDGE_CURVE('',#563,#565,#656,.T.);
#449=EDGE_CURVE('',#566,#564,#40,.T.);
#450=EDGE_CURVE('',#567,#566,#657,.T.);
#451=EDGE_CURVE('',#567,#565,#41,.T.);
#452=EDGE_CURVE('',#568,#566,#658,.T.);
#453=EDGE_CURVE('',#569,#568,#659,.T.);
#454=EDGE_CURVE('',#569,#567,#660,.T.);
#455=EDGE_CURVE('',#570,#568,#42,.T.);
#456=EDGE_CURVE('',#571,#570,#661,.T.);
#457=EDGE_CURVE('',#571,#569,#43,.T.);
#458=EDGE_CURVE('',#572,#573,#44,.T.);
#459=EDGE_CURVE('',#574,#572,#662,.T.);
#460=EDGE_CURVE('',#574,#575,#45,.T.);
#461=EDGE_CURVE('',#575,#573,#663,.T.);
#462=EDGE_CURVE('',#572,#576,#664,.T.);
#463=EDGE_CURVE('',#577,#576,#665,.T.);
#464=EDGE_CURVE('',#574,#577,#666,.T.);
#465=EDGE_CURVE('',#578,#576,#46,.T.);
#466=EDGE_CURVE('',#579,#578,#667,.T.);
#467=EDGE_CURVE('',#579,#577,#47,.T.);
#468=EDGE_CURVE('',#578,#580,#668,.T.);
#469=EDGE_CURVE('',#581,#580,#669,.T.);
#470=EDGE_CURVE('',#579,#581,#670,.T.);
#471=EDGE_CURVE('',#582,#580,#48,.T.);
#472=EDGE_CURVE('',#583,#582,#671,.T.);
#473=EDGE_CURVE('',#583,#581,#49,.T.);
#474=EDGE_CURVE('',#584,#582,#672,.T.);
#475=EDGE_CURVE('',#585,#584,#673,.T.);
#476=EDGE_CURVE('',#585,#583,#674,.T.);
#477=EDGE_CURVE('',#586,#584,#50,.T.);
#478=EDGE_CURVE('',#587,#586,#675,.T.);
#479=EDGE_CURVE('',#587,#585,#51,.T.);
#480=EDGE_CURVE('',#541,#554,#676,.T.);
#481=EDGE_CURVE('',#543,#555,#677,.T.);
#482=EDGE_CURVE('',#557,#570,#678,.T.);
#483=EDGE_CURVE('',#559,#571,#679,.T.);
#484=EDGE_CURVE('',#573,#586,#680,.T.);
#485=EDGE_CURVE('',#575,#587,#681,.T.);
#486=EDGE_CURVE('',#525,#538,#682,.T.);
#487=EDGE_CURVE('',#527,#539,#683,.T.);
#488=EDGE_CURVE('',#508,#498,#684,.T.);
#489=EDGE_CURVE('',#504,#496,#685,.T.);
#490=EDGE_CURVE('',#506,#497,#686,.T.);
#491=EDGE_CURVE('',#507,#499,#687,.T.);
#492=VERTEX_POINT('',#1723);
#493=VERTEX_POINT('',#1724);
#494=VERTEX_POINT('',#1726);
#495=VERTEX_POINT('',#1728);
#496=VERTEX_POINT('',#1731);
#497=VERTEX_POINT('',#1732);
#498=VERTEX_POINT('',#1734);
#499=VERTEX_POINT('',#1736);
#500=VERTEX_POINT('',#1740);
#501=VERTEX_POINT('',#1741);
#502=VERTEX_POINT('',#1743);
#503=VERTEX_POINT('',#1745);
#504=VERTEX_POINT('',#1749);
#505=VERTEX_POINT('',#1750);
#506=VERTEX_POINT('',#1752);
#507=VERTEX_POINT('',#1754);
#508=VERTEX_POINT('',#1756);
#509=VERTEX_POINT('',#1759);
#510=VERTEX_POINT('',#1763);
#511=VERTEX_POINT('',#1765);
#512=VERTEX_POINT('',#1769);
#513=VERTEX_POINT('',#1771);
#514=VERTEX_POINT('',#1775);
#515=VERTEX_POINT('',#1777);
#516=VERTEX_POINT('',#1781);
#517=VERTEX_POINT('',#1783);
#518=VERTEX_POINT('',#1786);
#519=VERTEX_POINT('',#1788);
#520=VERTEX_POINT('',#1791);
#521=VERTEX_POINT('',#1793);
#522=VERTEX_POINT('',#1796);
#523=VERTEX_POINT('',#1798);
#524=VERTEX_POINT('',#1808);
#525=VERTEX_POINT('',#1809);
#526=VERTEX_POINT('',#1811);
#527=VERTEX_POINT('',#1813);
#528=VERTEX_POINT('',#1817);
#529=VERTEX_POINT('',#1819);
#530=VERTEX_POINT('',#1823);
#531=VERTEX_POINT('',#1825);
#532=VERTEX_POINT('',#1829);
#533=VERTEX_POINT('',#1831);
#534=VERTEX_POINT('',#1835);
#535=VERTEX_POINT('',#1837);
#536=VERTEX_POINT('',#1841);
#537=VERTEX_POINT('',#1843);
#538=VERTEX_POINT('',#1847);
#539=VERTEX_POINT('',#1849);
#540=VERTEX_POINT('',#1853);
#541=VERTEX_POINT('',#1854);
#542=VERTEX_POINT('',#1856);
#543=VERTEX_POINT('',#1858);
#544=VERTEX_POINT('',#1862);
#545=VERTEX_POINT('',#1864);
#546=VERTEX_POINT('',#1868);
#547=VERTEX_POINT('',#1870);
#548=VERTEX_POINT('',#1874);
#549=VERTEX_POINT('',#1876);
#550=VERTEX_POINT('',#1880);
#551=VERTEX_POINT('',#1882);
#552=VERTEX_POINT('',#1886);
#553=VERTEX_POINT('',#1888);
#554=VERTEX_POINT('',#1892);
#555=VERTEX_POINT('',#1894);
#556=VERTEX_POINT('',#1898);
#557=VERTEX_POINT('',#1899);
#558=VERTEX_POINT('',#1901);
#559=VERTEX_POINT('',#1903);
#560=VERTEX_POINT('',#1907);
#561=VERTEX_POINT('',#1909);
#562=VERTEX_POINT('',#1913);
#563=VERTEX_POINT('',#1915);
#564=VERTEX_POINT('',#1919);
#565=VERTEX_POINT('',#1921);
#566=VERTEX_POINT('',#1925);
#567=VERTEX_POINT('',#1927);
#568=VERTEX_POINT('',#1931);
#569=VERTEX_POINT('',#1933);
#570=VERTEX_POINT('',#1937);
#571=VERTEX_POINT('',#1939);
#572=VERTEX_POINT('',#1943);
#573=VERTEX_POINT('',#1944);
#574=VERTEX_POINT('',#1946);
#575=VERTEX_POINT('',#1948);
#576=VERTEX_POINT('',#1952);
#577=VERTEX_POINT('',#1954);
#578=VERTEX_POINT('',#1958);
#579=VERTEX_POINT('',#1960);
#580=VERTEX_POINT('',#1964);
#581=VERTEX_POINT('',#1966);
#582=VERTEX_POINT('',#1970);
#583=VERTEX_POINT('',#1972);
#584=VERTEX_POINT('',#1976);
#585=VERTEX_POINT('',#1978);
#586=VERTEX_POINT('',#1982);
#587=VERTEX_POINT('',#1984);
#588=LINE('',#1722,#688);
#589=LINE('',#1725,#689);
#590=LINE('',#1727,#690);
#591=LINE('',#1729,#691);
#592=LINE('',#1730,#692);
#593=LINE('',#1733,#693);
#594=LINE('',#1735,#694);
#595=LINE('',#1737,#695);
#596=LINE('',#1739,#696);
#597=LINE('',#1742,#697);
#598=LINE('',#1744,#698);
#599=LINE('',#1746,#699);
#600=LINE('',#1748,#700);
#601=LINE('',#1751,#701);
#602=LINE('',#1753,#702);
#603=LINE('',#1755,#703);
#604=LINE('',#1757,#704);
#605=LINE('',#1758,#705);
#606=LINE('',#1760,#706);
#607=LINE('',#1762,#707);
#608=LINE('',#1764,#708);
#609=LINE('',#1766,#709);
#610=LINE('',#1768,#710);
#611=LINE('',#1770,#711);
#612=LINE('',#1772,#712);
#613=LINE('',#1774,#713);
#614=LINE('',#1776,#714);
#615=LINE('',#1778,#715);
#616=LINE('',#1800,#716);
#617=LINE('',#1801,#717);
#618=LINE('',#1803,#718);
#619=LINE('',#1804,#719);
#620=LINE('',#1810,#720);
#621=LINE('',#1814,#721);
#622=LINE('',#1816,#722);
#623=LINE('',#1818,#723);
#624=LINE('',#1820,#724);
#625=LINE('',#1824,#725);
#626=LINE('',#1828,#726);
#627=LINE('',#1830,#727);
#628=LINE('',#1832,#728);
#629=LINE('',#1836,#729);
#630=LINE('',#1840,#730);
#631=LINE('',#1842,#731);
#632=LINE('',#1844,#732);
#633=LINE('',#1848,#733);
#634=LINE('',#1855,#734);
#635=LINE('',#1859,#735);
#636=LINE('',#1861,#736);
#637=LINE('',#1863,#737);
#638=LINE('',#1865,#738);
#639=LINE('',#1869,#739);
#640=LINE('',#1873,#740);
#641=LINE('',#1875,#741);
#642=LINE('',#1877,#742);
#643=LINE('',#1881,#743);
#644=LINE('',#1885,#744);
#645=LINE('',#1887,#745);
#646=LINE('',#1889,#746);
#647=LINE('',#1893,#747);
#648=LINE('',#1900,#748);
#649=LINE('',#1904,#749);
#650=LINE('',#1906,#750);
#651=LINE('',#1908,#751);
#652=LINE('',#1910,#752);
#653=LINE('',#1914,#753);
#654=LINE('',#1918,#754);
#655=LINE('',#1920,#755);
#656=LINE('',#1922,#756);
#657=LINE('',#1926,#757);
#658=LINE('',#1930,#758);
#659=LINE('',#1932,#759);
#660=LINE('',#1934,#760);
#661=LINE('',#1938,#761);
#662=LINE('',#1945,#762);
#663=LINE('',#1949,#763);
#664=LINE('',#1951,#764);
#665=LINE('',#1953,#765);
#666=LINE('',#1955,#766);
#667=LINE('',#1959,#767);
#668=LINE('',#1963,#768);
#669=LINE('',#1965,#769);
#670=LINE('',#1967,#770);
#671=LINE('',#1971,#771);
#672=LINE('',#1975,#772);
#673=LINE('',#1977,#773);
#674=LINE('',#1979,#774);
#675=LINE('',#1983,#775);
#676=LINE('',#1987,#776);
#677=LINE('',#1988,#777);
#678=LINE('',#1990,#778);
#679=LINE('',#1991,#779);
#680=LINE('',#1993,#780);
#681=LINE('',#1994,#781);
#682=LINE('',#1996,#782);
#683=LINE('',#1997,#783);
#684=LINE('',#2000,#784);
#685=LINE('',#2001,#785);
#686=LINE('',#2003,#786);
#687=LINE('',#2005,#787);
#688=VECTOR('',#1442,1.);
#689=VECTOR('',#1443,1.);
#690=VECTOR('',#1444,1.);
#691=VECTOR('',#1445,1.);
#692=VECTOR('',#1446,1.);
#693=VECTOR('',#1447,1.);
#694=VECTOR('',#1448,1.);
#695=VECTOR('',#1449,1.);
#696=VECTOR('',#1452,1.);
#697=VECTOR('',#1453,1.);
#698=VECTOR('',#1454,1.);
#699=VECTOR('',#1455,1.);
#700=VECTOR('',#1458,1.);
#701=VECTOR('',#1459,1.);
#702=VECTOR('',#1460,1.);
#703=VECTOR('',#1461,1.);
#704=VECTOR('',#1462,1.);
#705=VECTOR('',#1463,1.);
#706=VECTOR('',#1464,1.);
#707=VECTOR('',#1467,1.);
#708=VECTOR('',#1468,1.);
#709=VECTOR('',#1469,1.);
#710=VECTOR('',#1472,1.);
#711=VECTOR('',#1473,1.);
#712=VECTOR('',#1474,1.);
#713=VECTOR('',#1477,1.);
#714=VECTOR('',#1478,1.);
#715=VECTOR('',#1479,1.);
#716=VECTOR('',#1506,1.);
#717=VECTOR('',#1507,1.);
#718=VECTOR('',#1510,1.);
#719=VECTOR('',#1511,1.);
#720=VECTOR('',#1518,1.);
#721=VECTOR('',#1521,1.);
#722=VECTOR('',#1524,1.);
#723=VECTOR('',#1525,1.);
#724=VECTOR('',#1526,1.);
#725=VECTOR('',#1531,1.);
#726=VECTOR('',#1536,1.);
#727=VECTOR('',#1537,1.);
#728=VECTOR('',#1538,1.);
#729=VECTOR('',#1543,1.);
#730=VECTOR('',#1548,1.);
#731=VECTOR('',#1549,1.);
#732=VECTOR('',#1550,1.);
#733=VECTOR('',#1555,1.);
#734=VECTOR('',#1562,1.);
#735=VECTOR('',#1565,1.);
#736=VECTOR('',#1568,1.);
#737=VECTOR('',#1569,1.);
#738=VECTOR('',#1570,1.);
#739=VECTOR('',#1575,1.);
#740=VECTOR('',#1580,1.);
#741=VECTOR('',#1581,1.);
#742=VECTOR('',#1582,1.);
#743=VECTOR('',#1587,1.);
#744=VECTOR('',#1592,1.);
#745=VECTOR('',#1593,1.);
#746=VECTOR('',#1594,1.);
#747=VECTOR('',#1599,1.);
#748=VECTOR('',#1606,1.);
#749=VECTOR('',#1609,1.);
#750=VECTOR('',#1612,1.);
#751=VECTOR('',#1613,1.);
#752=VECTOR('',#1614,1.);
#753=VECTOR('',#1619,1.);
#754=VECTOR('',#1624,1.);
#755=VECTOR('',#1625,1.);
#756=VECTOR('',#1626,1.);
#757=VECTOR('',#1631,1.);
#758=VECTOR('',#1636,1.);
#759=VECTOR('',#1637,1.);
#760=VECTOR('',#1638,1.);
#761=VECTOR('',#1643,1.);
#762=VECTOR('',#1650,1.);
#763=VECTOR('',#1653,1.);
#764=VECTOR('',#1656,1.);
#765=VECTOR('',#1657,1.);
#766=VECTOR('',#1658,1.);
#767=VECTOR('',#1663,1.);
#768=VECTOR('',#1668,1.);
#769=VECTOR('',#1669,1.);
#770=VECTOR('',#1670,1.);
#771=VECTOR('',#1675,1.);
#772=VECTOR('',#1680,1.);
#773=VECTOR('',#1681,1.);
#774=VECTOR('',#1682,1.);
#775=VECTOR('',#1687,1.);
#776=VECTOR('',#1692,1.);
#777=VECTOR('',#1693,1.);
#778=VECTOR('',#1696,1.);
#779=VECTOR('',#1697,1.);
#780=VECTOR('',#1700,1.);
#781=VECTOR('',#1701,1.);
#782=VECTOR('',#1704,1.);
#783=VECTOR('',#1705,1.);
#784=VECTOR('',#1710,1.);
#785=VECTOR('',#1711,1.);
#786=VECTOR('',#1714,1.);
#787=VECTOR('',#1717,1.);
#788=EDGE_LOOP('',(#72,#73,#74,#75));
#789=EDGE_LOOP('',(#76,#77,#78,#79));
#790=EDGE_LOOP('',(#80,#81,#82,#83));
#791=EDGE_LOOP('',(#84,#85,#86,#87,#88,#89,#90,#91));
#792=EDGE_LOOP('',(#92,#93,#94,#95));
#793=EDGE_LOOP('',(#96,#97,#98,#99));
#794=EDGE_LOOP('',(#100,#101,#102,#103));
#795=EDGE_LOOP('',(#104));
#796=EDGE_LOOP('',(#105));
#797=EDGE_LOOP('',(#106));
#798=EDGE_LOOP('',(#107));
#799=EDGE_LOOP('',(#108));
#800=EDGE_LOOP('',(#109));
#801=EDGE_LOOP('',(#110));
#802=EDGE_LOOP('',(#111));
#803=EDGE_LOOP('',(#112,#113,#114,#115));
#804=EDGE_LOOP('',(#116,#117,#118,#119));
#805=EDGE_LOOP('',(#120,#121,#122,#123));
#806=EDGE_LOOP('',(#124));
#807=EDGE_LOOP('',(#125));
#808=EDGE_LOOP('',(#126));
#809=EDGE_LOOP('',(#127));
#810=EDGE_LOOP('',(#128,#129,#130,#131));
#811=EDGE_LOOP('',(#132,#133,#134,#135));
#812=EDGE_LOOP('',(#136,#137,#138,#139));
#813=EDGE_LOOP('',(#140,#141,#142,#143));
#814=EDGE_LOOP('',(#144,#145,#146,#147));
#815=EDGE_LOOP('',(#148,#149,#150,#151));
#816=EDGE_LOOP('',(#152,#153,#154,#155));
#817=EDGE_LOOP('',(#156,#157,#158,#159));
#818=EDGE_LOOP('',(#160,#161,#162,#163));
#819=EDGE_LOOP('',(#164,#165,#166,#167));
#820=EDGE_LOOP('',(#168,#169,#170,#171));
#821=EDGE_LOOP('',(#172,#173,#174,#175));
#822=EDGE_LOOP('',(#176,#177,#178,#179));
#823=EDGE_LOOP('',(#180,#181,#182,#183));
#824=EDGE_LOOP('',(#184,#185,#186,#187));
#825=EDGE_LOOP('',(#188,#189,#190,#191));
#826=EDGE_LOOP('',(#192,#193,#194,#195));
#827=EDGE_LOOP('',(#196,#197,#198,#199));
#828=EDGE_LOOP('',(#200,#201,#202,#203));
#829=EDGE_LOOP('',(#204,#205,#206,#207));
#830=EDGE_LOOP('',(#208,#209,#210,#211));
#831=EDGE_LOOP('',(#212,#213,#214,#215));
#832=EDGE_LOOP('',(#216,#217,#218,#219));
#833=EDGE_LOOP('',(#220,#221,#222,#223));
#834=EDGE_LOOP('',(#224,#225,#226,#227));
#835=EDGE_LOOP('',(#228,#229,#230,#231));
#836=EDGE_LOOP('',(#232,#233,#234,#235));
#837=EDGE_LOOP('',(#236,#237,#238,#239));
#838=EDGE_LOOP('',(#240,#241,#242,#243));
#839=EDGE_LOOP('',(#244,#245,#246,#247));
#840=EDGE_LOOP('',(#248,#249,#250,#251));
#841=EDGE_LOOP('',(#252,#253,#254,#255));
#842=EDGE_LOOP('',(#256,#257,#258,#259));
#843=EDGE_LOOP('',(#260,#261,#262,#263));
#844=EDGE_LOOP('',(#264));
#845=EDGE_LOOP('',(#265));
#846=EDGE_LOOP('',(#266));
#847=EDGE_LOOP('',(#267));
#848=EDGE_LOOP('',(#268,#269,#270,#271,#272,#273,#274,#275));
#849=EDGE_LOOP('',(#276,#277,#278,#279,#280,#281,#282,#283));
#850=EDGE_LOOP('',(#284,#285,#286,#287,#288,#289,#290,#291));
#851=EDGE_LOOP('',(#292,#293,#294,#295,#296,#297,#298,#299));
#852=EDGE_LOOP('',(#300,#301,#302,#303,#304,#305,#306,#307));
#853=EDGE_LOOP('',(#308,#309,#310,#311,#312,#313,#314,#315));
#854=EDGE_LOOP('',(#316,#317,#318,#319,#320,#321,#322,#323));
#855=EDGE_LOOP('',(#324,#325,#326,#327,#328,#329,#330,#331));
#856=EDGE_LOOP('',(#332,#333,#334,#335,#336,#337,#338,#339));
#857=EDGE_LOOP('',(#340,#341,#342,#343));
#858=EDGE_LOOP('',(#344,#345,#346,#347));
#859=EDGE_LOOP('',(#348,#349,#350,#351));
#860=FACE_BOUND('',#788,.T.);
#861=FACE_BOUND('',#789,.T.);
#862=FACE_BOUND('',#790,.T.);
#863=FACE_BOUND('',#791,.T.);
#864=FACE_BOUND('',#792,.T.);
#865=FACE_BOUND('',#793,.T.);
#866=FACE_BOUND('',#794,.T.);
#867=FACE_BOUND('',#795,.T.);
#868=FACE_BOUND('',#796,.T.);
#869=FACE_BOUND('',#797,.T.);
#870=FACE_BOUND('',#798,.T.);
#871=FACE_BOUND('',#799,.T.);
#872=FACE_BOUND('',#800,.T.);
#873=FACE_BOUND('',#801,.T.);
#874=FACE_BOUND('',#802,.T.);
#875=FACE_BOUND('',#803,.T.);
#876=FACE_BOUND('',#804,.T.);
#877=FACE_BOUND('',#805,.T.);
#878=FACE_BOUND('',#806,.T.);
#879=FACE_BOUND('',#807,.T.);
#880=FACE_BOUND('',#808,.T.);
#881=FACE_BOUND('',#809,.T.);
#882=FACE_BOUND('',#810,.T.);
#883=FACE_BOUND('',#811,.T.);
#884=FACE_BOUND('',#812,.T.);
#885=FACE_BOUND('',#813,.T.);
#886=FACE_BOUND('',#814,.T.);
#887=FACE_BOUND('',#815,.T.);
#888=FACE_BOUND('',#816,.T.);
#889=FACE_BOUND('',#817,.T.);
#890=FACE_BOUND('',#818,.T.);
#891=FACE_BOUND('',#819,.T.);
#892=FACE_BOUND('',#820,.T.);
#893=FACE_BOUND('',#821,.T.);
#894=FACE_BOUND('',#822,.T.);
#895=FACE_BOUND('',#823,.T.);
#896=FACE_BOUND('',#824,.T.);
#897=FACE_BOUND('',#825,.T.);
#898=FACE_BOUND('',#826,.T.);
#899=FACE_BOUND('',#827,.T.);
#900=FACE_BOUND('',#828,.T.);
#901=FACE_BOUND('',#829,.T.);
#902=FACE_BOUND('',#830,.T.);
#903=FACE_BOUND('',#831,.T.);
#904=FACE_BOUND('',#832,.T.);
#905=FACE_BOUND('',#833,.T.);
#906=FACE_BOUND('',#834,.T.);
#907=FACE_BOUND('',#835,.T.);
#908=FACE_BOUND('',#836,.T.);
#909=FACE_BOUND('',#837,.T.);
#910=FACE_BOUND('',#838,.T.);
#911=FACE_BOUND('',#839,.T.);
#912=FACE_BOUND('',#840,.T.);
#913=FACE_BOUND('',#841,.T.);
#914=FACE_BOUND('',#842,.T.);
#915=FACE_BOUND('',#843,.T.);
#916=FACE_BOUND('',#844,.T.);
#917=FACE_BOUND('',#845,.T.);
#918=FACE_BOUND('',#846,.T.);
#919=FACE_BOUND('',#847,.T.);
#920=FACE_BOUND('',#848,.T.);
#921=FACE_BOUND('',#849,.T.);
#922=FACE_BOUND('',#850,.T.);
#923=FACE_BOUND('',#851,.T.);
#924=FACE_BOUND('',#852,.T.);
#925=FACE_BOUND('',#853,.T.);
#926=FACE_BOUND('',#854,.T.);
#927=FACE_BOUND('',#855,.T.);
#928=FACE_BOUND('',#856,.T.);
#929=FACE_BOUND('',#857,.T.);
#930=FACE_BOUND('',#858,.T.);
#931=FACE_BOUND('',#859,.T.);
#932=PLANE('',#1348);
#933=PLANE('',#1349);
#934=PLANE('',#1350);
#935=PLANE('',#1351);
#936=PLANE('',#1352);
#937=PLANE('',#1353);
#938=PLANE('',#1366);
#939=PLANE('',#1367);
#940=PLANE('',#1368);
#941=PLANE('',#1372);
#942=PLANE('',#1376);
#943=PLANE('',#1380);
#944=PLANE('',#1387);
#945=PLANE('',#1391);
#946=PLANE('',#1395);
#947=PLANE('',#1402);
#948=PLANE('',#1406);
#949=PLANE('',#1410);
#950=PLANE('',#1417);
#951=PLANE('',#1421);
#952=PLANE('',#1425);
#953=PLANE('',#1429);
#954=PLANE('',#1430);
#955=PLANE('',#1431);
#956=PLANE('',#1432);
#957=PLANE('',#1433);
#958=PLANE('',#1434);
#959=PLANE('',#1435);
#960=PLANE('',#1436);
#961=PLANE('',#1437);
#962=OVER_RIDING_STYLED_ITEM('',(#1062),#1009,#1060);
#963=OVER_RIDING_STYLED_ITEM('',(#1063),#1010,#1060);
#964=OVER_RIDING_STYLED_ITEM('',(#1064),#1011,#1060);
#965=OVER_RIDING_STYLED_ITEM('',(#1065),#1012,#1060);
#966=OVER_RIDING_STYLED_ITEM('',(#1066),#1013,#1060);
#967=OVER_RIDING_STYLED_ITEM('',(#1067),#1014,#1060);
#968=OVER_RIDING_STYLED_ITEM('',(#1068),#1015,#1060);
#969=OVER_RIDING_STYLED_ITEM('',(#1069),#1016,#1060);
#970=OVER_RIDING_STYLED_ITEM('',(#1070),#1017,#1060);
#971=OVER_RIDING_STYLED_ITEM('',(#1071),#1018,#1060);
#972=OVER_RIDING_STYLED_ITEM('',(#1072),#1019,#1060);
#973=OVER_RIDING_STYLED_ITEM('',(#1073),#1020,#1060);
#974=OVER_RIDING_STYLED_ITEM('',(#1074),#1021,#1060);
#975=OVER_RIDING_STYLED_ITEM('',(#1075),#1022,#1060);
#976=OVER_RIDING_STYLED_ITEM('',(#1076),#1023,#1060);
#977=OVER_RIDING_STYLED_ITEM('',(#1077),#1024,#1060);
#978=OVER_RIDING_STYLED_ITEM('',(#1078),#1025,#1060);
#979=OVER_RIDING_STYLED_ITEM('',(#1079),#1026,#1060);
#980=OVER_RIDING_STYLED_ITEM('',(#1080),#1027,#1060);
#981=OVER_RIDING_STYLED_ITEM('',(#1081),#1029,#1060);
#982=OVER_RIDING_STYLED_ITEM('',(#1082),#1030,#1060);
#983=OVER_RIDING_STYLED_ITEM('',(#1083),#1031,#1060);
#984=OVER_RIDING_STYLED_ITEM('',(#1084),#1032,#1060);
#985=OVER_RIDING_STYLED_ITEM('',(#1085),#1033,#1060);
#986=OVER_RIDING_STYLED_ITEM('',(#1086),#1034,#1060);
#987=OVER_RIDING_STYLED_ITEM('',(#1087),#1036,#1060);
#988=OVER_RIDING_STYLED_ITEM('',(#1088),#1037,#1060);
#989=OVER_RIDING_STYLED_ITEM('',(#1089),#1038,#1060);
#990=OVER_RIDING_STYLED_ITEM('',(#1090),#1039,#1060);
#991=OVER_RIDING_STYLED_ITEM('',(#1091),#1040,#1060);
#992=OVER_RIDING_STYLED_ITEM('',(#1092),#1041,#1060);
#993=OVER_RIDING_STYLED_ITEM('',(#1093),#1043,#1060);
#994=OVER_RIDING_STYLED_ITEM('',(#1094),#1044,#1060);
#995=OVER_RIDING_STYLED_ITEM('',(#1095),#1045,#1060);
#996=OVER_RIDING_STYLED_ITEM('',(#1096),#1046,#1060);
#997=OVER_RIDING_STYLED_ITEM('',(#1097),#1047,#1060);
#998=OVER_RIDING_STYLED_ITEM('',(#1098),#1048,#1060);
#999=OVER_RIDING_STYLED_ITEM('',(#1099),#1050,#1060);
#1000=OVER_RIDING_STYLED_ITEM('',(#1100),#1051,#1060);
#1001=OVER_RIDING_STYLED_ITEM('',(#1101),#1052,#1060);
#1002=OVER_RIDING_STYLED_ITEM('',(#1102),#1053,#1060);
#1003=OVER_RIDING_STYLED_ITEM('',(#1103),#1054,#1060);
#1004=OVER_RIDING_STYLED_ITEM('',(#1104),#1055,#1060);
#1005=OVER_RIDING_STYLED_ITEM('',(#1105),#1056,#1060);
#1006=OVER_RIDING_STYLED_ITEM('',(#1106),#1057,#1060);
#1007=OVER_RIDING_STYLED_ITEM('',(#1107),#1058,#1060);
#1008=DRAUGHTING_PRE_DEFINED_COLOUR('black');
#1009=ADVANCED_FACE('Face appearance 1',(#860,#861),#932,.T.);
#1010=ADVANCED_FACE('Face appearance 1',(#862),#933,.T.);
#1011=ADVANCED_FACE('Face appearance 1',(#863),#934,.F.);
#1012=ADVANCED_FACE('Face appearance 1',(#864),#935,.F.);
#1013=ADVANCED_FACE('Face appearance 1',(#865),#936,.F.);
#1014=ADVANCED_FACE('Face appearance 1',(#866),#937,.F.);
#1015=ADVANCED_FACE('Face appearance 1',(#867,#868),#52,.F.);
#1016=ADVANCED_FACE('Face appearance 1',(#869,#870),#53,.F.);
#1017=ADVANCED_FACE('Face appearance 1',(#871,#872),#54,.F.);
#1018=ADVANCED_FACE('Face appearance 1',(#873,#874),#55,.F.);
#1019=ADVANCED_FACE('Face appearance 1',(#875),#938,.T.);
#1020=ADVANCED_FACE('Face appearance 1',(#876),#939,.T.);
#1021=ADVANCED_FACE('Face appearance 1',(#877,#878,#879,#880,#881,#882),
#940,.F.);
#1022=ADVANCED_FACE('Face appearance 1',(#883),#56,.F.);
#1023=ADVANCED_FACE('Face appearance 1',(#884),#941,.F.);
#1024=ADVANCED_FACE('Face appearance 1',(#885),#57,.F.);
#1025=ADVANCED_FACE('Face appearance 1',(#886),#942,.F.);
#1026=ADVANCED_FACE('Face appearance 1',(#887),#58,.F.);
#1027=ADVANCED_FACE('Face appearance 1',(#888),#943,.T.);
#1028=ADVANCED_FACE('',(#889),#59,.F.);
#1029=ADVANCED_FACE('Face appearance 1',(#890),#60,.F.);
#1030=ADVANCED_FACE('Face appearance 1',(#891),#944,.F.);
#1031=ADVANCED_FACE('Face appearance 1',(#892),#61,.F.);
#1032=ADVANCED_FACE('Face appearance 1',(#893),#945,.F.);
#1033=ADVANCED_FACE('Face appearance 1',(#894),#62,.F.);
#1034=ADVANCED_FACE('Face appearance 1',(#895),#946,.T.);
#1035=ADVANCED_FACE('',(#896),#63,.F.);
#1036=ADVANCED_FACE('Face appearance 1',(#897),#64,.F.);
#1037=ADVANCED_FACE('Face appearance 1',(#898),#947,.F.);
#1038=ADVANCED_FACE('Face appearance 1',(#899),#65,.F.);
#1039=ADVANCED_FACE('Face appearance 1',(#900),#948,.F.);
#1040=ADVANCED_FACE('Face appearance 1',(#901),#66,.F.);
#1041=ADVANCED_FACE('Face appearance 1',(#902),#949,.T.);
#1042=ADVANCED_FACE('',(#903),#67,.F.);
#1043=ADVANCED_FACE('Face appearance 1',(#904),#68,.F.);
#1044=ADVANCED_FACE('Face appearance 1',(#905),#950,.F.);
#1045=ADVANCED_FACE('Face appearance 1',(#906),#69,.F.);
#1046=ADVANCED_FACE('Face appearance 1',(#907),#951,.F.);
#1047=ADVANCED_FACE('Face appearance 1',(#908),#70,.F.);
#1048=ADVANCED_FACE('Face appearance 1',(#909),#952,.T.);
#1049=ADVANCED_FACE('',(#910),#71,.F.);
#1050=ADVANCED_FACE('Face appearance 1',(#911),#953,.T.);
#1051=ADVANCED_FACE('Face appearance 1',(#912),#954,.T.);
#1052=ADVANCED_FACE('Face appearance 1',(#913),#955,.T.);
#1053=ADVANCED_FACE('Face appearance 1',(#914),#956,.T.);
#1054=ADVANCED_FACE('Face appearance 1',(#915,#916,#917,#918,#919,#920,
#921,#922,#923),#957,.T.);
#1055=ADVANCED_FACE('Face appearance 1',(#924,#925,#926,#927,#928),#958,
 .F.);
#1056=ADVANCED_FACE('Face appearance 1',(#929),#959,.F.);
#1057=ADVANCED_FACE('Face appearance 1',(#930),#960,.F.);
#1058=ADVANCED_FACE('Face appearance 1',(#931),#961,.T.);
#1059=CLOSED_SHELL('',(#1009,#1010,#1011,#1012,#1013,#1014,#1015,#1016,
#1017,#1018,#1019,#1020,#1021,#1022,#1023,#1024,#1025,#1026,#1027,#1028,
#1029,#1030,#1031,#1032,#1033,#1034,#1035,#1036,#1037,#1038,#1039,#1040,
#1041,#1042,#1043,#1044,#1045,#1046,#1047,#1048,#1049,#1050,#1051,#1052,
#1053,#1054,#1055,#1056,#1057,#1058));
#1060=STYLED_ITEM('',(#1061),#1344);
#1061=PRESENTATION_STYLE_ASSIGNMENT((#1108));
#1062=PRESENTATION_STYLE_ASSIGNMENT((#1109));
#1063=PRESENTATION_STYLE_ASSIGNMENT((#1110));
#1064=PRESENTATION_STYLE_ASSIGNMENT((#1111));
#1065=PRESENTATION_STYLE_ASSIGNMENT((#1112));
#1066=PRESENTATION_STYLE_ASSIGNMENT((#1113));
#1067=PRESENTATION_STYLE_ASSIGNMENT((#1114));
#1068=PRESENTATION_STYLE_ASSIGNMENT((#1115));
#1069=PRESENTATION_STYLE_ASSIGNMENT((#1116));
#1070=PRESENTATION_STYLE_ASSIGNMENT((#1117));
#1071=PRESENTATION_STYLE_ASSIGNMENT((#1118));
#1072=PRESENTATION_STYLE_ASSIGNMENT((#1119));
#1073=PRESENTATION_STYLE_ASSIGNMENT((#1120));
#1074=PRESENTATION_STYLE_ASSIGNMENT((#1121));
#1075=PRESENTATION_STYLE_ASSIGNMENT((#1122));
#1076=PRESENTATION_STYLE_ASSIGNMENT((#1123));
#1077=PRESENTATION_STYLE_ASSIGNMENT((#1124));
#1078=PRESENTATION_STYLE_ASSIGNMENT((#1125));
#1079=PRESENTATION_STYLE_ASSIGNMENT((#1126));
#1080=PRESENTATION_STYLE_ASSIGNMENT((#1127));
#1081=PRESENTATION_STYLE_ASSIGNMENT((#1128));
#1082=PRESENTATION_STYLE_ASSIGNMENT((#1129));
#1083=PRESENTATION_STYLE_ASSIGNMENT((#1130));
#1084=PRESENTATION_STYLE_ASSIGNMENT((#1131));
#1085=PRESENTATION_STYLE_ASSIGNMENT((#1132));
#1086=PRESENTATION_STYLE_ASSIGNMENT((#1133));
#1087=PRESENTATION_STYLE_ASSIGNMENT((#1134));
#1088=PRESENTATION_STYLE_ASSIGNMENT((#1135));
#1089=PRESENTATION_STYLE_ASSIGNMENT((#1136));
#1090=PRESENTATION_STYLE_ASSIGNMENT((#1137));
#1091=PRESENTATION_STYLE_ASSIGNMENT((#1138));
#1092=PRESENTATION_STYLE_ASSIGNMENT((#1139));
#1093=PRESENTATION_STYLE_ASSIGNMENT((#1140));
#1094=PRESENTATION_STYLE_ASSIGNMENT((#1141));
#1095=PRESENTATION_STYLE_ASSIGNMENT((#1142));
#1096=PRESENTATION_STYLE_ASSIGNMENT((#1143));
#1097=PRESENTATION_STYLE_ASSIGNMENT((#1144));
#1098=PRESENTATION_STYLE_ASSIGNMENT((#1145));
#1099=PRESENTATION_STYLE_ASSIGNMENT((#1146));
#1100=PRESENTATION_STYLE_ASSIGNMENT((#1147));
#1101=PRESENTATION_STYLE_ASSIGNMENT((#1148));
#1102=PRESENTATION_STYLE_ASSIGNMENT((#1149));
#1103=PRESENTATION_STYLE_ASSIGNMENT((#1150));
#1104=PRESENTATION_STYLE_ASSIGNMENT((#1151));
#1105=PRESENTATION_STYLE_ASSIGNMENT((#1152));
#1106=PRESENTATION_STYLE_ASSIGNMENT((#1153));
#1107=PRESENTATION_STYLE_ASSIGNMENT((#1154));
#1108=SURFACE_STYLE_USAGE(.BOTH.,#1155);
#1109=SURFACE_STYLE_USAGE(.BOTH.,#1156);
#1110=SURFACE_STYLE_USAGE(.BOTH.,#1157);
#1111=SURFACE_STYLE_USAGE(.BOTH.,#1158);
#1112=SURFACE_STYLE_USAGE(.BOTH.,#1159);
#1113=SURFACE_STYLE_USAGE(.BOTH.,#1160);
#1114=SURFACE_STYLE_USAGE(.BOTH.,#1161);
#1115=SURFACE_STYLE_USAGE(.BOTH.,#1162);
#1116=SURFACE_STYLE_USAGE(.BOTH.,#1163);
#1117=SURFACE_STYLE_USAGE(.BOTH.,#1164);
#1118=SURFACE_STYLE_USAGE(.BOTH.,#1165);
#1119=SURFACE_STYLE_USAGE(.BOTH.,#1166);
#1120=SURFACE_STYLE_USAGE(.BOTH.,#1167);
#1121=SURFACE_STYLE_USAGE(.BOTH.,#1168);
#1122=SURFACE_STYLE_USAGE(.BOTH.,#1169);
#1123=SURFACE_STYLE_USAGE(.BOTH.,#1170);
#1124=SURFACE_STYLE_USAGE(.BOTH.,#1171);
#1125=SURFACE_STYLE_USAGE(.BOTH.,#1172);
#1126=SURFACE_STYLE_USAGE(.BOTH.,#1173);
#1127=SURFACE_STYLE_USAGE(.BOTH.,#1174);
#1128=SURFACE_STYLE_USAGE(.BOTH.,#1175);
#1129=SURFACE_STYLE_USAGE(.BOTH.,#1176);
#1130=SURFACE_STYLE_USAGE(.BOTH.,#1177);
#1131=SURFACE_STYLE_USAGE(.BOTH.,#1178);
#1132=SURFACE_STYLE_USAGE(.BOTH.,#1179);
#1133=SURFACE_STYLE_USAGE(.BOTH.,#1180);
#1134=SURFACE_STYLE_USAGE(.BOTH.,#1181);
#1135=SURFACE_STYLE_USAGE(.BOTH.,#1182);
#1136=SURFACE_STYLE_USAGE(.BOTH.,#1183);
#1137=SURFACE_STYLE_USAGE(.BOTH.,#1184);
#1138=SURFACE_STYLE_USAGE(.BOTH.,#1185);
#1139=SURFACE_STYLE_USAGE(.BOTH.,#1186);
#1140=SURFACE_STYLE_USAGE(.BOTH.,#1187);
#1141=SURFACE_STYLE_USAGE(.BOTH.,#1188);
#1142=SURFACE_STYLE_USAGE(.BOTH.,#1189);
#1143=SURFACE_STYLE_USAGE(.BOTH.,#1190);
#1144=SURFACE_STYLE_USAGE(.BOTH.,#1191);
#1145=SURFACE_STYLE_USAGE(.BOTH.,#1192);
#1146=SURFACE_STYLE_USAGE(.BOTH.,#1193);
#1147=SURFACE_STYLE_USAGE(.BOTH.,#1194);
#1148=SURFACE_STYLE_USAGE(.BOTH.,#1195);
#1149=SURFACE_STYLE_USAGE(.BOTH.,#1196);
#1150=SURFACE_STYLE_USAGE(.BOTH.,#1197);
#1151=SURFACE_STYLE_USAGE(.BOTH.,#1198);
#1152=SURFACE_STYLE_USAGE(.BOTH.,#1199);
#1153=SURFACE_STYLE_USAGE(.BOTH.,#1200);
#1154=SURFACE_STYLE_USAGE(.BOTH.,#1201);
#1155=SURFACE_SIDE_STYLE('',(#1202));
#1156=SURFACE_SIDE_STYLE('',(#1203));
#1157=SURFACE_SIDE_STYLE('',(#1204));
#1158=SURFACE_SIDE_STYLE('',(#1205));
#1159=SURFACE_SIDE_STYLE('',(#1206));
#1160=SURFACE_SIDE_STYLE('',(#1207));
#1161=SURFACE_SIDE_STYLE('',(#1208));
#1162=SURFACE_SIDE_STYLE('',(#1209));
#1163=SURFACE_SIDE_STYLE('',(#1210));
#1164=SURFACE_SIDE_STYLE('',(#1211));
#1165=SURFACE_SIDE_STYLE('',(#1212));
#1166=SURFACE_SIDE_STYLE('',(#1213));
#1167=SURFACE_SIDE_STYLE('',(#1214));
#1168=SURFACE_SIDE_STYLE('',(#1215));
#1169=SURFACE_SIDE_STYLE('',(#1216));
#1170=SURFACE_SIDE_STYLE('',(#1217));
#1171=SURFACE_SIDE_STYLE('',(#1218));
#1172=SURFACE_SIDE_STYLE('',(#1219));
#1173=SURFACE_SIDE_STYLE('',(#1220));
#1174=SURFACE_SIDE_STYLE('',(#1221));
#1175=SURFACE_SIDE_STYLE('',(#1222));
#1176=SURFACE_SIDE_STYLE('',(#1223));
#1177=SURFACE_SIDE_STYLE('',(#1224));
#1178=SURFACE_SIDE_STYLE('',(#1225));
#1179=SURFACE_SIDE_STYLE('',(#1226));
#1180=SURFACE_SIDE_STYLE('',(#1227));
#1181=SURFACE_SIDE_STYLE('',(#1228));
#1182=SURFACE_SIDE_STYLE('',(#1229));
#1183=SURFACE_SIDE_STYLE('',(#1230));
#1184=SURFACE_SIDE_STYLE('',(#1231));
#1185=SURFACE_SIDE_STYLE('',(#1232));
#1186=SURFACE_SIDE_STYLE('',(#1233));
#1187=SURFACE_SIDE_STYLE('',(#1234));
#1188=SURFACE_SIDE_STYLE('',(#1235));
#1189=SURFACE_SIDE_STYLE('',(#1236));
#1190=SURFACE_SIDE_STYLE('',(#1237));
#1191=SURFACE_SIDE_STYLE('',(#1238));
#1192=SURFACE_SIDE_STYLE('',(#1239));
#1193=SURFACE_SIDE_STYLE('',(#1240));
#1194=SURFACE_SIDE_STYLE('',(#1241));
#1195=SURFACE_SIDE_STYLE('',(#1242));
#1196=SURFACE_SIDE_STYLE('',(#1243));
#1197=SURFACE_SIDE_STYLE('',(#1244));
#1198=SURFACE_SIDE_STYLE('',(#1245));
#1199=SURFACE_SIDE_STYLE('',(#1246));
#1200=SURFACE_SIDE_STYLE('',(#1247));
#1201=SURFACE_SIDE_STYLE('',(#1248));
#1202=SURFACE_STYLE_FILL_AREA(#1249);
#1203=SURFACE_STYLE_FILL_AREA(#1250);
#1204=SURFACE_STYLE_FILL_AREA(#1251);
#1205=SURFACE_STYLE_FILL_AREA(#1252);
#1206=SURFACE_STYLE_FILL_AREA(#1253);
#1207=SURFACE_STYLE_FILL_AREA(#1254);
#1208=SURFACE_STYLE_FILL_AREA(#1255);
#1209=SURFACE_STYLE_FILL_AREA(#1256);
#1210=SURFACE_STYLE_FILL_AREA(#1257);
#1211=SURFACE_STYLE_FILL_AREA(#1258);
#1212=SURFACE_STYLE_FILL_AREA(#1259);
#1213=SURFACE_STYLE_FILL_AREA(#1260);
#1214=SURFACE_STYLE_FILL_AREA(#1261);
#1215=SURFACE_STYLE_FILL_AREA(#1262);
#1216=SURFACE_STYLE_FILL_AREA(#1263);
#1217=SURFACE_STYLE_FILL_AREA(#1264);
#1218=SURFACE_STYLE_FILL_AREA(#1265);
#1219=SURFACE_STYLE_FILL_AREA(#1266);
#1220=SURFACE_STYLE_FILL_AREA(#1267);
#1221=SURFACE_STYLE_FILL_AREA(#1268);
#1222=SURFACE_STYLE_FILL_AREA(#1269);
#1223=SURFACE_STYLE_FILL_AREA(#1270);
#1224=SURFACE_STYLE_FILL_AREA(#1271);
#1225=SURFACE_STYLE_FILL_AREA(#1272);
#1226=SURFACE_STYLE_FILL_AREA(#1273);
#1227=SURFACE_STYLE_FILL_AREA(#1274);
#1228=SURFACE_STYLE_FILL_AREA(#1275);
#1229=SURFACE_STYLE_FILL_AREA(#1276);
#1230=SURFACE_STYLE_FILL_AREA(#1277);
#1231=SURFACE_STYLE_FILL_AREA(#1278);
#1232=SURFACE_STYLE_FILL_AREA(#1279);
#1233=SURFACE_STYLE_FILL_AREA(#1280);
#1234=SURFACE_STYLE_FILL_AREA(#1281);
#1235=SURFACE_STYLE_FILL_AREA(#1282);
#1236=SURFACE_STYLE_FILL_AREA(#1283);
#1237=SURFACE_STYLE_FILL_AREA(#1284);
#1238=SURFACE_STYLE_FILL_AREA(#1285);
#1239=SURFACE_STYLE_FILL_AREA(#1286);
#1240=SURFACE_STYLE_FILL_AREA(#1287);
#1241=SURFACE_STYLE_FILL_AREA(#1288);
#1242=SURFACE_STYLE_FILL_AREA(#1289);
#1243=SURFACE_STYLE_FILL_AREA(#1290);
#1244=SURFACE_STYLE_FILL_AREA(#1291);
#1245=SURFACE_STYLE_FILL_AREA(#1292);
#1246=SURFACE_STYLE_FILL_AREA(#1293);
#1247=SURFACE_STYLE_FILL_AREA(#1294);
#1248=SURFACE_STYLE_FILL_AREA(#1295);
#1249=FILL_AREA_STYLE('',(#1296));
#1250=FILL_AREA_STYLE('',(#1297));
#1251=FILL_AREA_STYLE('',(#1298));
#1252=FILL_AREA_STYLE('',(#1299));
#1253=FILL_AREA_STYLE('',(#1300));
#1254=FILL_AREA_STYLE('',(#1301));
#1255=FILL_AREA_STYLE('',(#1302));
#1256=FILL_AREA_STYLE('',(#1303));
#1257=FILL_AREA_STYLE('',(#1304));
#1258=FILL_AREA_STYLE('',(#1305));
#1259=FILL_AREA_STYLE('',(#1306));
#1260=FILL_AREA_STYLE('',(#1307));
#1261=FILL_AREA_STYLE('',(#1308));
#1262=FILL_AREA_STYLE('',(#1309));
#1263=FILL_AREA_STYLE('',(#1310));
#1264=FILL_AREA_STYLE('',(#1311));
#1265=FILL_AREA_STYLE('',(#1312));
#1266=FILL_AREA_STYLE('',(#1313));
#1267=FILL_AREA_STYLE('',(#1314));
#1268=FILL_AREA_STYLE('',(#1315));
#1269=FILL_AREA_STYLE('',(#1316));
#1270=FILL_AREA_STYLE('',(#1317));
#1271=FILL_AREA_STYLE('',(#1318));
#1272=FILL_AREA_STYLE('',(#1319));
#1273=FILL_AREA_STYLE('',(#1320));
#1274=FILL_AREA_STYLE('',(#1321));
#1275=FILL_AREA_STYLE('',(#1322));
#1276=FILL_AREA_STYLE('',(#1323));
#1277=FILL_AREA_STYLE('',(#1324));
#1278=FILL_AREA_STYLE('',(#1325));
#1279=FILL_AREA_STYLE('',(#1326));
#1280=FILL_AREA_STYLE('',(#1327));
#1281=FILL_AREA_STYLE('',(#1328));
#1282=FILL_AREA_STYLE('',(#1329));
#1283=FILL_AREA_STYLE('',(#1330));
#1284=FILL_AREA_STYLE('',(#1331));
#1285=FILL_AREA_STYLE('',(#1332));
#1286=FILL_AREA_STYLE('',(#1333));
#1287=FILL_AREA_STYLE('',(#1334));
#1288=FILL_AREA_STYLE('',(#1335));
#1289=FILL_AREA_STYLE('',(#1336));
#1290=FILL_AREA_STYLE('',(#1337));
#1291=FILL_AREA_STYLE('',(#1338));
#1292=FILL_AREA_STYLE('',(#1339));
#1293=FILL_AREA_STYLE('',(#1340));
#1294=FILL_AREA_STYLE('',(#1341));
#1295=FILL_AREA_STYLE('',(#1342));
#1296=FILL_AREA_STYLE_COLOUR('',#1343);
#1297=FILL_AREA_STYLE_COLOUR('',#1008);
#1298=FILL_AREA_STYLE_COLOUR('',#1008);
#1299=FILL_AREA_STYLE_COLOUR('',#1008);
#1300=FILL_AREA_STYLE_COLOUR('',#1008);
#1301=FILL_AREA_STYLE_COLOUR('',#1008);
#1302=FILL_AREA_STYLE_COLOUR('',#1008);
#1303=FILL_AREA_STYLE_COLOUR('',#1008);
#1304=FILL_AREA_STYLE_COLOUR('',#1008);
#1305=FILL_AREA_STYLE_COLOUR('',#1008);
#1306=FILL_AREA_STYLE_COLOUR('',#1008);
#1307=FILL_AREA_STYLE_COLOUR('',#1008);
#1308=FILL_AREA_STYLE_COLOUR('',#1008);
#1309=FILL_AREA_STYLE_COLOUR('',#1008);
#1310=FILL_AREA_STYLE_COLOUR('',#1008);
#1311=FILL_AREA_STYLE_COLOUR('',#1008);
#1312=FILL_AREA_STYLE_COLOUR('',#1008);
#1313=FILL_AREA_STYLE_COLOUR('',#1008);
#1314=FILL_AREA_STYLE_COLOUR('',#1008);
#1315=FILL_AREA_STYLE_COLOUR('',#1008);
#1316=FILL_AREA_STYLE_COLOUR('',#1008);
#1317=FILL_AREA_STYLE_COLOUR('',#1008);
#1318=FILL_AREA_STYLE_COLOUR('',#1008);
#1319=FILL_AREA_STYLE_COLOUR('',#1008);
#1320=FILL_AREA_STYLE_COLOUR('',#1008);
#1321=FILL_AREA_STYLE_COLOUR('',#1008);
#1322=FILL_AREA_STYLE_COLOUR('',#1008);
#1323=FILL_AREA_STYLE_COLOUR('',#1008);
#1324=FILL_AREA_STYLE_COLOUR('',#1008);
#1325=FILL_AREA_STYLE_COLOUR('',#1008);
#1326=FILL_AREA_STYLE_COLOUR('',#1008);
#1327=FILL_AREA_STYLE_COLOUR('',#1008);
#1328=FILL_AREA_STYLE_COLOUR('',#1008);
#1329=FILL_AREA_STYLE_COLOUR('',#1008);
#1330=FILL_AREA_STYLE_COLOUR('',#1008);
#1331=FILL_AREA_STYLE_COLOUR('',#1008);
#1332=FILL_AREA_STYLE_COLOUR('',#1008);
#1333=FILL_AREA_STYLE_COLOUR('',#1008);
#1334=FILL_AREA_STYLE_COLOUR('',#1008);
#1335=FILL_AREA_STYLE_COLOUR('',#1008);
#1336=FILL_AREA_STYLE_COLOUR('',#1008);
#1337=FILL_AREA_STYLE_COLOUR('',#1008);
#1338=FILL_AREA_STYLE_COLOUR('',#1008);
#1339=FILL_AREA_STYLE_COLOUR('',#1008);
#1340=FILL_AREA_STYLE_COLOUR('',#1008);
#1341=FILL_AREA_STYLE_COLOUR('',#1008);
#1342=FILL_AREA_STYLE_COLOUR('',#1008);
#1343=COLOUR_RGB('',0.647058823529412,0.647058823529412,0.647058823529412);
#1344=MANIFOLD_SOLID_BREP('Part 2',#1059);
#1345=SHAPE_DEFINITION_REPRESENTATION(#2013,#1346);
#1346=SHAPE_REPRESENTATION('Part 2',(#1347),#2008);
#1347=AXIS2_PLACEMENT_3D('',#1720,#1438,#1439);
#1348=AXIS2_PLACEMENT_3D('',#1721,#1440,#1441);
#1349=AXIS2_PLACEMENT_3D('',#1738,#1450,#1451);
#1350=AXIS2_PLACEMENT_3D('',#1747,#1456,#1457);
#1351=AXIS2_PLACEMENT_3D('',#1761,#1465,#1466);
#1352=AXIS2_PLACEMENT_3D('',#1767,#1470,#1471);
#1353=AXIS2_PLACEMENT_3D('',#1773,#1475,#1476);
#1354=AXIS2_PLACEMENT_3D('',#1779,#1480,#1481);
#1355=AXIS2_PLACEMENT_3D('',#1780,#1482,#1483);
#1356=AXIS2_PLACEMENT_3D('',#1782,#1484,#1485);
#1357=AXIS2_PLACEMENT_3D('',#1784,#1486,#1487);
#1358=AXIS2_PLACEMENT_3D('',#1785,#1488,#1489);
#1359=AXIS2_PLACEMENT_3D('',#1787,#1490,#1491);
#1360=AXIS2_PLACEMENT_3D('',#1789,#1492,#1493);
#1361=AXIS2_PLACEMENT_3D('',#1790,#1494,#1495);
#1362=AXIS2_PLACEMENT_3D('',#1792,#1496,#1497);
#1363=AXIS2_PLACEMENT_3D('',#1794,#1498,#1499);
#1364=AXIS2_PLACEMENT_3D('',#1795,#1500,#1501);
#1365=AXIS2_PLACEMENT_3D('',#1797,#1502,#1503);
#1366=AXIS2_PLACEMENT_3D('',#1799,#1504,#1505);
#1367=AXIS2_PLACEMENT_3D('',#1802,#1508,#1509);
#1368=AXIS2_PLACEMENT_3D('',#1805,#1512,#1513);
#1369=AXIS2_PLACEMENT_3D('',#1806,#1514,#1515);
#1370=AXIS2_PLACEMENT_3D('',#1807,#1516,#1517);
#1371=AXIS2_PLACEMENT_3D('',#1812,#1519,#1520);
#1372=AXIS2_PLACEMENT_3D('',#1815,#1522,#1523);
#1373=AXIS2_PLACEMENT_3D('',#1821,#1527,#1528);
#1374=AXIS2_PLACEMENT_3D('',#1822,#1529,#1530);
#1375=AXIS2_PLACEMENT_3D('',#1826,#1532,#1533);
#1376=AXIS2_PLACEMENT_3D('',#1827,#1534,#1535);
#1377=AXIS2_PLACEMENT_3D('',#1833,#1539,#1540);
#1378=AXIS2_PLACEMENT_3D('',#1834,#1541,#1542);
#1379=AXIS2_PLACEMENT_3D('',#1838,#1544,#1545);
#1380=AXIS2_PLACEMENT_3D('',#1839,#1546,#1547);
#1381=AXIS2_PLACEMENT_3D('',#1845,#1551,#1552);
#1382=AXIS2_PLACEMENT_3D('',#1846,#1553,#1554);
#1383=AXIS2_PLACEMENT_3D('',#1850,#1556,#1557);
#1384=AXIS2_PLACEMENT_3D('',#1851,#1558,#1559);
#1385=AXIS2_PLACEMENT_3D('',#1852,#1560,#1561);
#1386=AXIS2_PLACEMENT_3D('',#1857,#1563,#1564);
#1387=AXIS2_PLACEMENT_3D('',#1860,#1566,#1567);
#1388=AXIS2_PLACEMENT_3D('',#1866,#1571,#1572);
#1389=AXIS2_PLACEMENT_3D('',#1867,#1573,#1574);
#1390=AXIS2_PLACEMENT_3D('',#1871,#1576,#1577);
#1391=AXIS2_PLACEMENT_3D('',#1872,#1578,#1579);
#1392=AXIS2_PLACEMENT_3D('',#1878,#1583,#1584);
#1393=AXIS2_PLACEMENT_3D('',#1879,#1585,#1586);
#1394=AXIS2_PLACEMENT_3D('',#1883,#1588,#1589);
#1395=AXIS2_PLACEMENT_3D('',#1884,#1590,#1591);
#1396=AXIS2_PLACEMENT_3D('',#1890,#1595,#1596);
#1397=AXIS2_PLACEMENT_3D('',#1891,#1597,#1598);
#1398=AXIS2_PLACEMENT_3D('',#1895,#1600,#1601);
#1399=AXIS2_PLACEMENT_3D('',#1896,#1602,#1603);
#1400=AXIS2_PLACEMENT_3D('',#1897,#1604,#1605);
#1401=AXIS2_PLACEMENT_3D('',#1902,#1607,#1608);
#1402=AXIS2_PLACEMENT_3D('',#1905,#1610,#1611);
#1403=AXIS2_PLACEMENT_3D('',#1911,#1615,#1616);
#1404=AXIS2_PLACEMENT_3D('',#1912,#1617,#1618);
#1405=AXIS2_PLACEMENT_3D('',#1916,#1620,#1621);
#1406=AXIS2_PLACEMENT_3D('',#1917,#1622,#1623);
#1407=AXIS2_PLACEMENT_3D('',#1923,#1627,#1628);
#1408=AXIS2_PLACEMENT_3D('',#1924,#1629,#1630);
#1409=AXIS2_PLACEMENT_3D('',#1928,#1632,#1633);
#1410=AXIS2_PLACEMENT_3D('',#1929,#1634,#1635);
#1411=AXIS2_PLACEMENT_3D('',#1935,#1639,#1640);
#1412=AXIS2_PLACEMENT_3D('',#1936,#1641,#1642);
#1413=AXIS2_PLACEMENT_3D('',#1940,#1644,#1645);
#1414=AXIS2_PLACEMENT_3D('',#1941,#1646,#1647);
#1415=AXIS2_PLACEMENT_3D('',#1942,#1648,#1649);
#1416=AXIS2_PLACEMENT_3D('',#1947,#1651,#1652);
#1417=AXIS2_PLACEMENT_3D('',#1950,#1654,#1655);
#1418=AXIS2_PLACEMENT_3D('',#1956,#1659,#1660);
#1419=AXIS2_PLACEMENT_3D('',#1957,#1661,#1662);
#1420=AXIS2_PLACEMENT_3D('',#1961,#1664,#1665);
#1421=AXIS2_PLACEMENT_3D('',#1962,#1666,#1667);
#1422=AXIS2_PLACEMENT_3D('',#1968,#1671,#1672);
#1423=AXIS2_PLACEMENT_3D('',#1969,#1673,#1674);
#1424=AXIS2_PLACEMENT_3D('',#1973,#1676,#1677);
#1425=AXIS2_PLACEMENT_3D('',#1974,#1678,#1679);
#1426=AXIS2_PLACEMENT_3D('',#1980,#1683,#1684);
#1427=AXIS2_PLACEMENT_3D('',#1981,#1685,#1686);
#1428=AXIS2_PLACEMENT_3D('',#1985,#1688,#1689);
#1429=AXIS2_PLACEMENT_3D('',#1986,#1690,#1691);
#1430=AXIS2_PLACEMENT_3D('',#1989,#1694,#1695);
#1431=AXIS2_PLACEMENT_3D('',#1992,#1698,#1699);
#1432=AXIS2_PLACEMENT_3D('',#1995,#1702,#1703);
#1433=AXIS2_PLACEMENT_3D('',#1998,#1706,#1707);
#1434=AXIS2_PLACEMENT_3D('',#1999,#1708,#1709);
#1435=AXIS2_PLACEMENT_3D('',#2002,#1712,#1713);
#1436=AXIS2_PLACEMENT_3D('',#2004,#1715,#1716);
#1437=AXIS2_PLACEMENT_3D('',#2006,#1718,#1719);
#1438=DIRECTION('',(0.,0.,1.));
#1439=DIRECTION('',(1.,0.,0.));
#1440=DIRECTION('',(-1.,0.,0.));
#1441=DIRECTION('',(0.,0.,1.));
#1442=DIRECTION('',(0.,1.,0.));
#1443=DIRECTION('',(0.,0.,-1.));
#1444=DIRECTION('',(0.,1.,0.));
#1445=DIRECTION('',(0.,0.,-1.));
#1446=DIRECTION('',(0.,0.,-1.));
#1447=DIRECTION('',(0.,-1.,1.7347234759768E-16));
#1448=DIRECTION('',(0.,0.,-1.));
#1449=DIRECTION('',(0.,-1.,1.7347234759768E-16));
#1450=DIRECTION('',(0.,1.,0.));
#1451=DIRECTION('',(0.,0.,1.));
#1452=DIRECTION('',(1.,0.,0.));
#1453=DIRECTION('',(0.,0.,-1.));
#1454=DIRECTION('',(1.,0.,0.));
#1455=DIRECTION('',(0.,0.,-1.));
#1456=DIRECTION('',(-1.,-1.55930200087803E-16,0.));
#1457=DIRECTION('',(1.55930200087803E-16,-1.,0.));
#1458=DIRECTION('',(-1.55930200087803E-16,1.,0.));
#1459=DIRECTION('',(0.,0.,-1.));
#1460=DIRECTION('',(1.55930200087803E-16,-1.,1.7347234759768E-16));
#1461=DIRECTION('',(0.,0.,-1.));
#1462=DIRECTION('',(-1.55930200087803E-16,1.,0.));
#1463=DIRECTION('',(-1.55930200087803E-16,1.,0.));
#1464=DIRECTION('',(0.,0.,-1.));
#1465=DIRECTION('',(0.,1.,0.));
#1466=DIRECTION('',(0.,0.,1.));
#1467=DIRECTION('',(1.,0.,0.));
#1468=DIRECTION('',(0.,0.,-1.));
#1469=DIRECTION('',(1.,0.,0.));
#1470=DIRECTION('',(0.,1.,0.));
#1471=DIRECTION('',(0.,0.,1.));
#1472=DIRECTION('',(1.,0.,0.));
#1473=DIRECTION('',(0.,0.,-1.));
#1474=DIRECTION('',(1.,0.,0.));
#1475=DIRECTION('',(-1.,-1.61369625672261E-16,0.));
#1476=DIRECTION('',(1.61369625672261E-16,-1.,0.));
#1477=DIRECTION('',(-1.61369625672261E-16,1.,0.));
#1478=DIRECTION('',(0.,0.,-1.));
#1479=DIRECTION('',(-1.61369625672261E-16,1.,0.));
#1480=DIRECTION('',(0.,0.,-1.));
#1481=DIRECTION('',(-1.,0.,0.));
#1482=DIRECTION('',(0.,0.,1.));
#1483=DIRECTION('',(1.,0.,0.));
#1484=DIRECTION('',(0.,0.,1.));
#1485=DIRECTION('',(1.,0.,0.));
#1486=DIRECTION('',(0.,0.,-1.));
#1487=DIRECTION('',(-1.,0.,0.));
#1488=DIRECTION('',(0.,0.,1.));
#1489=DIRECTION('',(1.,0.,0.));
#1490=DIRECTION('',(0.,0.,1.));
#1491=DIRECTION('',(1.,0.,0.));
#1492=DIRECTION('',(0.,0.,-1.));
#1493=DIRECTION('',(-1.,0.,0.));
#1494=DIRECTION('',(0.,0.,1.));
#1495=DIRECTION('',(1.,0.,0.));
#1496=DIRECTION('',(0.,0.,1.));
#1497=DIRECTION('',(1.,0.,0.));
#1498=DIRECTION('',(0.,0.,-1.));
#1499=DIRECTION('',(-1.,0.,0.));
#1500=DIRECTION('',(0.,0.,1.));
#1501=DIRECTION('',(1.,0.,0.));
#1502=DIRECTION('',(0.,0.,1.));
#1503=DIRECTION('',(1.,0.,0.));
#1504=DIRECTION('',(0.,1.,0.));
#1505=DIRECTION('',(0.,0.,1.));
#1506=DIRECTION('',(1.,0.,0.));
#1507=DIRECTION('',(1.,0.,0.));
#1508=DIRECTION('',(-1.,-1.94912750109753E-16,0.));
#1509=DIRECTION('',(1.94912750109753E-16,-1.,0.));
#1510=DIRECTION('',(-1.94912750109753E-16,1.,0.));
#1511=DIRECTION('',(-1.94912750109753E-16,1.,0.));
#1512=DIRECTION('',(0.,0.,1.));
#1513=DIRECTION('',(1.,0.,0.));
#1514=DIRECTION('',(0.,0.,-1.));
#1515=DIRECTION('',(-1.,0.,0.));
#1516=DIRECTION('',(0.,0.,1.));
#1517=DIRECTION('',(6.93889390390722E-15,1.,0.));
#1518=DIRECTION('',(0.,0.,-1.));
#1519=DIRECTION('',(0.,0.,1.));
#1520=DIRECTION('',(6.93889390390722E-15,1.,0.));
#1521=DIRECTION('',(0.,0.,-1.));
#1522=DIRECTION('',(0.,1.,0.));
#1523=DIRECTION('',(0.,0.,1.));
#1524=DIRECTION('',(1.,0.,0.));
#1525=DIRECTION('',(0.,0.,-1.));
#1526=DIRECTION('',(1.,0.,0.));
#1527=DIRECTION('',(0.,0.,-1.));
#1528=DIRECTION('',(-1.,0.,0.));
#1529=DIRECTION('',(0.,0.,1.));
#1530=DIRECTION('',(1.,0.,0.));
#1531=DIRECTION('',(0.,0.,-1.));
#1532=DIRECTION('',(0.,0.,1.));
#1533=DIRECTION('',(1.,0.,0.));
#1534=DIRECTION('',(1.,0.,0.));
#1535=DIRECTION('',(0.,0.,-1.));
#1536=DIRECTION('',(0.,-1.,0.));
#1537=DIRECTION('',(0.,0.,-1.));
#1538=DIRECTION('',(0.,-1.,0.));
#1539=DIRECTION('',(0.,0.,-1.));
#1540=DIRECTION('',(-1.,0.,0.));
#1541=DIRECTION('',(0.,0.,1.));
#1542=DIRECTION('',(1.17093834628434E-14,-1.,0.));
#1543=DIRECTION('',(0.,0.,-1.));
#1544=DIRECTION('',(0.,0.,1.));
#1545=DIRECTION('',(1.17093834628434E-14,-1.,0.));
#1546=DIRECTION('',(0.,1.,0.));
#1547=DIRECTION('',(0.,0.,1.));
#1548=DIRECTION('',(1.,0.,0.));
#1549=DIRECTION('',(0.,0.,-1.));
#1550=DIRECTION('',(1.,0.,0.));
#1551=DIRECTION('',(0.,0.,-1.));
#1552=DIRECTION('',(-1.,0.,0.));
#1553=DIRECTION('',(0.,0.,1.));
#1554=DIRECTION('',(-1.,0.,0.));
#1555=DIRECTION('',(0.,0.,-1.));
#1556=DIRECTION('',(0.,0.,1.));
#1557=DIRECTION('',(-1.,0.,0.));
#1558=DIRECTION('',(0.,0.,-1.));
#1559=DIRECTION('',(-1.,0.,0.));
#1560=DIRECTION('',(0.,0.,1.));
#1561=DIRECTION('',(6.93889390390722E-15,1.,0.));
#1562=DIRECTION('',(0.,0.,-1.));
#1563=DIRECTION('',(0.,0.,1.));
#1564=DIRECTION('',(6.93889390390722E-15,1.,0.));
#1565=DIRECTION('',(0.,0.,-1.));
#1566=DIRECTION('',(0.,1.,0.));
#1567=DIRECTION('',(0.,0.,1.));
#1568=DIRECTION('',(1.,0.,0.));
#1569=DIRECTION('',(0.,0.,-1.));
#1570=DIRECTION('',(1.,0.,0.));
#1571=DIRECTION('',(0.,0.,-1.));
#1572=DIRECTION('',(-1.,0.,0.));
#1573=DIRECTION('',(0.,0.,1.));
#1574=DIRECTION('',(1.,0.,0.));
#1575=DIRECTION('',(0.,0.,-1.));
#1576=DIRECTION('',(0.,0.,1.));
#1577=DIRECTION('',(1.,0.,0.));
#1578=DIRECTION('',(1.,0.,0.));
#1579=DIRECTION('',(0.,0.,-1.));
#1580=DIRECTION('',(0.,-1.,0.));
#1581=DIRECTION('',(0.,0.,-1.));
#1582=DIRECTION('',(0.,-1.,0.));
#1583=DIRECTION('',(0.,0.,-1.));
#1584=DIRECTION('',(-1.,0.,0.));
#1585=DIRECTION('',(0.,0.,1.));
#1586=DIRECTION('',(1.38777878078144E-14,-1.,0.));
#1587=DIRECTION('',(0.,0.,-1.));
#1588=DIRECTION('',(0.,0.,1.));
#1589=DIRECTION('',(1.38777878078144E-14,-1.,0.));
#1590=DIRECTION('',(0.,1.,0.));
#1591=DIRECTION('',(0.,0.,1.));
#1592=DIRECTION('',(1.,0.,0.));
#1593=DIRECTION('',(0.,0.,-1.));
#1594=DIRECTION('',(1.,0.,0.));
#1595=DIRECTION('',(0.,0.,-1.));
#1596=DIRECTION('',(-1.,0.,0.));
#1597=DIRECTION('',(0.,0.,1.));
#1598=DIRECTION('',(-1.,0.,0.));
#1599=DIRECTION('',(0.,0.,-1.));
#1600=DIRECTION('',(0.,0.,1.));
#1601=DIRECTION('',(-1.,0.,0.));
#1602=DIRECTION('',(0.,0.,-1.));
#1603=DIRECTION('',(-1.,0.,0.));
#1604=DIRECTION('',(0.,0.,1.));
#1605=DIRECTION('',(0.,1.,0.));
#1606=DIRECTION('',(0.,0.,-1.));
#1607=DIRECTION('',(0.,0.,1.));
#1608=DIRECTION('',(0.,1.,0.));
#1609=DIRECTION('',(0.,0.,-1.));
#1610=DIRECTION('',(0.,1.,0.));
#1611=DIRECTION('',(0.,0.,1.));
#1612=DIRECTION('',(1.,0.,0.));
#1613=DIRECTION('',(0.,0.,-1.));
#1614=DIRECTION('',(1.,0.,0.));
#1615=DIRECTION('',(0.,0.,-1.));
#1616=DIRECTION('',(-1.,0.,0.));
#1617=DIRECTION('',(0.,0.,1.));
#1618=DIRECTION('',(1.,0.,0.));
#1619=DIRECTION('',(0.,0.,-1.));
#1620=DIRECTION('',(0.,0.,1.));
#1621=DIRECTION('',(1.,0.,0.));
#1622=DIRECTION('',(1.,0.,0.));
#1623=DIRECTION('',(0.,0.,-1.));
#1624=DIRECTION('',(0.,-1.,0.));
#1625=DIRECTION('',(0.,0.,-1.));
#1626=DIRECTION('',(0.,-1.,0.));
#1627=DIRECTION('',(0.,0.,-1.));
#1628=DIRECTION('',(-1.,0.,0.));
#1629=DIRECTION('',(0.,0.,1.));
#1630=DIRECTION('',(1.38777878078144E-14,-1.,0.));
#1631=DIRECTION('',(0.,0.,-1.));
#1632=DIRECTION('',(0.,0.,1.));
#1633=DIRECTION('',(1.38777878078144E-14,-1.,0.));
#1634=DIRECTION('',(0.,1.,0.));
#1635=DIRECTION('',(0.,0.,1.));
#1636=DIRECTION('',(1.,0.,0.));
#1637=DIRECTION('',(0.,0.,-1.));
#1638=DIRECTION('',(1.,0.,0.));
#1639=DIRECTION('',(0.,0.,-1.));
#1640=DIRECTION('',(-1.,0.,0.));
#1641=DIRECTION('',(0.,0.,1.));
#1642=DIRECTION('',(-1.,-2.08166817117214E-14,0.));
#1643=DIRECTION('',(0.,0.,-1.));
#1644=DIRECTION('',(0.,0.,1.));
#1645=DIRECTION('',(-1.,-2.08166817117214E-14,0.));
#1646=DIRECTION('',(0.,0.,-1.));
#1647=DIRECTION('',(-1.,0.,0.));
#1648=DIRECTION('',(0.,0.,1.));
#1649=DIRECTION('',(0.,1.,0.));
#1650=DIRECTION('',(0.,0.,-1.));
#1651=DIRECTION('',(0.,0.,1.));
#1652=DIRECTION('',(0.,1.,0.));
#1653=DIRECTION('',(0.,0.,-1.));
#1654=DIRECTION('',(0.,1.,0.));
#1655=DIRECTION('',(0.,0.,1.));
#1656=DIRECTION('',(1.,0.,0.));
#1657=DIRECTION('',(0.,0.,-1.));
#1658=DIRECTION('',(1.,0.,0.));
#1659=DIRECTION('',(0.,0.,-1.));
#1660=DIRECTION('',(-1.,0.,0.));
#1661=DIRECTION('',(0.,0.,1.));
#1662=DIRECTION('',(1.,0.,0.));
#1663=DIRECTION('',(0.,0.,-1.));
#1664=DIRECTION('',(0.,0.,1.));
#1665=DIRECTION('',(1.,0.,0.));
#1666=DIRECTION('',(1.,0.,0.));
#1667=DIRECTION('',(0.,0.,-1.));
#1668=DIRECTION('',(0.,-1.,0.));
#1669=DIRECTION('',(0.,0.,-1.));
#1670=DIRECTION('',(0.,-1.,0.));
#1671=DIRECTION('',(0.,0.,-1.));
#1672=DIRECTION('',(-1.,0.,0.));
#1673=DIRECTION('',(0.,0.,1.));
#1674=DIRECTION('',(0.,-1.,0.));
#1675=DIRECTION('',(0.,0.,-1.));
#1676=DIRECTION('',(0.,0.,1.));
#1677=DIRECTION('',(0.,-1.,0.));
#1678=DIRECTION('',(0.,1.,0.));
#1679=DIRECTION('',(0.,0.,1.));
#1680=DIRECTION('',(1.,0.,0.));
#1681=DIRECTION('',(0.,0.,-1.));
#1682=DIRECTION('',(1.,0.,0.));
#1683=DIRECTION('',(0.,0.,-1.));
#1684=DIRECTION('',(-1.,0.,0.));
#1685=DIRECTION('',(0.,0.,1.));
#1686=DIRECTION('',(-1.,0.,0.));
#1687=DIRECTION('',(0.,0.,-1.));
#1688=DIRECTION('',(0.,0.,1.));
#1689=DIRECTION('',(-1.,0.,0.));
#1690=DIRECTION('',(1.,0.,0.));
#1691=DIRECTION('',(0.,0.,-1.));
#1692=DIRECTION('',(0.,-1.,0.));
#1693=DIRECTION('',(0.,-1.,0.));
#1694=DIRECTION('',(1.,0.,0.));
#1695=DIRECTION('',(0.,0.,-1.));
#1696=DIRECTION('',(0.,-1.,0.));
#1697=DIRECTION('',(0.,-1.,0.));
#1698=DIRECTION('',(1.,0.,0.));
#1699=DIRECTION('',(0.,0.,-1.));
#1700=DIRECTION('',(0.,-1.,0.));
#1701=DIRECTION('',(0.,-1.,0.));
#1702=DIRECTION('',(1.,0.,0.));
#1703=DIRECTION('',(0.,0.,-1.));
#1704=DIRECTION('',(0.,-1.,0.));
#1705=DIRECTION('',(0.,-1.,0.));
#1706=DIRECTION('',(0.,0.,1.));
#1707=DIRECTION('',(1.,0.,0.));
#1708=DIRECTION('',(0.,0.,1.));
#1709=DIRECTION('',(1.,0.,0.));
#1710=DIRECTION('',(-1.,0.,0.));
#1711=DIRECTION('',(-1.,0.,0.));
#1712=DIRECTION('',(0.,1.,0.));
#1713=DIRECTION('',(0.,0.,1.));
#1714=DIRECTION('',(-1.,0.,0.));
#1715=DIRECTION('',(0.,-1.7347234759768E-16,-1.));
#1716=DIRECTION('',(0.,1.,-1.7347234759768E-16));
#1717=DIRECTION('',(-1.,0.,0.));
#1718=DIRECTION('',(0.,1.,0.));
#1719=DIRECTION('',(0.,0.,1.));
#1720=CARTESIAN_POINT('',(0.,0.,0.));
#1721=CARTESIAN_POINT('',(-0.0646619514352315,-0.0126234208196402,0.013));
#1722=CARTESIAN_POINT('',(-0.0646619514352315,-0.0126234208196402,0.));
#1723=CARTESIAN_POINT('',(-0.0646619514352315,-0.0448734208196402,0.));
#1724=CARTESIAN_POINT('',(-0.0646619514352315,0.0196265791803599,0.));
#1725=CARTESIAN_POINT('',(-0.0646619514352315,-0.0448734208196402,0.013));
#1726=CARTESIAN_POINT('',(-0.0646619514352315,-0.0448734208196402,0.016));
#1727=CARTESIAN_POINT('',(-0.0646619514352315,-0.0126234208196402,0.016));
#1728=CARTESIAN_POINT('',(-0.0646619514352315,0.0196265791803599,0.016));
#1729=CARTESIAN_POINT('',(-0.0646619514352315,0.0196265791803599,0.013));
#1730=CARTESIAN_POINT('',(-0.0646619514352315,-0.00762342081964016,0.01125));
#1731=CARTESIAN_POINT('',(-0.0646619514352315,-0.00762342081964016,0.013));
#1732=CARTESIAN_POINT('',(-0.0646619514352315,-0.00762342081964016,0.0095));
#1733=CARTESIAN_POINT('',(-0.0646619514352315,-0.0126234208196402,0.013));
#1734=CARTESIAN_POINT('',(-0.0646619514352315,-0.0176234208196401,0.013));
#1735=CARTESIAN_POINT('',(-0.0646619514352315,-0.0176234208196401,0.01125));
#1736=CARTESIAN_POINT('',(-0.0646619514352315,-0.0176234208196401,0.0095));
#1737=CARTESIAN_POINT('',(-0.0646619514352315,-0.0126234208196402,0.0095));
#1738=CARTESIAN_POINT('',(-0.0244119514352315,-0.0348734208196401,0.013));
#1739=CARTESIAN_POINT('',(-0.0244119514352315,-0.0348734208196401,0.));
#1740=CARTESIAN_POINT('',(-0.0546619514352315,-0.0348734208196401,0.));
#1741=CARTESIAN_POINT('',(0.00583804856476846,-0.0348734208196401,0.));
#1742=CARTESIAN_POINT('',(-0.0546619514352315,-0.0348734208196401,0.013));
#1743=CARTESIAN_POINT('',(-0.0546619514352315,-0.0348734208196401,0.013));
#1744=CARTESIAN_POINT('',(-0.0244119514352315,-0.0348734208196401,0.013));
#1745=CARTESIAN_POINT('',(0.00583804856476846,-0.0348734208196401,0.013));
#1746=CARTESIAN_POINT('',(0.00583804856476846,-0.0348734208196401,0.013));
#1747=CARTESIAN_POINT('',(-0.0546619514352315,-0.0126234208196401,0.013));
#1748=CARTESIAN_POINT('',(-0.0546619514352315,-0.0126234208196401,0.013));
#1749=CARTESIAN_POINT('',(-0.0546619514352315,-0.00762342081964016,0.013));
#1750=CARTESIAN_POINT('',(-0.0546619514352315,0.00962657918035984,0.013));
#1751=CARTESIAN_POINT('',(-0.0546619514352315,-0.00762342081964016,0.013));
#1752=CARTESIAN_POINT('',(-0.0546619514352315,-0.00762342081964016,0.0095));
#1753=CARTESIAN_POINT('',(-0.0546619514352315,-0.0126234208196401,0.0095));
#1754=CARTESIAN_POINT('',(-0.0546619514352315,-0.0176234208196401,0.0095));
#1755=CARTESIAN_POINT('',(-0.0546619514352315,-0.0176234208196401,0.013));
#1756=CARTESIAN_POINT('',(-0.0546619514352315,-0.0176234208196401,0.013));
#1757=CARTESIAN_POINT('',(-0.0546619514352315,-0.0126234208196401,0.013));
#1758=CARTESIAN_POINT('',(-0.0546619514352315,-0.0126234208196401,0.));
#1759=CARTESIAN_POINT('',(-0.0546619514352315,0.00962657918035984,0.));
#1760=CARTESIAN_POINT('',(-0.0546619514352315,0.00962657918035984,0.013));
#1761=CARTESIAN_POINT('',(-0.0244119514352315,0.00962657918035984,0.013));
#1762=CARTESIAN_POINT('',(-0.0244119514352315,0.00962657918035984,0.));
#1763=CARTESIAN_POINT('',(0.00583804856476845,0.00962657918035985,0.));
#1764=CARTESIAN_POINT('',(0.00583804856476845,0.00962657918035985,0.013));
#1765=CARTESIAN_POINT('',(0.00583804856476845,0.00962657918035985,0.013));
#1766=CARTESIAN_POINT('',(-0.0244119514352315,0.00962657918035984,0.013));
#1767=CARTESIAN_POINT('',(-0.0244119514352315,-0.0448734208196402,0.013));
#1768=CARTESIAN_POINT('',(-0.0244119514352315,-0.0448734208196402,0.));
#1769=CARTESIAN_POINT('',(0.0158380485647685,-0.0448734208196402,0.));
#1770=CARTESIAN_POINT('',(0.0158380485647685,-0.0448734208196402,0.013));
#1771=CARTESIAN_POINT('',(0.0158380485647685,-0.0448734208196402,0.016));
#1772=CARTESIAN_POINT('',(-0.0244119514352315,-0.0448734208196402,0.016));
#1773=CARTESIAN_POINT('',(0.0158380485647685,-0.0126234208196402,0.013));
#1774=CARTESIAN_POINT('',(0.0158380485647685,-0.0126234208196402,0.));
#1775=CARTESIAN_POINT('',(0.0158380485647685,0.0196265791803599,0.));
#1776=CARTESIAN_POINT('',(0.0158380485647685,0.0196265791803599,0.013));
#1777=CARTESIAN_POINT('',(0.0158380485647685,0.0196265791803599,0.016));
#1778=CARTESIAN_POINT('',(0.0158380485647685,-0.0126234208196402,0.016));
#1779=CARTESIAN_POINT('',(-0.0582119514352316,0.0131765791803598,0.013));
#1780=CARTESIAN_POINT('',(-0.0582119514352316,0.0131765791803598,0.));
#1781=CARTESIAN_POINT('',(-0.0567619514352316,0.0131765791803598,0.));
#1782=CARTESIAN_POINT('',(-0.0582119514352316,0.0131765791803598,0.016));
#1783=CARTESIAN_POINT('',(-0.0567619514352316,0.0131765791803598,0.016));
#1784=CARTESIAN_POINT('',(0.00938804856476846,0.0131765791803598,0.013));
#1785=CARTESIAN_POINT('',(0.00938804856476846,0.0131765791803598,0.));
#1786=CARTESIAN_POINT('',(0.0108380485647685,0.0131765791803598,0.));
#1787=CARTESIAN_POINT('',(0.00938804856476846,0.0131765791803598,0.016));
#1788=CARTESIAN_POINT('',(0.0108380485647685,0.0131765791803598,0.016));
#1789=CARTESIAN_POINT('',(0.00938804856476847,-0.0384234208196401,0.013));
#1790=CARTESIAN_POINT('',(0.00938804856476847,-0.0384234208196401,0.));
#1791=CARTESIAN_POINT('',(0.0108380485647685,-0.0384234208196401,0.));
#1792=CARTESIAN_POINT('',(0.00938804856476847,-0.0384234208196401,0.016));
#1793=CARTESIAN_POINT('',(0.0108380485647685,-0.0384234208196401,0.016));
#1794=CARTESIAN_POINT('',(-0.0582119514352315,-0.0384234208196401,0.013));
#1795=CARTESIAN_POINT('',(-0.0582119514352315,-0.0384234208196401,0.));
#1796=CARTESIAN_POINT('',(-0.0567619514352315,-0.0384234208196401,0.));
#1797=CARTESIAN_POINT('',(-0.0582119514352315,-0.0384234208196401,0.016));
#1798=CARTESIAN_POINT('',(-0.0567619514352315,-0.0384234208196401,0.016));
#1799=CARTESIAN_POINT('',(-0.0244119514352315,0.0196265791803599,0.013));
#1800=CARTESIAN_POINT('',(-0.0244119514352315,0.0196265791803599,0.));
#1801=CARTESIAN_POINT('',(-0.0244119514352315,0.0196265791803599,0.016));
#1802=CARTESIAN_POINT('',(0.00583804856476846,-0.0126234208196402,0.013));
#1803=CARTESIAN_POINT('',(0.00583804856476846,-0.0126234208196402,0.));
#1804=CARTESIAN_POINT('',(0.00583804856476846,-0.0126234208196402,0.013));
#1805=CARTESIAN_POINT('',(-0.0244119514352315,-0.0126234208196402,0.));
#1806=CARTESIAN_POINT('',(-0.0118619514352315,-0.0156484208196402,0.016));
#1807=CARTESIAN_POINT('',(-0.0118619514352315,-0.0156484208196402,0.013));
#1808=CARTESIAN_POINT('',(-0.0118619514352315,-0.0151484208196402,0.013));
#1809=CARTESIAN_POINT('',(-0.0123619514352315,-0.0156484208196402,0.013));
#1810=CARTESIAN_POINT('',(-0.0118619514352315,-0.0151484208196402,0.016));
#1811=CARTESIAN_POINT('',(-0.0118619514352315,-0.0151484208196402,0.016));
#1812=CARTESIAN_POINT('',(-0.0118619514352315,-0.0156484208196402,0.016));
#1813=CARTESIAN_POINT('',(-0.0123619514352315,-0.0156484208196402,0.016));
#1814=CARTESIAN_POINT('',(-0.0123619514352315,-0.0156484208196402,0.016));
#1815=CARTESIAN_POINT('',(-0.00536195143523153,-0.0151484208196402,0.016));
#1816=CARTESIAN_POINT('',(-0.00536195143523153,-0.0151484208196402,0.013));
#1817=CARTESIAN_POINT('',(0.00113804856476847,-0.0151484208196402,0.013));
#1818=CARTESIAN_POINT('',(0.00113804856476847,-0.0151484208196402,0.016));
#1819=CARTESIAN_POINT('',(0.00113804856476847,-0.0151484208196402,0.016));
#1820=CARTESIAN_POINT('',(-0.00536195143523153,-0.0151484208196402,0.016));
#1821=CARTESIAN_POINT('',(0.00113804856476847,-0.0156484208196402,0.016));
#1822=CARTESIAN_POINT('',(0.00113804856476847,-0.0156484208196402,0.013));
#1823=CARTESIAN_POINT('',(0.00163804856476847,-0.0156484208196402,0.013));
#1824=CARTESIAN_POINT('',(0.00163804856476847,-0.0156484208196402,0.016));
#1825=CARTESIAN_POINT('',(0.00163804856476847,-0.0156484208196402,0.016));
#1826=CARTESIAN_POINT('',(0.00113804856476847,-0.0156484208196402,0.016));
#1827=CARTESIAN_POINT('',(0.00163804856476847,-0.0221484208196401,0.016));
#1828=CARTESIAN_POINT('',(0.00163804856476847,-0.0221484208196401,0.013));
#1829=CARTESIAN_POINT('',(0.00163804856476846,-0.0286484208196402,0.013));
#1830=CARTESIAN_POINT('',(0.00163804856476846,-0.0286484208196402,0.016));
#1831=CARTESIAN_POINT('',(0.00163804856476846,-0.0286484208196402,0.016));
#1832=CARTESIAN_POINT('',(0.00163804856476847,-0.0221484208196401,0.016));
#1833=CARTESIAN_POINT('',(0.00113804856476846,-0.0286484208196402,0.016));
#1834=CARTESIAN_POINT('',(0.00113804856476846,-0.0286484208196402,0.013));
#1835=CARTESIAN_POINT('',(0.00113804856476847,-0.0291484208196402,0.013));
#1836=CARTESIAN_POINT('',(0.00113804856476847,-0.0291484208196402,0.016));
#1837=CARTESIAN_POINT('',(0.00113804856476847,-0.0291484208196402,0.016));
#1838=CARTESIAN_POINT('',(0.00113804856476846,-0.0286484208196402,0.016));
#1839=CARTESIAN_POINT('',(-0.00536195143523153,-0.0291484208196402,0.016));
#1840=CARTESIAN_POINT('',(-0.00536195143523153,-0.0291484208196402,0.013));
#1841=CARTESIAN_POINT('',(-0.0118619514352315,-0.0291484208196402,0.013));
#1842=CARTESIAN_POINT('',(-0.0118619514352315,-0.0291484208196402,0.016));
#1843=CARTESIAN_POINT('',(-0.0118619514352315,-0.0291484208196402,0.016));
#1844=CARTESIAN_POINT('',(-0.00536195143523153,-0.0291484208196402,0.016));
#1845=CARTESIAN_POINT('',(-0.0118619514352315,-0.0286484208196402,0.016));
#1846=CARTESIAN_POINT('',(-0.0118619514352315,-0.0286484208196402,0.013));
#1847=CARTESIAN_POINT('',(-0.0123619514352315,-0.0286484208196402,0.013));
#1848=CARTESIAN_POINT('',(-0.0123619514352315,-0.0286484208196402,0.016));
#1849=CARTESIAN_POINT('',(-0.0123619514352315,-0.0286484208196402,0.016));
#1850=CARTESIAN_POINT('',(-0.0118619514352315,-0.0286484208196402,0.016));
#1851=CARTESIAN_POINT('',(-0.0309119514352315,-0.0156484208196402,0.016));
#1852=CARTESIAN_POINT('',(-0.0309119514352315,-0.0156484208196402,0.013));
#1853=CARTESIAN_POINT('',(-0.0309119514352315,-0.0151484208196402,0.013));
#1854=CARTESIAN_POINT('',(-0.0314119514352315,-0.0156484208196402,0.013));
#1855=CARTESIAN_POINT('',(-0.0309119514352315,-0.0151484208196402,0.016));
#1856=CARTESIAN_POINT('',(-0.0309119514352315,-0.0151484208196402,0.016));
#1857=CARTESIAN_POINT('',(-0.0309119514352315,-0.0156484208196402,0.016));
#1858=CARTESIAN_POINT('',(-0.0314119514352315,-0.0156484208196402,0.016));
#1859=CARTESIAN_POINT('',(-0.0314119514352315,-0.0156484208196402,0.016));
#1860=CARTESIAN_POINT('',(-0.0244119514352315,-0.0151484208196402,0.016));
#1861=CARTESIAN_POINT('',(-0.0244119514352315,-0.0151484208196402,0.013));
#1862=CARTESIAN_POINT('',(-0.0179119514352316,-0.0151484208196402,0.013));
#1863=CARTESIAN_POINT('',(-0.0179119514352316,-0.0151484208196402,0.016));
#1864=CARTESIAN_POINT('',(-0.0179119514352316,-0.0151484208196402,0.016));
#1865=CARTESIAN_POINT('',(-0.0244119514352315,-0.0151484208196402,0.016));
#1866=CARTESIAN_POINT('',(-0.0179119514352315,-0.0156484208196402,0.016));
#1867=CARTESIAN_POINT('',(-0.0179119514352315,-0.0156484208196402,0.013));
#1868=CARTESIAN_POINT('',(-0.0174119514352316,-0.0156484208196402,0.013));
#1869=CARTESIAN_POINT('',(-0.0174119514352316,-0.0156484208196402,0.016));
#1870=CARTESIAN_POINT('',(-0.0174119514352316,-0.0156484208196402,0.016));
#1871=CARTESIAN_POINT('',(-0.0179119514352315,-0.0156484208196402,0.016));
#1872=CARTESIAN_POINT('',(-0.0174119514352316,-0.0221484208196401,0.016));
#1873=CARTESIAN_POINT('',(-0.0174119514352316,-0.0221484208196401,0.013));
#1874=CARTESIAN_POINT('',(-0.0174119514352316,-0.0286484208196402,0.013));
#1875=CARTESIAN_POINT('',(-0.0174119514352316,-0.0286484208196402,0.016));
#1876=CARTESIAN_POINT('',(-0.0174119514352316,-0.0286484208196402,0.016));
#1877=CARTESIAN_POINT('',(-0.0174119514352316,-0.0221484208196401,0.016));
#1878=CARTESIAN_POINT('',(-0.0179119514352316,-0.0286484208196402,0.016));
#1879=CARTESIAN_POINT('',(-0.0179119514352316,-0.0286484208196402,0.013));
#1880=CARTESIAN_POINT('',(-0.0179119514352316,-0.0291484208196402,0.013));
#1881=CARTESIAN_POINT('',(-0.0179119514352316,-0.0291484208196402,0.016));
#1882=CARTESIAN_POINT('',(-0.0179119514352316,-0.0291484208196402,0.016));
#1883=CARTESIAN_POINT('',(-0.0179119514352316,-0.0286484208196402,0.016));
#1884=CARTESIAN_POINT('',(-0.0244119514352315,-0.0291484208196402,0.016));
#1885=CARTESIAN_POINT('',(-0.0244119514352315,-0.0291484208196402,0.013));
#1886=CARTESIAN_POINT('',(-0.0309119514352315,-0.0291484208196402,0.013));
#1887=CARTESIAN_POINT('',(-0.0309119514352315,-0.0291484208196402,0.016));
#1888=CARTESIAN_POINT('',(-0.0309119514352315,-0.0291484208196402,0.016));
#1889=CARTESIAN_POINT('',(-0.0244119514352315,-0.0291484208196402,0.016));
#1890=CARTESIAN_POINT('',(-0.0309119514352315,-0.0286484208196402,0.016));
#1891=CARTESIAN_POINT('',(-0.0309119514352315,-0.0286484208196402,0.013));
#1892=CARTESIAN_POINT('',(-0.0314119514352315,-0.0286484208196402,0.013));
#1893=CARTESIAN_POINT('',(-0.0314119514352315,-0.0286484208196402,0.016));
#1894=CARTESIAN_POINT('',(-0.0314119514352315,-0.0286484208196402,0.016));
#1895=CARTESIAN_POINT('',(-0.0309119514352315,-0.0286484208196402,0.016));
#1896=CARTESIAN_POINT('',(-0.0499619514352315,-0.0156484208196402,0.016));
#1897=CARTESIAN_POINT('',(-0.0499619514352315,-0.0156484208196402,0.013));
#1898=CARTESIAN_POINT('',(-0.0499619514352315,-0.0151484208196402,0.013));
#1899=CARTESIAN_POINT('',(-0.0504619514352315,-0.0156484208196402,0.013));
#1900=CARTESIAN_POINT('',(-0.0499619514352315,-0.0151484208196402,0.016));
#1901=CARTESIAN_POINT('',(-0.0499619514352315,-0.0151484208196402,0.016));
#1902=CARTESIAN_POINT('',(-0.0499619514352315,-0.0156484208196402,0.016));
#1903=CARTESIAN_POINT('',(-0.0504619514352315,-0.0156484208196402,0.016));
#1904=CARTESIAN_POINT('',(-0.0504619514352315,-0.0156484208196402,0.016));
#1905=CARTESIAN_POINT('',(-0.0434619514352315,-0.0151484208196402,0.016));
#1906=CARTESIAN_POINT('',(-0.0434619514352315,-0.0151484208196402,0.013));
#1907=CARTESIAN_POINT('',(-0.0369619514352315,-0.0151484208196402,0.013));
#1908=CARTESIAN_POINT('',(-0.0369619514352315,-0.0151484208196402,0.016));
#1909=CARTESIAN_POINT('',(-0.0369619514352315,-0.0151484208196402,0.016));
#1910=CARTESIAN_POINT('',(-0.0434619514352315,-0.0151484208196402,0.016));
#1911=CARTESIAN_POINT('',(-0.0369619514352315,-0.0156484208196402,0.016));
#1912=CARTESIAN_POINT('',(-0.0369619514352315,-0.0156484208196402,0.013));
#1913=CARTESIAN_POINT('',(-0.0364619514352315,-0.0156484208196402,0.013));
#1914=CARTESIAN_POINT('',(-0.0364619514352315,-0.0156484208196402,0.016));
#1915=CARTESIAN_POINT('',(-0.0364619514352315,-0.0156484208196402,0.016));
#1916=CARTESIAN_POINT('',(-0.0369619514352315,-0.0156484208196402,0.016));
#1917=CARTESIAN_POINT('',(-0.0364619514352315,-0.0221484208196401,0.016));
#1918=CARTESIAN_POINT('',(-0.0364619514352315,-0.0221484208196401,0.013));
#1919=CARTESIAN_POINT('',(-0.0364619514352315,-0.0286484208196402,0.013));
#1920=CARTESIAN_POINT('',(-0.0364619514352315,-0.0286484208196402,0.016));
#1921=CARTESIAN_POINT('',(-0.0364619514352315,-0.0286484208196402,0.016));
#1922=CARTESIAN_POINT('',(-0.0364619514352315,-0.0221484208196401,0.016));
#1923=CARTESIAN_POINT('',(-0.0369619514352315,-0.0286484208196402,0.016));
#1924=CARTESIAN_POINT('',(-0.0369619514352315,-0.0286484208196402,0.013));
#1925=CARTESIAN_POINT('',(-0.0369619514352315,-0.0291484208196402,0.013));
#1926=CARTESIAN_POINT('',(-0.0369619514352315,-0.0291484208196402,0.016));
#1927=CARTESIAN_POINT('',(-0.0369619514352315,-0.0291484208196402,0.016));
#1928=CARTESIAN_POINT('',(-0.0369619514352315,-0.0286484208196402,0.016));
#1929=CARTESIAN_POINT('',(-0.0434619514352315,-0.0291484208196402,0.016));
#1930=CARTESIAN_POINT('',(-0.0434619514352315,-0.0291484208196402,0.013));
#1931=CARTESIAN_POINT('',(-0.0499619514352315,-0.0291484208196402,0.013));
#1932=CARTESIAN_POINT('',(-0.0499619514352315,-0.0291484208196402,0.016));
#1933=CARTESIAN_POINT('',(-0.0499619514352315,-0.0291484208196402,0.016));
#1934=CARTESIAN_POINT('',(-0.0434619514352315,-0.0291484208196402,0.016));
#1935=CARTESIAN_POINT('',(-0.0499619514352315,-0.0286484208196402,0.016));
#1936=CARTESIAN_POINT('',(-0.0499619514352315,-0.0286484208196402,0.013));
#1937=CARTESIAN_POINT('',(-0.0504619514352315,-0.0286484208196402,0.013));
#1938=CARTESIAN_POINT('',(-0.0504619514352315,-0.0286484208196402,0.016));
#1939=CARTESIAN_POINT('',(-0.0504619514352315,-0.0286484208196402,0.016));
#1940=CARTESIAN_POINT('',(-0.0499619514352315,-0.0286484208196402,0.016));
#1941=CARTESIAN_POINT('',(-0.0309119514352315,0.00340157918035985,0.016));
#1942=CARTESIAN_POINT('',(-0.0309119514352315,0.00340157918035985,0.013));
#1943=CARTESIAN_POINT('',(-0.0309119514352315,0.00390157918035985,0.013));
#1944=CARTESIAN_POINT('',(-0.0314119514352315,0.00340157918035985,0.013));
#1945=CARTESIAN_POINT('',(-0.0309119514352315,0.00390157918035985,0.016));
#1946=CARTESIAN_POINT('',(-0.0309119514352315,0.00390157918035985,0.016));
#1947=CARTESIAN_POINT('',(-0.0309119514352315,0.00340157918035985,0.016));
#1948=CARTESIAN_POINT('',(-0.0314119514352315,0.00340157918035985,0.016));
#1949=CARTESIAN_POINT('',(-0.0314119514352315,0.00340157918035985,0.016));
#1950=CARTESIAN_POINT('',(-0.0244119514352315,0.00390157918035985,0.016));
#1951=CARTESIAN_POINT('',(-0.0244119514352315,0.00390157918035985,0.013));
#1952=CARTESIAN_POINT('',(-0.0179119514352316,0.00390157918035984,0.013));
#1953=CARTESIAN_POINT('',(-0.0179119514352316,0.00390157918035984,0.016));
#1954=CARTESIAN_POINT('',(-0.0179119514352316,0.00390157918035984,0.016));
#1955=CARTESIAN_POINT('',(-0.0244119514352315,0.00390157918035985,0.016));
#1956=CARTESIAN_POINT('',(-0.0179119514352316,0.00340157918035985,0.016));
#1957=CARTESIAN_POINT('',(-0.0179119514352316,0.00340157918035985,0.013));
#1958=CARTESIAN_POINT('',(-0.0174119514352316,0.00340157918035985,0.013));
#1959=CARTESIAN_POINT('',(-0.0174119514352316,0.00340157918035985,0.016));
#1960=CARTESIAN_POINT('',(-0.0174119514352316,0.00340157918035985,0.016));
#1961=CARTESIAN_POINT('',(-0.0179119514352316,0.00340157918035985,0.016));
#1962=CARTESIAN_POINT('',(-0.0174119514352316,-0.00309842081964015,0.016));
#1963=CARTESIAN_POINT('',(-0.0174119514352316,-0.00309842081964015,0.013));
#1964=CARTESIAN_POINT('',(-0.0174119514352316,-0.00959842081964015,0.013));
#1965=CARTESIAN_POINT('',(-0.0174119514352316,-0.00959842081964015,0.016));
#1966=CARTESIAN_POINT('',(-0.0174119514352316,-0.00959842081964015,0.016));
#1967=CARTESIAN_POINT('',(-0.0174119514352316,-0.00309842081964015,0.016));
#1968=CARTESIAN_POINT('',(-0.0179119514352316,-0.00959842081964015,0.016));
#1969=CARTESIAN_POINT('',(-0.0179119514352316,-0.00959842081964015,0.013));
#1970=CARTESIAN_POINT('',(-0.0179119514352316,-0.0100984208196401,0.013));
#1971=CARTESIAN_POINT('',(-0.0179119514352316,-0.0100984208196401,0.016));
#1972=CARTESIAN_POINT('',(-0.0179119514352316,-0.0100984208196401,0.016));
#1973=CARTESIAN_POINT('',(-0.0179119514352316,-0.00959842081964015,0.016));
#1974=CARTESIAN_POINT('',(-0.0244119514352315,-0.0100984208196401,0.016));
#1975=CARTESIAN_POINT('',(-0.0244119514352315,-0.0100984208196401,0.013));
#1976=CARTESIAN_POINT('',(-0.0309119514352315,-0.0100984208196401,0.013));
#1977=CARTESIAN_POINT('',(-0.0309119514352315,-0.0100984208196401,0.016));
#1978=CARTESIAN_POINT('',(-0.0309119514352315,-0.0100984208196401,0.016));
#1979=CARTESIAN_POINT('',(-0.0244119514352315,-0.0100984208196401,0.016));
#1980=CARTESIAN_POINT('',(-0.0309119514352315,-0.00959842081964015,0.016));
#1981=CARTESIAN_POINT('',(-0.0309119514352315,-0.00959842081964015,0.013));
#1982=CARTESIAN_POINT('',(-0.0314119514352315,-0.00959842081964015,0.013));
#1983=CARTESIAN_POINT('',(-0.0314119514352315,-0.00959842081964015,0.016));
#1984=CARTESIAN_POINT('',(-0.0314119514352315,-0.00959842081964015,0.016));
#1985=CARTESIAN_POINT('',(-0.0309119514352315,-0.00959842081964015,0.016));
#1986=CARTESIAN_POINT('',(-0.0314119514352315,-0.0221484208196401,0.016));
#1987=CARTESIAN_POINT('',(-0.0314119514352315,-0.0221484208196401,0.013));
#1988=CARTESIAN_POINT('',(-0.0314119514352315,-0.0221484208196401,0.016));
#1989=CARTESIAN_POINT('',(-0.0504619514352315,-0.0221484208196401,0.016));
#1990=CARTESIAN_POINT('',(-0.0504619514352315,-0.0221484208196401,0.013));
#1991=CARTESIAN_POINT('',(-0.0504619514352315,-0.0221484208196401,0.016));
#1992=CARTESIAN_POINT('',(-0.0314119514352315,-0.00309842081964015,0.016));
#1993=CARTESIAN_POINT('',(-0.0314119514352315,-0.00309842081964015,0.013));
#1994=CARTESIAN_POINT('',(-0.0314119514352315,-0.00309842081964015,0.016));
#1995=CARTESIAN_POINT('',(-0.0123619514352315,-0.0221484208196401,0.016));
#1996=CARTESIAN_POINT('',(-0.0123619514352315,-0.0221484208196401,0.013));
#1997=CARTESIAN_POINT('',(-0.0123619514352315,-0.0221484208196401,0.016));
#1998=CARTESIAN_POINT('',(-0.0244119514352315,-0.0126234208196402,0.016));
#1999=CARTESIAN_POINT('',(-0.0244119514352315,-0.0126234208196402,0.013));
#2000=CARTESIAN_POINT('',(-0.0396619514352315,-0.0176234208196401,0.013));
#2001=CARTESIAN_POINT('',(-0.0396619514352315,-0.00762342081964016,0.013));
#2002=CARTESIAN_POINT('',(-0.0396619514352315,-0.00762342081964016,0.01125));
#2003=CARTESIAN_POINT('',(-0.0396619514352315,-0.00762342081964016,0.0095));
#2004=CARTESIAN_POINT('',(-0.0396619514352315,-0.0126234208196402,0.0095));
#2005=CARTESIAN_POINT('',(-0.0396619514352315,-0.0176234208196401,0.0095));
#2006=CARTESIAN_POINT('',(-0.0396619514352315,-0.0176234208196401,0.01125));
#2007=MECHANICAL_DESIGN_GEOMETRIC_PRESENTATION_REPRESENTATION('',(#1060,
#962,#963,#964,#965,#966,#967,#968,#969,#970,#971,#972,#973,#974,#975,#976,
#977,#978,#979,#980,#981,#982,#983,#984,#985,#986,#987,#988,#989,#990,#991,
#992,#993,#994,#995,#996,#997,#998,#999,#1000,#1001,#1002,#1003,#1004,#1005,
#1006,#1007),#2008);
#2008=(
GEOMETRIC_REPRESENTATION_CONTEXT(3)
GLOBAL_UNCERTAINTY_ASSIGNED_CONTEXT((#2009))
GLOBAL_UNIT_ASSIGNED_CONTEXT((#2012,#2011,#2010))
REPRESENTATION_CONTEXT('Part 2','TOP_LEVEL_ASSEMBLY_PART')
);
#2009=UNCERTAINTY_MEASURE_WITH_UNIT(LENGTH_MEASURE(1.E-8),#2012,
'DISTANCE_ACCURACY_VALUE','Maximum Tolerance applied to model');
#2010=(
NAMED_UNIT(*)
SI_UNIT($,.STERADIAN.)
SOLID_ANGLE_UNIT()
);
#2011=(
NAMED_UNIT(*)
PLANE_ANGLE_UNIT()
SI_UNIT($,.RADIAN.)
);
#2012=(
LENGTH_UNIT()
NAMED_UNIT(*)
SI_UNIT($,.METRE.)
);
#2013=PRODUCT_DEFINITION_SHAPE('','',#2014);
#2014=PRODUCT_DEFINITION('','',#2016,#2015);
#2015=PRODUCT_DEFINITION_CONTEXT('',#2022,'design');
#2016=PRODUCT_DEFINITION_FORMATION_WITH_SPECIFIED_SOURCE('','',#2018,
 .NOT_KNOWN.);
#2017=PRODUCT_RELATED_PRODUCT_CATEGORY('','',(#2018));
#2018=PRODUCT('Part 2','Part 2','Part 2',(#2020));
#2019=PRODUCT_CATEGORY('','');
#2020=PRODUCT_CONTEXT('',#2022,'mechanical');
#2021=APPLICATION_PROTOCOL_DEFINITION('international standard',
'ap242_managed_model_based_3d_engineering',2020,#2022);
#2022=APPLICATION_CONTEXT('managed model based 3d engineering');
ENDSEC;
END-ISO-10303-21;
