ISO-10303-21;
HEADER;
/* Generated by software containing ST-Developer
 * from STEP Tools, Inc. (www.steptools.com) 
 */
/* OPTION: using custom renumber hook */

FILE_DESCRIPTION(
/* description */ ('STEP AP242 Edition 2',
'CAx-IF Rec.Pracs.---Representation and Presentation of Product Manufa
cturing Information (PMI)---4.0---2014-10-13',
'CAx-IF Rec.Pracs.---3D Tessellated Geometry---0.4---2014-09-14','2;1',
'CAx-IF Rec.Pracs.---User Defined Attributes---1.5---2016-08-15'),
/* implementation_level */ '2;1');

FILE_NAME(
/* name */ 'Part Studio 1',
/* time_stamp */ '2026-09-23T01:23:57Z',
/* author */ (''),
/* organization */ (''),
/* preprocessor_version */ 'ST-DEVELOPER v20',
/* originating_system */ 'ONSHAPE BY PTC INC, 1.221',
/* authorisation */ '  ');

FILE_SCHEMA (('AP242_MANAGED_MODEL_BASED_3D_ENGINEERING_MIM_LF { 1 0 10303 442 3 1 4 }'));
ENDSEC;

DATA;
#10=SHAPE_REPRESENTATION_RELATIONSHIP('','',#1465,#12);
#11=SHAPE_REPRESENTATION_RELATIONSHIP('','',#1466,#13);
#12=ADVANCED_BREP_SHAPE_REPRESENTATION('',(#1461),#2189);
#13=ADVANCED_BREP_SHAPE_REPRESENTATION('',(#1462),#2190);
#14=CIRCLE('',#1475,0.00145);
#15=CIRCLE('',#1476,0.00145);
#16=CIRCLE('',#1478,0.00145);
#17=CIRCLE('',#1479,0.00145);
#18=CIRCLE('',#1481,0.00145);
#19=CIRCLE('',#1482,0.00145);
#20=CIRCLE('',#1484,0.00145);
#21=CIRCLE('',#1485,0.00145);
#22=CIRCLE('',#1490,0.0005);
#23=CIRCLE('',#1491,0.0005);
#24=CIRCLE('',#1494,0.0005);
#25=CIRCLE('',#1495,0.0005);
#26=CIRCLE('',#1498,0.0005);
#27=CIRCLE('',#1499,0.0005);
#28=CIRCLE('',#1502,0.0005);
#29=CIRCLE('',#1503,0.0005);
#30=CIRCLE('',#1505,0.0005);
#31=CIRCLE('',#1506,0.0005);
#32=CIRCLE('',#1509,0.0005);
#33=CIRCLE('',#1510,0.0005);
#34=CIRCLE('',#1513,0.0005);
#35=CIRCLE('',#1514,0.0005);
#36=CIRCLE('',#1517,0.0005);
#37=CIRCLE('',#1518,0.0005);
#38=CIRCLE('',#1520,0.000500000000000006);
#39=CIRCLE('',#1521,0.000500000000000006);
#40=CIRCLE('',#1524,0.0005);
#41=CIRCLE('',#1525,0.0005);
#42=CIRCLE('',#1528,0.0005);
#43=CIRCLE('',#1529,0.0005);
#44=CIRCLE('',#1532,0.000500000000000009);
#45=CIRCLE('',#1533,0.000500000000000009);
#46=CIRCLE('',#1535,0.0005);
#47=CIRCLE('',#1536,0.0005);
#48=CIRCLE('',#1539,0.0005);
#49=CIRCLE('',#1540,0.0005);
#50=CIRCLE('',#1543,0.0005);
#51=CIRCLE('',#1544,0.0005);
#52=CIRCLE('',#1547,0.0005);
#53=CIRCLE('',#1548,0.0005);
#54=CYLINDRICAL_SURFACE('',#1474,0.00145);
#55=CYLINDRICAL_SURFACE('',#1477,0.00145);
#56=CYLINDRICAL_SURFACE('',#1480,0.00145);
#57=CYLINDRICAL_SURFACE('',#1483,0.00145);
#58=CYLINDRICAL_SURFACE('',#1489,0.0005);
#59=CYLINDRICAL_SURFACE('',#1493,0.0005);
#60=CYLINDRICAL_SURFACE('',#1497,0.0005);
#61=CYLINDRICAL_SURFACE('',#1501,0.0005);
#62=CYLINDRICAL_SURFACE('',#1504,0.0005);
#63=CYLINDRICAL_SURFACE('',#1508,0.0005);
#64=CYLINDRICAL_SURFACE('',#1512,0.0005);
#65=CYLINDRICAL_SURFACE('',#1516,0.0005);
#66=CYLINDRICAL_SURFACE('',#1519,0.000500000000000006);
#67=CYLINDRICAL_SURFACE('',#1523,0.0005);
#68=CYLINDRICAL_SURFACE('',#1527,0.0005);
#69=CYLINDRICAL_SURFACE('',#1531,0.000500000000000009);
#70=CYLINDRICAL_SURFACE('',#1534,0.0005);
#71=CYLINDRICAL_SURFACE('',#1538,0.0005);
#72=CYLINDRICAL_SURFACE('',#1542,0.0005);
#73=CYLINDRICAL_SURFACE('',#1546,0.0005);
#74=ORIENTED_EDGE('',*,*,#378,.F.);
#75=ORIENTED_EDGE('',*,*,#379,.F.);
#76=ORIENTED_EDGE('',*,*,#380,.T.);
#77=ORIENTED_EDGE('',*,*,#381,.T.);
#78=ORIENTED_EDGE('',*,*,#382,.F.);
#79=ORIENTED_EDGE('',*,*,#383,.T.);
#80=ORIENTED_EDGE('',*,*,#384,.T.);
#81=ORIENTED_EDGE('',*,*,#385,.F.);
#82=ORIENTED_EDGE('',*,*,#386,.F.);
#83=ORIENTED_EDGE('',*,*,#387,.F.);
#84=ORIENTED_EDGE('',*,*,#388,.T.);
#85=ORIENTED_EDGE('',*,*,#389,.T.);
#86=ORIENTED_EDGE('',*,*,#390,.F.);
#87=ORIENTED_EDGE('',*,*,#391,.T.);
#88=ORIENTED_EDGE('',*,*,#392,.T.);
#89=ORIENTED_EDGE('',*,*,#393,.F.);
#90=ORIENTED_EDGE('',*,*,#394,.F.);
#91=ORIENTED_EDGE('',*,*,#387,.T.);
#92=ORIENTED_EDGE('',*,*,#395,.T.);
#93=ORIENTED_EDGE('',*,*,#396,.F.);
#94=ORIENTED_EDGE('',*,*,#397,.T.);
#95=ORIENTED_EDGE('',*,*,#398,.F.);
#96=ORIENTED_EDGE('',*,*,#399,.F.);
#97=ORIENTED_EDGE('',*,*,#396,.T.);
#98=ORIENTED_EDGE('',*,*,#400,.T.);
#99=ORIENTED_EDGE('',*,*,#401,.F.);
#100=ORIENTED_EDGE('',*,*,#402,.F.);
#101=ORIENTED_EDGE('',*,*,#379,.T.);
#102=ORIENTED_EDGE('',*,*,#403,.T.);
#103=ORIENTED_EDGE('',*,*,#404,.F.);
#104=ORIENTED_EDGE('',*,*,#405,.F.);
#105=ORIENTED_EDGE('',*,*,#401,.T.);
#106=ORIENTED_EDGE('',*,*,#406,.F.);
#107=ORIENTED_EDGE('',*,*,#407,.T.);
#108=ORIENTED_EDGE('',*,*,#408,.F.);
#109=ORIENTED_EDGE('',*,*,#409,.T.);
#110=ORIENTED_EDGE('',*,*,#410,.F.);
#111=ORIENTED_EDGE('',*,*,#411,.T.);
#112=ORIENTED_EDGE('',*,*,#412,.F.);
#113=ORIENTED_EDGE('',*,*,#413,.T.);
#114=ORIENTED_EDGE('',*,*,#414,.F.);
#115=ORIENTED_EDGE('',*,*,#381,.F.);
#116=ORIENTED_EDGE('',*,*,#415,.T.);
#117=ORIENTED_EDGE('',*,*,#404,.T.);
#118=ORIENTED_EDGE('',*,*,#416,.F.);
#119=ORIENTED_EDGE('',*,*,#389,.F.);
#120=ORIENTED_EDGE('',*,*,#417,.T.);
#121=ORIENTED_EDGE('',*,*,#398,.T.);
#122=ORIENTED_EDGE('',*,*,#378,.T.);
#123=ORIENTED_EDGE('',*,*,#414,.T.);
#124=ORIENTED_EDGE('',*,*,#403,.F.);
#125=ORIENTED_EDGE('',*,*,#400,.F.);
#126=ORIENTED_EDGE('',*,*,#412,.T.);
#127=ORIENTED_EDGE('',*,*,#410,.T.);
#128=ORIENTED_EDGE('',*,*,#408,.T.);
#129=ORIENTED_EDGE('',*,*,#406,.T.);
#130=ORIENTED_EDGE('',*,*,#386,.T.);
#131=ORIENTED_EDGE('',*,*,#416,.T.);
#132=ORIENTED_EDGE('',*,*,#397,.F.);
#133=ORIENTED_EDGE('',*,*,#395,.F.);
#134=ORIENTED_EDGE('',*,*,#418,.F.);
#135=ORIENTED_EDGE('',*,*,#419,.F.);
#136=ORIENTED_EDGE('',*,*,#420,.T.);
#137=ORIENTED_EDGE('',*,*,#421,.T.);
#138=ORIENTED_EDGE('',*,*,#422,.T.);
#139=ORIENTED_EDGE('',*,*,#423,.F.);
#140=ORIENTED_EDGE('',*,*,#424,.F.);
#141=ORIENTED_EDGE('',*,*,#419,.T.);
#142=ORIENTED_EDGE('',*,*,#425,.F.);
#143=ORIENTED_EDGE('',*,*,#426,.F.);
#144=ORIENTED_EDGE('',*,*,#427,.T.);
#145=ORIENTED_EDGE('',*,*,#423,.T.);
#146=ORIENTED_EDGE('',*,*,#428,.T.);
#147=ORIENTED_EDGE('',*,*,#429,.F.);
#148=ORIENTED_EDGE('',*,*,#430,.F.);
#149=ORIENTED_EDGE('',*,*,#426,.T.);
#150=ORIENTED_EDGE('',*,*,#431,.F.);
#151=ORIENTED_EDGE('',*,*,#432,.F.);
#152=ORIENTED_EDGE('',*,*,#433,.T.);
#153=ORIENTED_EDGE('',*,*,#429,.T.);
#154=ORIENTED_EDGE('',*,*,#434,.F.);
#155=ORIENTED_EDGE('',*,*,#435,.F.);
#156=ORIENTED_EDGE('',*,*,#436,.T.);
#157=ORIENTED_EDGE('',*,*,#432,.T.);
#158=ORIENTED_EDGE('',*,*,#437,.F.);
#159=ORIENTED_EDGE('',*,*,#438,.F.);
#160=ORIENTED_EDGE('',*,*,#439,.T.);
#161=ORIENTED_EDGE('',*,*,#435,.T.);
#162=ORIENTED_EDGE('',*,*,#440,.F.);
#163=ORIENTED_EDGE('',*,*,#441,.F.);
#164=ORIENTED_EDGE('',*,*,#442,.T.);
#165=ORIENTED_EDGE('',*,*,#443,.T.);
#166=ORIENTED_EDGE('',*,*,#444,.T.);
#167=ORIENTED_EDGE('',*,*,#445,.F.);
#168=ORIENTED_EDGE('',*,*,#446,.F.);
#169=ORIENTED_EDGE('',*,*,#441,.T.);
#170=ORIENTED_EDGE('',*,*,#447,.F.);
#171=ORIENTED_EDGE('',*,*,#448,.F.);
#172=ORIENTED_EDGE('',*,*,#449,.T.);
#173=ORIENTED_EDGE('',*,*,#445,.T.);
#174=ORIENTED_EDGE('',*,*,#450,.T.);
#175=ORIENTED_EDGE('',*,*,#451,.F.);
#176=ORIENTED_EDGE('',*,*,#452,.F.);
#177=ORIENTED_EDGE('',*,*,#448,.T.);
#178=ORIENTED_EDGE('',*,*,#453,.F.);
#179=ORIENTED_EDGE('',*,*,#454,.F.);
#180=ORIENTED_EDGE('',*,*,#455,.T.);
#181=ORIENTED_EDGE('',*,*,#451,.T.);
#182=ORIENTED_EDGE('',*,*,#456,.F.);
#183=ORIENTED_EDGE('',*,*,#457,.F.);
#184=ORIENTED_EDGE('',*,*,#458,.T.);
#185=ORIENTED_EDGE('',*,*,#454,.T.);
#186=ORIENTED_EDGE('',*,*,#459,.F.);
#187=ORIENTED_EDGE('',*,*,#460,.F.);
#188=ORIENTED_EDGE('',*,*,#461,.T.);
#189=ORIENTED_EDGE('',*,*,#457,.T.);
#190=ORIENTED_EDGE('',*,*,#462,.F.);
#191=ORIENTED_EDGE('',*,*,#463,.F.);
#192=ORIENTED_EDGE('',*,*,#464,.T.);
#193=ORIENTED_EDGE('',*,*,#465,.T.);
#194=ORIENTED_EDGE('',*,*,#466,.T.);
#195=ORIENTED_EDGE('',*,*,#467,.F.);
#196=ORIENTED_EDGE('',*,*,#468,.F.);
#197=ORIENTED_EDGE('',*,*,#463,.T.);
#198=ORIENTED_EDGE('',*,*,#469,.F.);
#199=ORIENTED_EDGE('',*,*,#470,.F.);
#200=ORIENTED_EDGE('',*,*,#471,.T.);
#201=ORIENTED_EDGE('',*,*,#467,.T.);
#202=ORIENTED_EDGE('',*,*,#472,.T.);
#203=ORIENTED_EDGE('',*,*,#473,.F.);
#204=ORIENTED_EDGE('',*,*,#474,.F.);
#205=ORIENTED_EDGE('',*,*,#470,.T.);
#206=ORIENTED_EDGE('',*,*,#475,.F.);
#207=ORIENTED_EDGE('',*,*,#476,.F.);
#208=ORIENTED_EDGE('',*,*,#477,.T.);
#209=ORIENTED_EDGE('',*,*,#473,.T.);
#210=ORIENTED_EDGE('',*,*,#478,.F.);
#211=ORIENTED_EDGE('',*,*,#479,.F.);
#212=ORIENTED_EDGE('',*,*,#480,.T.);
#213=ORIENTED_EDGE('',*,*,#476,.T.);
#214=ORIENTED_EDGE('',*,*,#481,.F.);
#215=ORIENTED_EDGE('',*,*,#482,.F.);
#216=ORIENTED_EDGE('',*,*,#483,.T.);
#217=ORIENTED_EDGE('',*,*,#479,.T.);
#218=ORIENTED_EDGE('',*,*,#484,.F.);
#219=ORIENTED_EDGE('',*,*,#485,.F.);
#220=ORIENTED_EDGE('',*,*,#486,.T.);
#221=ORIENTED_EDGE('',*,*,#487,.T.);
#222=ORIENTED_EDGE('',*,*,#488,.T.);
#223=ORIENTED_EDGE('',*,*,#489,.F.);
#224=ORIENTED_EDGE('',*,*,#490,.F.);
#225=ORIENTED_EDGE('',*,*,#485,.T.);
#226=ORIENTED_EDGE('',*,*,#491,.F.);
#227=ORIENTED_EDGE('',*,*,#492,.F.);
#228=ORIENTED_EDGE('',*,*,#493,.T.);
#229=ORIENTED_EDGE('',*,*,#489,.T.);
#230=ORIENTED_EDGE('',*,*,#494,.T.);
#231=ORIENTED_EDGE('',*,*,#495,.F.);
#232=ORIENTED_EDGE('',*,*,#496,.F.);
#233=ORIENTED_EDGE('',*,*,#492,.T.);
#234=ORIENTED_EDGE('',*,*,#497,.F.);
#235=ORIENTED_EDGE('',*,*,#498,.F.);
#236=ORIENTED_EDGE('',*,*,#499,.T.);
#237=ORIENTED_EDGE('',*,*,#495,.T.);
#238=ORIENTED_EDGE('',*,*,#500,.F.);
#239=ORIENTED_EDGE('',*,*,#501,.F.);
#240=ORIENTED_EDGE('',*,*,#502,.T.);
#241=ORIENTED_EDGE('',*,*,#498,.T.);
#242=ORIENTED_EDGE('',*,*,#503,.F.);
#243=ORIENTED_EDGE('',*,*,#504,.F.);
#244=ORIENTED_EDGE('',*,*,#505,.T.);
#245=ORIENTED_EDGE('',*,*,#501,.T.);
#246=ORIENTED_EDGE('',*,*,#506,.F.);
#247=ORIENTED_EDGE('',*,*,#443,.F.);
#248=ORIENTED_EDGE('',*,*,#507,.T.);
#249=ORIENTED_EDGE('',*,*,#460,.T.);
#250=ORIENTED_EDGE('',*,*,#508,.F.);
#251=ORIENTED_EDGE('',*,*,#465,.F.);
#252=ORIENTED_EDGE('',*,*,#509,.T.);
#253=ORIENTED_EDGE('',*,*,#482,.T.);
#254=ORIENTED_EDGE('',*,*,#510,.F.);
#255=ORIENTED_EDGE('',*,*,#487,.F.);
#256=ORIENTED_EDGE('',*,*,#511,.T.);
#257=ORIENTED_EDGE('',*,*,#504,.T.);
#258=ORIENTED_EDGE('',*,*,#512,.F.);
#259=ORIENTED_EDGE('',*,*,#421,.F.);
#260=ORIENTED_EDGE('',*,*,#513,.T.);
#261=ORIENTED_EDGE('',*,*,#438,.T.);
#262=ORIENTED_EDGE('',*,*,#380,.F.);
#263=ORIENTED_EDGE('',*,*,#402,.T.);
#264=ORIENTED_EDGE('',*,*,#405,.T.);
#265=ORIENTED_EDGE('',*,*,#415,.F.);
#266=ORIENTED_EDGE('',*,*,#413,.F.);
#267=ORIENTED_EDGE('',*,*,#411,.F.);
#268=ORIENTED_EDGE('',*,*,#409,.F.);
#269=ORIENTED_EDGE('',*,*,#407,.F.);
#270=ORIENTED_EDGE('',*,*,#486,.F.);
#271=ORIENTED_EDGE('',*,*,#490,.T.);
#272=ORIENTED_EDGE('',*,*,#493,.F.);
#273=ORIENTED_EDGE('',*,*,#496,.T.);
#274=ORIENTED_EDGE('',*,*,#499,.F.);
#275=ORIENTED_EDGE('',*,*,#502,.F.);
#276=ORIENTED_EDGE('',*,*,#505,.F.);
#277=ORIENTED_EDGE('',*,*,#511,.F.);
#278=ORIENTED_EDGE('',*,*,#464,.F.);
#279=ORIENTED_EDGE('',*,*,#468,.T.);
#280=ORIENTED_EDGE('',*,*,#471,.F.);
#281=ORIENTED_EDGE('',*,*,#474,.T.);
#282=ORIENTED_EDGE('',*,*,#477,.F.);
#283=ORIENTED_EDGE('',*,*,#480,.F.);
#284=ORIENTED_EDGE('',*,*,#483,.F.);
#285=ORIENTED_EDGE('',*,*,#509,.F.);
#286=ORIENTED_EDGE('',*,*,#442,.F.);
#287=ORIENTED_EDGE('',*,*,#446,.T.);
#288=ORIENTED_EDGE('',*,*,#449,.F.);
#289=ORIENTED_EDGE('',*,*,#452,.T.);
#290=ORIENTED_EDGE('',*,*,#455,.F.);
#291=ORIENTED_EDGE('',*,*,#458,.F.);
#292=ORIENTED_EDGE('',*,*,#461,.F.);
#293=ORIENTED_EDGE('',*,*,#507,.F.);
#294=ORIENTED_EDGE('',*,*,#420,.F.);
#295=ORIENTED_EDGE('',*,*,#424,.T.);
#296=ORIENTED_EDGE('',*,*,#427,.F.);
#297=ORIENTED_EDGE('',*,*,#430,.T.);
#298=ORIENTED_EDGE('',*,*,#433,.F.);
#299=ORIENTED_EDGE('',*,*,#436,.F.);
#300=ORIENTED_EDGE('',*,*,#439,.F.);
#301=ORIENTED_EDGE('',*,*,#513,.F.);
#302=ORIENTED_EDGE('',*,*,#394,.T.);
#303=ORIENTED_EDGE('',*,*,#514,.T.);
#304=ORIENTED_EDGE('',*,*,#383,.F.);
#305=ORIENTED_EDGE('',*,*,#515,.F.);
#306=ORIENTED_EDGE('',*,*,#390,.T.);
#307=ORIENTED_EDGE('',*,*,#399,.T.);
#308=ORIENTED_EDGE('',*,*,#417,.F.);
#309=ORIENTED_EDGE('',*,*,#388,.F.);
#310=ORIENTED_EDGE('',*,*,#469,.T.);
#311=ORIENTED_EDGE('',*,*,#466,.F.);
#312=ORIENTED_EDGE('',*,*,#462,.T.);
#313=ORIENTED_EDGE('',*,*,#508,.T.);
#314=ORIENTED_EDGE('',*,*,#481,.T.);
#315=ORIENTED_EDGE('',*,*,#478,.T.);
#316=ORIENTED_EDGE('',*,*,#475,.T.);
#317=ORIENTED_EDGE('',*,*,#472,.F.);
#318=ORIENTED_EDGE('',*,*,#418,.T.);
#319=ORIENTED_EDGE('',*,*,#512,.T.);
#320=ORIENTED_EDGE('',*,*,#437,.T.);
#321=ORIENTED_EDGE('',*,*,#434,.T.);
#322=ORIENTED_EDGE('',*,*,#431,.T.);
#323=ORIENTED_EDGE('',*,*,#428,.F.);
#324=ORIENTED_EDGE('',*,*,#425,.T.);
#325=ORIENTED_EDGE('',*,*,#422,.F.);
#326=ORIENTED_EDGE('',*,*,#440,.T.);
#327=ORIENTED_EDGE('',*,*,#506,.T.);
#328=ORIENTED_EDGE('',*,*,#459,.T.);
#329=ORIENTED_EDGE('',*,*,#456,.T.);
#330=ORIENTED_EDGE('',*,*,#453,.T.);
#331=ORIENTED_EDGE('',*,*,#450,.F.);
#332=ORIENTED_EDGE('',*,*,#447,.T.);
#333=ORIENTED_EDGE('',*,*,#444,.F.);
#334=ORIENTED_EDGE('',*,*,#484,.T.);
#335=ORIENTED_EDGE('',*,*,#510,.T.);
#336=ORIENTED_EDGE('',*,*,#503,.T.);
#337=ORIENTED_EDGE('',*,*,#500,.T.);
#338=ORIENTED_EDGE('',*,*,#497,.T.);
#339=ORIENTED_EDGE('',*,*,#494,.F.);
#340=ORIENTED_EDGE('',*,*,#491,.T.);
#341=ORIENTED_EDGE('',*,*,#488,.F.);
#342=ORIENTED_EDGE('',*,*,#515,.T.);
#343=ORIENTED_EDGE('',*,*,#382,.T.);
#344=ORIENTED_EDGE('',*,*,#516,.F.);
#345=ORIENTED_EDGE('',*,*,#391,.F.);
#346=ORIENTED_EDGE('',*,*,#516,.T.);
#347=ORIENTED_EDGE('',*,*,#385,.T.);
#348=ORIENTED_EDGE('',*,*,#517,.F.);
#349=ORIENTED_EDGE('',*,*,#392,.F.);
#350=ORIENTED_EDGE('',*,*,#393,.T.);
#351=ORIENTED_EDGE('',*,*,#517,.T.);
#352=ORIENTED_EDGE('',*,*,#384,.F.);
#353=ORIENTED_EDGE('',*,*,#514,.F.);
#354=ORIENTED_EDGE('',*,*,#518,.F.);
#355=ORIENTED_EDGE('',*,*,#519,.F.);
#356=ORIENTED_EDGE('',*,*,#520,.T.);
#357=ORIENTED_EDGE('',*,*,#521,.T.);
#358=ORIENTED_EDGE('',*,*,#522,.T.);
#359=ORIENTED_EDGE('',*,*,#523,.F.);
#360=ORIENTED_EDGE('',*,*,#524,.F.);
#361=ORIENTED_EDGE('',*,*,#519,.T.);
#362=ORIENTED_EDGE('',*,*,#525,.T.);
#363=ORIENTED_EDGE('',*,*,#526,.F.);
#364=ORIENTED_EDGE('',*,*,#527,.F.);
#365=ORIENTED_EDGE('',*,*,#523,.T.);
#366=ORIENTED_EDGE('',*,*,#528,.F.);
#367=ORIENTED_EDGE('',*,*,#521,.F.);
#368=ORIENTED_EDGE('',*,*,#529,.T.);
#369=ORIENTED_EDGE('',*,*,#526,.T.);
#370=ORIENTED_EDGE('',*,*,#520,.F.);
#371=ORIENTED_EDGE('',*,*,#524,.T.);
#372=ORIENTED_EDGE('',*,*,#527,.T.);
#373=ORIENTED_EDGE('',*,*,#529,.F.);
#374=ORIENTED_EDGE('',*,*,#518,.T.);
#375=ORIENTED_EDGE('',*,*,#528,.T.);
#376=ORIENTED_EDGE('',*,*,#525,.F.);
#377=ORIENTED_EDGE('',*,*,#522,.F.);
#378=EDGE_CURVE('',#530,#531,#634,.T.);
#379=EDGE_CURVE('',#532,#530,#635,.T.);
#380=EDGE_CURVE('',#532,#533,#636,.T.);
#381=EDGE_CURVE('',#533,#531,#637,.T.);
#382=EDGE_CURVE('',#534,#535,#638,.T.);
#383=EDGE_CURVE('',#534,#536,#639,.T.);
#384=EDGE_CURVE('',#536,#537,#640,.T.);
#385=EDGE_CURVE('',#535,#537,#641,.T.);
#386=EDGE_CURVE('',#538,#539,#642,.T.);
#387=EDGE_CURVE('',#540,#538,#643,.T.);
#388=EDGE_CURVE('',#540,#541,#644,.T.);
#389=EDGE_CURVE('',#541,#539,#645,.T.);
#390=EDGE_CURVE('',#542,#543,#646,.T.);
#391=EDGE_CURVE('',#542,#544,#647,.T.);
#392=EDGE_CURVE('',#544,#545,#648,.T.);
#393=EDGE_CURVE('',#546,#545,#649,.T.);
#394=EDGE_CURVE('',#540,#546,#650,.T.);
#395=EDGE_CURVE('',#538,#547,#651,.T.);
#396=EDGE_CURVE('',#543,#547,#652,.T.);
#397=EDGE_CURVE('',#547,#548,#653,.T.);
#398=EDGE_CURVE('',#549,#548,#654,.T.);
#399=EDGE_CURVE('',#543,#549,#655,.T.);
#400=EDGE_CURVE('',#530,#550,#656,.T.);
#401=EDGE_CURVE('',#551,#550,#657,.T.);
#402=EDGE_CURVE('',#532,#551,#658,.T.);
#403=EDGE_CURVE('',#550,#552,#659,.T.);
#404=EDGE_CURVE('',#553,#552,#660,.T.);
#405=EDGE_CURVE('',#551,#553,#661,.T.);
#406=EDGE_CURVE('',#554,#554,#14,.T.);
#407=EDGE_CURVE('',#555,#555,#15,.T.);
#408=EDGE_CURVE('',#556,#556,#16,.T.);
#409=EDGE_CURVE('',#557,#557,#17,.T.);
#410=EDGE_CURVE('',#558,#558,#18,.T.);
#411=EDGE_CURVE('',#559,#559,#19,.T.);
#412=EDGE_CURVE('',#560,#560,#20,.T.);
#413=EDGE_CURVE('',#561,#561,#21,.T.);
#414=EDGE_CURVE('',#531,#552,#662,.T.);
#415=EDGE_CURVE('',#533,#553,#663,.T.);
#416=EDGE_CURVE('',#539,#548,#664,.T.);
#417=EDGE_CURVE('',#541,#549,#665,.T.);
#418=EDGE_CURVE('',#562,#563,#22,.T.);
#419=EDGE_CURVE('',#564,#562,#666,.T.);
#420=EDGE_CURVE('',#564,#565,#23,.T.);
#421=EDGE_CURVE('',#565,#563,#667,.T.);
#422=EDGE_CURVE('',#562,#566,#668,.T.);
#423=EDGE_CURVE('',#567,#566,#669,.T.);
#424=EDGE_CURVE('',#564,#567,#670,.T.);
#425=EDGE_CURVE('',#568,#566,#24,.T.);
#426=EDGE_CURVE('',#569,#568,#671,.T.);
#427=EDGE_CURVE('',#569,#567,#25,.T.);
#428=EDGE_CURVE('',#568,#570,#672,.T.);
#429=EDGE_CURVE('',#571,#570,#673,.T.);
#430=EDGE_CURVE('',#569,#571,#674,.T.);
#431=EDGE_CURVE('',#572,#570,#26,.T.);
#432=EDGE_CURVE('',#573,#572,#675,.T.);
#433=EDGE_CURVE('',#573,#571,#27,.T.);
#434=EDGE_CURVE('',#574,#572,#676,.T.);
#435=EDGE_CURVE('',#575,#574,#677,.T.);
#436=EDGE_CURVE('',#575,#573,#678,.T.);
#437=EDGE_CURVE('',#576,#574,#28,.T.);
#438=EDGE_CURVE('',#577,#576,#679,.T.);
#439=EDGE_CURVE('',#577,#575,#29,.T.);
#440=EDGE_CURVE('',#578,#579,#30,.T.);
#441=EDGE_CURVE('',#580,#578,#680,.T.);
#442=EDGE_CURVE('',#580,#581,#31,.T.);
#443=EDGE_CURVE('',#581,#579,#681,.T.);
#444=EDGE_CURVE('',#578,#582,#682,.T.);
#445=EDGE_CURVE('',#583,#582,#683,.T.);
#446=EDGE_CURVE('',#580,#583,#684,.T.);
#447=EDGE_CURVE('',#584,#582,#32,.T.);
#448=EDGE_CURVE('',#585,#584,#685,.T.);
#449=EDGE_CURVE('',#585,#583,#33,.T.);
#450=EDGE_CURVE('',#584,#586,#686,.T.);
#451=EDGE_CURVE('',#587,#586,#687,.T.);
#452=EDGE_CURVE('',#585,#587,#688,.T.);
#453=EDGE_CURVE('',#588,#586,#34,.T.);
#454=EDGE_CURVE('',#589,#588,#689,.T.);
#455=EDGE_CURVE('',#589,#587,#35,.T.);
#456=EDGE_CURVE('',#590,#588,#690,.T.);
#457=EDGE_CURVE('',#591,#590,#691,.T.);
#458=EDGE_CURVE('',#591,#589,#692,.T.);
#459=EDGE_CURVE('',#592,#590,#36,.T.);
#460=EDGE_CURVE('',#593,#592,#693,.T.);
#461=EDGE_CURVE('',#593,#591,#37,.T.);
#462=EDGE_CURVE('',#594,#595,#38,.T.);
#463=EDGE_CURVE('',#596,#594,#694,.T.);
#464=EDGE_CURVE('',#596,#597,#39,.T.);
#465=EDGE_CURVE('',#597,#595,#695,.T.);
#466=EDGE_CURVE('',#594,#598,#696,.T.);
#467=EDGE_CURVE('',#599,#598,#697,.T.);
#468=EDGE_CURVE('',#596,#599,#698,.T.);
#469=EDGE_CURVE('',#600,#598,#40,.T.);
#470=EDGE_CURVE('',#601,#600,#699,.T.);
#471=EDGE_CURVE('',#601,#599,#41,.T.);
#472=EDGE_CURVE('',#600,#602,#700,.T.);
#473=EDGE_CURVE('',#603,#602,#701,.T.);
#474=EDGE_CURVE('',#601,#603,#702,.T.);
#475=EDGE_CURVE('',#604,#602,#42,.T.);
#476=EDGE_CURVE('',#605,#604,#703,.T.);
#477=EDGE_CURVE('',#605,#603,#43,.T.);
#478=EDGE_CURVE('',#606,#604,#704,.T.);
#479=EDGE_CURVE('',#607,#606,#705,.T.);
#480=EDGE_CURVE('',#607,#605,#706,.T.);
#481=EDGE_CURVE('',#608,#606,#44,.T.);
#482=EDGE_CURVE('',#609,#608,#707,.T.);
#483=EDGE_CURVE('',#609,#607,#45,.T.);
#484=EDGE_CURVE('',#610,#611,#46,.T.);
#485=EDGE_CURVE('',#612,#610,#708,.T.);
#486=EDGE_CURVE('',#612,#613,#47,.T.);
#487=EDGE_CURVE('',#613,#611,#709,.T.);
#488=EDGE_CURVE('',#610,#614,#710,.T.);
#489=EDGE_CURVE('',#615,#614,#711,.T.);
#490=EDGE_CURVE('',#612,#615,#712,.T.);
#491=EDGE_CURVE('',#616,#614,#48,.T.);
#492=EDGE_CURVE('',#617,#616,#713,.T.);
#493=EDGE_CURVE('',#617,#615,#49,.T.);
#494=EDGE_CURVE('',#616,#618,#714,.T.);
#495=EDGE_CURVE('',#619,#618,#715,.T.);
#496=EDGE_CURVE('',#617,#619,#716,.T.);
#497=EDGE_CURVE('',#620,#618,#50,.T.);
#498=EDGE_CURVE('',#621,#620,#717,.T.);
#499=EDGE_CURVE('',#621,#619,#51,.T.);
#500=EDGE_CURVE('',#622,#620,#718,.T.);
#501=EDGE_CURVE('',#623,#622,#719,.T.);
#502=EDGE_CURVE('',#623,#621,#720,.T.);
#503=EDGE_CURVE('',#624,#622,#52,.T.);
#504=EDGE_CURVE('',#625,#624,#721,.T.);
#505=EDGE_CURVE('',#625,#623,#53,.T.);
#506=EDGE_CURVE('',#579,#592,#722,.T.);
#507=EDGE_CURVE('',#581,#593,#723,.T.);
#508=EDGE_CURVE('',#595,#608,#724,.T.);
#509=EDGE_CURVE('',#597,#609,#725,.T.);
#510=EDGE_CURVE('',#611,#624,#726,.T.);
#511=EDGE_CURVE('',#613,#625,#727,.T.);
#512=EDGE_CURVE('',#563,#576,#728,.T.);
#513=EDGE_CURVE('',#565,#577,#729,.T.);
#514=EDGE_CURVE('',#546,#536,#730,.T.);
#515=EDGE_CURVE('',#542,#534,#731,.T.);
#516=EDGE_CURVE('',#544,#535,#732,.T.);
#517=EDGE_CURVE('',#545,#537,#733,.T.);
#518=EDGE_CURVE('',#626,#627,#734,.T.);
#519=EDGE_CURVE('',#628,#626,#735,.T.);
#520=EDGE_CURVE('',#628,#629,#736,.T.);
#521=EDGE_CURVE('',#629,#627,#737,.T.);
#522=EDGE_CURVE('',#626,#630,#738,.T.);
#523=EDGE_CURVE('',#631,#630,#739,.T.);
#524=EDGE_CURVE('',#628,#631,#740,.T.);
#525=EDGE_CURVE('',#630,#632,#741,.T.);
#526=EDGE_CURVE('',#633,#632,#742,.T.);
#527=EDGE_CURVE('',#631,#633,#743,.T.);
#528=EDGE_CURVE('',#627,#632,#744,.T.);
#529=EDGE_CURVE('',#629,#633,#745,.T.);
#530=VERTEX_POINT('',#1876);
#531=VERTEX_POINT('',#1877);
#532=VERTEX_POINT('',#1879);
#533=VERTEX_POINT('',#1881);
#534=VERTEX_POINT('',#1884);
#535=VERTEX_POINT('',#1885);
#536=VERTEX_POINT('',#1887);
#537=VERTEX_POINT('',#1889);
#538=VERTEX_POINT('',#1893);
#539=VERTEX_POINT('',#1894);
#540=VERTEX_POINT('',#1896);
#541=VERTEX_POINT('',#1898);
#542=VERTEX_POINT('',#1902);
#543=VERTEX_POINT('',#1903);
#544=VERTEX_POINT('',#1905);
#545=VERTEX_POINT('',#1907);
#546=VERTEX_POINT('',#1909);
#547=VERTEX_POINT('',#1912);
#548=VERTEX_POINT('',#1916);
#549=VERTEX_POINT('',#1918);
#550=VERTEX_POINT('',#1922);
#551=VERTEX_POINT('',#1924);
#552=VERTEX_POINT('',#1928);
#553=VERTEX_POINT('',#1930);
#554=VERTEX_POINT('',#1934);
#555=VERTEX_POINT('',#1936);
#556=VERTEX_POINT('',#1939);
#557=VERTEX_POINT('',#1941);
#558=VERTEX_POINT('',#1944);
#559=VERTEX_POINT('',#1946);
#560=VERTEX_POINT('',#1949);
#561=VERTEX_POINT('',#1951);
#562=VERTEX_POINT('',#1961);
#563=VERTEX_POINT('',#1962);
#564=VERTEX_POINT('',#1964);
#565=VERTEX_POINT('',#1966);
#566=VERTEX_POINT('',#1970);
#567=VERTEX_POINT('',#1972);
#568=VERTEX_POINT('',#1976);
#569=VERTEX_POINT('',#1978);
#570=VERTEX_POINT('',#1982);
#571=VERTEX_POINT('',#1984);
#572=VERTEX_POINT('',#1988);
#573=VERTEX_POINT('',#1990);
#574=VERTEX_POINT('',#1994);
#575=VERTEX_POINT('',#1996);
#576=VERTEX_POINT('',#2000);
#577=VERTEX_POINT('',#2002);
#578=VERTEX_POINT('',#2006);
#579=VERTEX_POINT('',#2007);
#580=VERTEX_POINT('',#2009);
#581=VERTEX_POINT('',#2011);
#582=VERTEX_POINT('',#2015);
#583=VERTEX_POINT('',#2017);
#584=VERTEX_POINT('',#2021);
#585=VERTEX_POINT('',#2023);
#586=VERTEX_POINT('',#2027);
#587=VERTEX_POINT('',#2029);
#588=VERTEX_POINT('',#2033);
#589=VERTEX_POINT('',#2035);
#590=VERTEX_POINT('',#2039);
#591=VERTEX_POINT('',#2041);
#592=VERTEX_POINT('',#2045);
#593=VERTEX_POINT('',#2047);
#594=VERTEX_POINT('',#2051);
#595=VERTEX_POINT('',#2052);
#596=VERTEX_POINT('',#2054);
#597=VERTEX_POINT('',#2056);
#598=VERTEX_POINT('',#2060);
#599=VERTEX_POINT('',#2062);
#600=VERTEX_POINT('',#2066);
#601=VERTEX_POINT('',#2068);
#602=VERTEX_POINT('',#2072);
#603=VERTEX_POINT('',#2074);
#604=VERTEX_POINT('',#2078);
#605=VERTEX_POINT('',#2080);
#606=VERTEX_POINT('',#2084);
#607=VERTEX_POINT('',#2086);
#608=VERTEX_POINT('',#2090);
#609=VERTEX_POINT('',#2092);
#610=VERTEX_POINT('',#2096);
#611=VERTEX_POINT('',#2097);
#612=VERTEX_POINT('',#2099);
#613=VERTEX_POINT('',#2101);
#614=VERTEX_POINT('',#2105);
#615=VERTEX_POINT('',#2107);
#616=VERTEX_POINT('',#2111);
#617=VERTEX_POINT('',#2113);
#618=VERTEX_POINT('',#2117);
#619=VERTEX_POINT('',#2119);
#620=VERTEX_POINT('',#2123);
#621=VERTEX_POINT('',#2125);
#622=VERTEX_POINT('',#2129);
#623=VERTEX_POINT('',#2131);
#624=VERTEX_POINT('',#2135);
#625=VERTEX_POINT('',#2137);
#626=VERTEX_POINT('',#2163);
#627=VERTEX_POINT('',#2164);
#628=VERTEX_POINT('',#2166);
#629=VERTEX_POINT('',#2168);
#630=VERTEX_POINT('',#2172);
#631=VERTEX_POINT('',#2174);
#632=VERTEX_POINT('',#2178);
#633=VERTEX_POINT('',#2180);
#634=LINE('',#1875,#746);
#635=LINE('',#1878,#747);
#636=LINE('',#1880,#748);
#637=LINE('',#1882,#749);
#638=LINE('',#1883,#750);
#639=LINE('',#1886,#751);
#640=LINE('',#1888,#752);
#641=LINE('',#1890,#753);
#642=LINE('',#1892,#754);
#643=LINE('',#1895,#755);
#644=LINE('',#1897,#756);
#645=LINE('',#1899,#757);
#646=LINE('',#1901,#758);
#647=LINE('',#1904,#759);
#648=LINE('',#1906,#760);
#649=LINE('',#1908,#761);
#650=LINE('',#1910,#762);
#651=LINE('',#1911,#763);
#652=LINE('',#1913,#764);
#653=LINE('',#1915,#765);
#654=LINE('',#1917,#766);
#655=LINE('',#1919,#767);
#656=LINE('',#1921,#768);
#657=LINE('',#1923,#769);
#658=LINE('',#1925,#770);
#659=LINE('',#1927,#771);
#660=LINE('',#1929,#772);
#661=LINE('',#1931,#773);
#662=LINE('',#1953,#774);
#663=LINE('',#1954,#775);
#664=LINE('',#1956,#776);
#665=LINE('',#1957,#777);
#666=LINE('',#1963,#778);
#667=LINE('',#1967,#779);
#668=LINE('',#1969,#780);
#669=LINE('',#1971,#781);
#670=LINE('',#1973,#782);
#671=LINE('',#1977,#783);
#672=LINE('',#1981,#784);
#673=LINE('',#1983,#785);
#674=LINE('',#1985,#786);
#675=LINE('',#1989,#787);
#676=LINE('',#1993,#788);
#677=LINE('',#1995,#789);
#678=LINE('',#1997,#790);
#679=LINE('',#2001,#791);
#680=LINE('',#2008,#792);
#681=LINE('',#2012,#793);
#682=LINE('',#2014,#794);
#683=LINE('',#2016,#795);
#684=LINE('',#2018,#796);
#685=LINE('',#2022,#797);
#686=LINE('',#2026,#798);
#687=LINE('',#2028,#799);
#688=LINE('',#2030,#800);
#689=LINE('',#2034,#801);
#690=LINE('',#2038,#802);
#691=LINE('',#2040,#803);
#692=LINE('',#2042,#804);
#693=LINE('',#2046,#805);
#694=LINE('',#2053,#806);
#695=LINE('',#2057,#807);
#696=LINE('',#2059,#808);
#697=LINE('',#2061,#809);
#698=LINE('',#2063,#810);
#699=LINE('',#2067,#811);
#700=LINE('',#2071,#812);
#701=LINE('',#2073,#813);
#702=LINE('',#2075,#814);
#703=LINE('',#2079,#815);
#704=LINE('',#2083,#816);
#705=LINE('',#2085,#817);
#706=LINE('',#2087,#818);
#707=LINE('',#2091,#819);
#708=LINE('',#2098,#820);
#709=LINE('',#2102,#821);
#710=LINE('',#2104,#822);
#711=LINE('',#2106,#823);
#712=LINE('',#2108,#824);
#713=LINE('',#2112,#825);
#714=LINE('',#2116,#826);
#715=LINE('',#2118,#827);
#716=LINE('',#2120,#828);
#717=LINE('',#2124,#829);
#718=LINE('',#2128,#830);
#719=LINE('',#2130,#831);
#720=LINE('',#2132,#832);
#721=LINE('',#2136,#833);
#722=LINE('',#2140,#834);
#723=LINE('',#2141,#835);
#724=LINE('',#2143,#836);
#725=LINE('',#2144,#837);
#726=LINE('',#2146,#838);
#727=LINE('',#2147,#839);
#728=LINE('',#2149,#840);
#729=LINE('',#2150,#841);
#730=LINE('',#2153,#842);
#731=LINE('',#2154,#843);
#732=LINE('',#2156,#844);
#733=LINE('',#2158,#845);
#734=LINE('',#2162,#846);
#735=LINE('',#2165,#847);
#736=LINE('',#2167,#848);
#737=LINE('',#2169,#849);
#738=LINE('',#2171,#850);
#739=LINE('',#2173,#851);
#740=LINE('',#2175,#852);
#741=LINE('',#2177,#853);
#742=LINE('',#2179,#854);
#743=LINE('',#2181,#855);
#744=LINE('',#2183,#856);
#745=LINE('',#2184,#857);
#746=VECTOR('',#1569,1.);
#747=VECTOR('',#1570,1.);
#748=VECTOR('',#1571,1.);
#749=VECTOR('',#1572,1.);
#750=VECTOR('',#1573,1.);
#751=VECTOR('',#1574,1.);
#752=VECTOR('',#1575,1.);
#753=VECTOR('',#1576,1.);
#754=VECTOR('',#1579,1.);
#755=VECTOR('',#1580,1.);
#756=VECTOR('',#1581,1.);
#757=VECTOR('',#1582,1.);
#758=VECTOR('',#1585,1.);
#759=VECTOR('',#1586,1.);
#760=VECTOR('',#1587,1.);
#761=VECTOR('',#1588,1.);
#762=VECTOR('',#1589,1.);
#763=VECTOR('',#1590,1.);
#764=VECTOR('',#1591,1.);
#765=VECTOR('',#1594,1.);
#766=VECTOR('',#1595,1.);
#767=VECTOR('',#1596,1.);
#768=VECTOR('',#1599,1.);
#769=VECTOR('',#1600,1.);
#770=VECTOR('',#1601,1.);
#771=VECTOR('',#1604,1.);
#772=VECTOR('',#1605,1.);
#773=VECTOR('',#1606,1.);
#774=VECTOR('',#1633,1.);
#775=VECTOR('',#1634,1.);
#776=VECTOR('',#1637,1.);
#777=VECTOR('',#1638,1.);
#778=VECTOR('',#1645,1.);
#779=VECTOR('',#1648,1.);
#780=VECTOR('',#1651,1.);
#781=VECTOR('',#1652,1.);
#782=VECTOR('',#1653,1.);
#783=VECTOR('',#1658,1.);
#784=VECTOR('',#1663,1.);
#785=VECTOR('',#1664,1.);
#786=VECTOR('',#1665,1.);
#787=VECTOR('',#1670,1.);
#788=VECTOR('',#1675,1.);
#789=VECTOR('',#1676,1.);
#790=VECTOR('',#1677,1.);
#791=VECTOR('',#1682,1.);
#792=VECTOR('',#1689,1.);
#793=VECTOR('',#1692,1.);
#794=VECTOR('',#1695,1.);
#795=VECTOR('',#1696,1.);
#796=VECTOR('',#1697,1.);
#797=VECTOR('',#1702,1.);
#798=VECTOR('',#1707,1.);
#799=VECTOR('',#1708,1.);
#800=VECTOR('',#1709,1.);
#801=VECTOR('',#1714,1.);
#802=VECTOR('',#1719,1.);
#803=VECTOR('',#1720,1.);
#804=VECTOR('',#1721,1.);
#805=VECTOR('',#1726,1.);
#806=VECTOR('',#1733,1.);
#807=VECTOR('',#1736,1.);
#808=VECTOR('',#1739,1.);
#809=VECTOR('',#1740,1.);
#810=VECTOR('',#1741,1.);
#811=VECTOR('',#1746,1.);
#812=VECTOR('',#1751,1.);
#813=VECTOR('',#1752,1.);
#814=VECTOR('',#1753,1.);
#815=VECTOR('',#1758,1.);
#816=VECTOR('',#1763,1.);
#817=VECTOR('',#1764,1.);
#818=VECTOR('',#1765,1.);
#819=VECTOR('',#1770,1.);
#820=VECTOR('',#1777,1.);
#821=VECTOR('',#1780,1.);
#822=VECTOR('',#1783,1.);
#823=VECTOR('',#1784,1.);
#824=VECTOR('',#1785,1.);
#825=VECTOR('',#1790,1.);
#826=VECTOR('',#1795,1.);
#827=VECTOR('',#1796,1.);
#828=VECTOR('',#1797,1.);
#829=VECTOR('',#1802,1.);
#830=VECTOR('',#1807,1.);
#831=VECTOR('',#1808,1.);
#832=VECTOR('',#1809,1.);
#833=VECTOR('',#1814,1.);
#834=VECTOR('',#1819,1.);
#835=VECTOR('',#1820,1.);
#836=VECTOR('',#1823,1.);
#837=VECTOR('',#1824,1.);
#838=VECTOR('',#1827,1.);
#839=VECTOR('',#1828,1.);
#840=VECTOR('',#1831,1.);
#841=VECTOR('',#1832,1.);
#842=VECTOR('',#1837,1.);
#843=VECTOR('',#1838,1.);
#844=VECTOR('',#1841,1.);
#845=VECTOR('',#1844,1.);
#846=VECTOR('',#1851,1.);
#847=VECTOR('',#1852,1.);
#848=VECTOR('',#1853,1.);
#849=VECTOR('',#1854,1.);
#850=VECTOR('',#1857,1.);
#851=VECTOR('',#1858,1.);
#852=VECTOR('',#1859,1.);
#853=VECTOR('',#1862,1.);
#854=VECTOR('',#1863,1.);
#855=VECTOR('',#1864,1.);
#856=VECTOR('',#1867,1.);
#857=VECTOR('',#1868,1.);
#858=EDGE_LOOP('',(#74,#75,#76,#77));
#859=EDGE_LOOP('',(#78,#79,#80,#81));
#860=EDGE_LOOP('',(#82,#83,#84,#85));
#861=EDGE_LOOP('',(#86,#87,#88,#89,#90,#91,#92,#93));
#862=EDGE_LOOP('',(#94,#95,#96,#97));
#863=EDGE_LOOP('',(#98,#99,#100,#101));
#864=EDGE_LOOP('',(#102,#103,#104,#105));
#865=EDGE_LOOP('',(#106));
#866=EDGE_LOOP('',(#107));
#867=EDGE_LOOP('',(#108));
#868=EDGE_LOOP('',(#109));
#869=EDGE_LOOP('',(#110));
#870=EDGE_LOOP('',(#111));
#871=EDGE_LOOP('',(#112));
#872=EDGE_LOOP('',(#113));
#873=EDGE_LOOP('',(#114,#115,#116,#117));
#874=EDGE_LOOP('',(#118,#119,#120,#121));
#875=EDGE_LOOP('',(#122,#123,#124,#125));
#876=EDGE_LOOP('',(#126));
#877=EDGE_LOOP('',(#127));
#878=EDGE_LOOP('',(#128));
#879=EDGE_LOOP('',(#129));
#880=EDGE_LOOP('',(#130,#131,#132,#133));
#881=EDGE_LOOP('',(#134,#135,#136,#137));
#882=EDGE_LOOP('',(#138,#139,#140,#141));
#883=EDGE_LOOP('',(#142,#143,#144,#145));
#884=EDGE_LOOP('',(#146,#147,#148,#149));
#885=EDGE_LOOP('',(#150,#151,#152,#153));
#886=EDGE_LOOP('',(#154,#155,#156,#157));
#887=EDGE_LOOP('',(#158,#159,#160,#161));
#888=EDGE_LOOP('',(#162,#163,#164,#165));
#889=EDGE_LOOP('',(#166,#167,#168,#169));
#890=EDGE_LOOP('',(#170,#171,#172,#173));
#891=EDGE_LOOP('',(#174,#175,#176,#177));
#892=EDGE_LOOP('',(#178,#179,#180,#181));
#893=EDGE_LOOP('',(#182,#183,#184,#185));
#894=EDGE_LOOP('',(#186,#187,#188,#189));
#895=EDGE_LOOP('',(#190,#191,#192,#193));
#896=EDGE_LOOP('',(#194,#195,#196,#197));
#897=EDGE_LOOP('',(#198,#199,#200,#201));
#898=EDGE_LOOP('',(#202,#203,#204,#205));
#899=EDGE_LOOP('',(#206,#207,#208,#209));
#900=EDGE_LOOP('',(#210,#211,#212,#213));
#901=EDGE_LOOP('',(#214,#215,#216,#217));
#902=EDGE_LOOP('',(#218,#219,#220,#221));
#903=EDGE_LOOP('',(#222,#223,#224,#225));
#904=EDGE_LOOP('',(#226,#227,#228,#229));
#905=EDGE_LOOP('',(#230,#231,#232,#233));
#906=EDGE_LOOP('',(#234,#235,#236,#237));
#907=EDGE_LOOP('',(#238,#239,#240,#241));
#908=EDGE_LOOP('',(#242,#243,#244,#245));
#909=EDGE_LOOP('',(#246,#247,#248,#249));
#910=EDGE_LOOP('',(#250,#251,#252,#253));
#911=EDGE_LOOP('',(#254,#255,#256,#257));
#912=EDGE_LOOP('',(#258,#259,#260,#261));
#913=EDGE_LOOP('',(#262,#263,#264,#265));
#914=EDGE_LOOP('',(#266));
#915=EDGE_LOOP('',(#267));
#916=EDGE_LOOP('',(#268));
#917=EDGE_LOOP('',(#269));
#918=EDGE_LOOP('',(#270,#271,#272,#273,#274,#275,#276,#277));
#919=EDGE_LOOP('',(#278,#279,#280,#281,#282,#283,#284,#285));
#920=EDGE_LOOP('',(#286,#287,#288,#289,#290,#291,#292,#293));
#921=EDGE_LOOP('',(#294,#295,#296,#297,#298,#299,#300,#301));
#922=EDGE_LOOP('',(#302,#303,#304,#305,#306,#307,#308,#309));
#923=EDGE_LOOP('',(#310,#311,#312,#313,#314,#315,#316,#317));
#924=EDGE_LOOP('',(#318,#319,#320,#321,#322,#323,#324,#325));
#925=EDGE_LOOP('',(#326,#327,#328,#329,#330,#331,#332,#333));
#926=EDGE_LOOP('',(#334,#335,#336,#337,#338,#339,#340,#341));
#927=EDGE_LOOP('',(#342,#343,#344,#345));
#928=EDGE_LOOP('',(#346,#347,#348,#349));
#929=EDGE_LOOP('',(#350,#351,#352,#353));
#930=EDGE_LOOP('',(#354,#355,#356,#357));
#931=EDGE_LOOP('',(#358,#359,#360,#361));
#932=EDGE_LOOP('',(#362,#363,#364,#365));
#933=EDGE_LOOP('',(#366,#367,#368,#369));
#934=EDGE_LOOP('',(#370,#371,#372,#373));
#935=EDGE_LOOP('',(#374,#375,#376,#377));
#936=FACE_BOUND('',#858,.T.);
#937=FACE_BOUND('',#859,.T.);
#938=FACE_BOUND('',#860,.T.);
#939=FACE_BOUND('',#861,.T.);
#940=FACE_BOUND('',#862,.T.);
#941=FACE_BOUND('',#863,.T.);
#942=FACE_BOUND('',#864,.T.);
#943=FACE_BOUND('',#865,.T.);
#944=FACE_BOUND('',#866,.T.);
#945=FACE_BOUND('',#867,.T.);
#946=FACE_BOUND('',#868,.T.);
#947=FACE_BOUND('',#869,.T.);
#948=FACE_BOUND('',#870,.T.);
#949=FACE_BOUND('',#871,.T.);
#950=FACE_BOUND('',#872,.T.);
#951=FACE_BOUND('',#873,.T.);
#952=FACE_BOUND('',#874,.T.);
#953=FACE_BOUND('',#875,.T.);
#954=FACE_BOUND('',#876,.T.);
#955=FACE_BOUND('',#877,.T.);
#956=FACE_BOUND('',#878,.T.);
#957=FACE_BOUND('',#879,.T.);
#958=FACE_BOUND('',#880,.T.);
#959=FACE_BOUND('',#881,.T.);
#960=FACE_BOUND('',#882,.T.);
#961=FACE_BOUND('',#883,.T.);
#962=FACE_BOUND('',#884,.T.);
#963=FACE_BOUND('',#885,.T.);
#964=FACE_BOUND('',#886,.T.);
#965=FACE_BOUND('',#887,.T.);
#966=FACE_BOUND('',#888,.T.);
#967=FACE_BOUND('',#889,.T.);
#968=FACE_BOUND('',#890,.T.);
#969=FACE_BOUND('',#891,.T.);
#970=FACE_BOUND('',#892,.T.);
#971=FACE_BOUND('',#893,.T.);
#972=FACE_BOUND('',#894,.T.);
#973=FACE_BOUND('',#895,.T.);
#974=FACE_BOUND('',#896,.T.);
#975=FACE_BOUND('',#897,.T.);
#976=FACE_BOUND('',#898,.T.);
#977=FACE_BOUND('',#899,.T.);
#978=FACE_BOUND('',#900,.T.);
#979=FACE_BOUND('',#901,.T.);
#980=FACE_BOUND('',#902,.T.);
#981=FACE_BOUND('',#903,.T.);
#982=FACE_BOUND('',#904,.T.);
#983=FACE_BOUND('',#905,.T.);
#984=FACE_BOUND('',#906,.T.);
#985=FACE_BOUND('',#907,.T.);
#986=FACE_BOUND('',#908,.T.);
#987=FACE_BOUND('',#909,.T.);
#988=FACE_BOUND('',#910,.T.);
#989=FACE_BOUND('',#911,.T.);
#990=FACE_BOUND('',#912,.T.);
#991=FACE_BOUND('',#913,.T.);
#992=FACE_BOUND('',#914,.T.);
#993=FACE_BOUND('',#915,.T.);
#994=FACE_BOUND('',#916,.T.);
#995=FACE_BOUND('',#917,.T.);
#996=FACE_BOUND('',#918,.T.);
#997=FACE_BOUND('',#919,.T.);
#998=FACE_BOUND('',#920,.T.);
#999=FACE_BOUND('',#921,.T.);
#1000=FACE_BOUND('',#922,.T.);
#1001=FACE_BOUND('',#923,.T.);
#1002=FACE_BOUND('',#924,.T.);
#1003=FACE_BOUND('',#925,.T.);
#1004=FACE_BOUND('',#926,.T.);
#1005=FACE_BOUND('',#927,.T.);
#1006=FACE_BOUND('',#928,.T.);
#1007=FACE_BOUND('',#929,.T.);
#1008=FACE_BOUND('',#930,.T.);
#1009=FACE_BOUND('',#931,.T.);
#1010=FACE_BOUND('',#932,.T.);
#1011=FACE_BOUND('',#933,.T.);
#1012=FACE_BOUND('',#934,.T.);
#1013=FACE_BOUND('',#935,.T.);
#1014=PLANE('',#1468);
#1015=PLANE('',#1469);
#1016=PLANE('',#1470);
#1017=PLANE('',#1471);
#1018=PLANE('',#1472);
#1019=PLANE('',#1473);
#1020=PLANE('',#1486);
#1021=PLANE('',#1487);
#1022=PLANE('',#1488);
#1023=PLANE('',#1492);
#1024=PLANE('',#1496);
#1025=PLANE('',#1500);
#1026=PLANE('',#1507);
#1027=PLANE('',#1511);
#1028=PLANE('',#1515);
#1029=PLANE('',#1522);
#1030=PLANE('',#1526);
#1031=PLANE('',#1530);
#1032=PLANE('',#1537);
#1033=PLANE('',#1541);
#1034=PLANE('',#1545);
#1035=PLANE('',#1549);
#1036=PLANE('',#1550);
#1037=PLANE('',#1551);
#1038=PLANE('',#1552);
#1039=PLANE('',#1553);
#1040=PLANE('',#1554);
#1041=PLANE('',#1555);
#1042=PLANE('',#1556);
#1043=PLANE('',#1557);
#1044=PLANE('',#1559);
#1045=PLANE('',#1560);
#1046=PLANE('',#1561);
#1047=PLANE('',#1562);
#1048=PLANE('',#1563);
#1049=PLANE('',#1564);
#1050=OVER_RIDING_STYLED_ITEM('',(#1160),#1099,#1157);
#1051=OVER_RIDING_STYLED_ITEM('',(#1161),#1100,#1157);
#1052=OVER_RIDING_STYLED_ITEM('',(#1162),#1101,#1157);
#1053=OVER_RIDING_STYLED_ITEM('',(#1163),#1102,#1157);
#1054=OVER_RIDING_STYLED_ITEM('',(#1164),#1103,#1157);
#1055=OVER_RIDING_STYLED_ITEM('',(#1165),#1104,#1157);
#1056=OVER_RIDING_STYLED_ITEM('',(#1166),#1105,#1157);
#1057=OVER_RIDING_STYLED_ITEM('',(#1167),#1106,#1157);
#1058=OVER_RIDING_STYLED_ITEM('',(#1168),#1107,#1157);
#1059=OVER_RIDING_STYLED_ITEM('',(#1169),#1108,#1157);
#1060=OVER_RIDING_STYLED_ITEM('',(#1170),#1109,#1157);
#1061=OVER_RIDING_STYLED_ITEM('',(#1171),#1110,#1157);
#1062=OVER_RIDING_STYLED_ITEM('',(#1172),#1111,#1157);
#1063=OVER_RIDING_STYLED_ITEM('',(#1173),#1112,#1157);
#1064=OVER_RIDING_STYLED_ITEM('',(#1174),#1113,#1157);
#1065=OVER_RIDING_STYLED_ITEM('',(#1175),#1114,#1157);
#1066=OVER_RIDING_STYLED_ITEM('',(#1176),#1115,#1157);
#1067=OVER_RIDING_STYLED_ITEM('',(#1177),#1116,#1157);
#1068=OVER_RIDING_STYLED_ITEM('',(#1178),#1117,#1157);
#1069=OVER_RIDING_STYLED_ITEM('',(#1179),#1119,#1157);
#1070=OVER_RIDING_STYLED_ITEM('',(#1180),#1120,#1157);
#1071=OVER_RIDING_STYLED_ITEM('',(#1181),#1121,#1157);
#1072=OVER_RIDING_STYLED_ITEM('',(#1182),#1122,#1157);
#1073=OVER_RIDING_STYLED_ITEM('',(#1183),#1123,#1157);
#1074=OVER_RIDING_STYLED_ITEM('',(#1184),#1124,#1157);
#1075=OVER_RIDING_STYLED_ITEM('',(#1185),#1126,#1157);
#1076=OVER_RIDING_STYLED_ITEM('',(#1186),#1127,#1157);
#1077=OVER_RIDING_STYLED_ITEM('',(#1187),#1128,#1157);
#1078=OVER_RIDING_STYLED_ITEM('',(#1188),#1129,#1157);
#1079=OVER_RIDING_STYLED_ITEM('',(#1189),#1130,#1157);
#1080=OVER_RIDING_STYLED_ITEM('',(#1190),#1131,#1157);
#1081=OVER_RIDING_STYLED_ITEM('',(#1191),#1133,#1157);
#1082=OVER_RIDING_STYLED_ITEM('',(#1192),#1134,#1157);
#1083=OVER_RIDING_STYLED_ITEM('',(#1193),#1135,#1157);
#1084=OVER_RIDING_STYLED_ITEM('',(#1194),#1136,#1157);
#1085=OVER_RIDING_STYLED_ITEM('',(#1195),#1137,#1157);
#1086=OVER_RIDING_STYLED_ITEM('',(#1196),#1138,#1157);
#1087=OVER_RIDING_STYLED_ITEM('',(#1197),#1140,#1157);
#1088=OVER_RIDING_STYLED_ITEM('',(#1198),#1141,#1157);
#1089=OVER_RIDING_STYLED_ITEM('',(#1199),#1142,#1157);
#1090=OVER_RIDING_STYLED_ITEM('',(#1200),#1143,#1157);
#1091=OVER_RIDING_STYLED_ITEM('',(#1201),#1144,#1157);
#1092=OVER_RIDING_STYLED_ITEM('',(#1202),#1145,#1157);
#1093=OVER_RIDING_STYLED_ITEM('',(#1203),#1146,#1157);
#1094=OVER_RIDING_STYLED_ITEM('',(#1204),#1147,#1157);
#1095=OVER_RIDING_STYLED_ITEM('',(#1205),#1148,#1157);
#1096=OVER_RIDING_STYLED_ITEM('',(#1207),#1153,#1158);
#1097=OVER_RIDING_STYLED_ITEM('',(#1208),#1154,#1158);
#1098=DRAUGHTING_PRE_DEFINED_COLOUR('black');
#1099=ADVANCED_FACE('Face appearance 1',(#936,#937),#1014,.T.);
#1100=ADVANCED_FACE('Face appearance 1',(#938),#1015,.T.);
#1101=ADVANCED_FACE('Face appearance 1',(#939),#1016,.F.);
#1102=ADVANCED_FACE('Face appearance 1',(#940),#1017,.F.);
#1103=ADVANCED_FACE('Face appearance 1',(#941),#1018,.F.);
#1104=ADVANCED_FACE('Face appearance 1',(#942),#1019,.F.);
#1105=ADVANCED_FACE('Face appearance 1',(#943,#944),#54,.F.);
#1106=ADVANCED_FACE('Face appearance 1',(#945,#946),#55,.F.);
#1107=ADVANCED_FACE('Face appearance 1',(#947,#948),#56,.F.);
#1108=ADVANCED_FACE('Face appearance 1',(#949,#950),#57,.F.);
#1109=ADVANCED_FACE('Face appearance 1',(#951),#1020,.T.);
#1110=ADVANCED_FACE('Face appearance 1',(#952),#1021,.T.);
#1111=ADVANCED_FACE('Face appearance 1',(#953,#954,#955,#956,#957,#958),
#1022,.F.);
#1112=ADVANCED_FACE('Face appearance 1',(#959),#58,.F.);
#1113=ADVANCED_FACE('Face appearance 1',(#960),#1023,.F.);
#1114=ADVANCED_FACE('Face appearance 1',(#961),#59,.F.);
#1115=ADVANCED_FACE('Face appearance 1',(#962),#1024,.F.);
#1116=ADVANCED_FACE('Face appearance 1',(#963),#60,.F.);
#1117=ADVANCED_FACE('Face appearance 1',(#964),#1025,.T.);
#1118=ADVANCED_FACE('',(#965),#61,.F.);
#1119=ADVANCED_FACE('Face appearance 1',(#966),#62,.F.);
#1120=ADVANCED_FACE('Face appearance 1',(#967),#1026,.F.);
#1121=ADVANCED_FACE('Face appearance 1',(#968),#63,.F.);
#1122=ADVANCED_FACE('Face appearance 1',(#969),#1027,.F.);
#1123=ADVANCED_FACE('Face appearance 1',(#970),#64,.F.);
#1124=ADVANCED_FACE('Face appearance 1',(#971),#1028,.T.);
#1125=ADVANCED_FACE('',(#972),#65,.F.);
#1126=ADVANCED_FACE('Face appearance 1',(#973),#66,.F.);
#1127=ADVANCED_FACE('Face appearance 1',(#974),#1029,.F.);
#1128=ADVANCED_FACE('Face appearance 1',(#975),#67,.F.);
#1129=ADVANCED_FACE('Face appearance 1',(#976),#1030,.F.);
#1130=ADVANCED_FACE('Face appearance 1',(#977),#68,.F.);
#1131=ADVANCED_FACE('Face appearance 1',(#978),#1031,.T.);
#1132=ADVANCED_FACE('',(#979),#69,.F.);
#1133=ADVANCED_FACE('Face appearance 1',(#980),#70,.F.);
#1134=ADVANCED_FACE('Face appearance 1',(#981),#1032,.F.);
#1135=ADVANCED_FACE('Face appearance 1',(#982),#71,.F.);
#1136=ADVANCED_FACE('Face appearance 1',(#983),#1033,.F.);
#1137=ADVANCED_FACE('Face appearance 1',(#984),#72,.F.);
#1138=ADVANCED_FACE('Face appearance 1',(#985),#1034,.T.);
#1139=ADVANCED_FACE('',(#986),#73,.F.);
#1140=ADVANCED_FACE('Face appearance 1',(#987),#1035,.T.);
#1141=ADVANCED_FACE('Face appearance 1',(#988),#1036,.T.);
#1142=ADVANCED_FACE('Face appearance 1',(#989),#1037,.T.);
#1143=ADVANCED_FACE('Face appearance 1',(#990),#1038,.T.);
#1144=ADVANCED_FACE('Face appearance 1',(#991,#992,#993,#994,#995,#996,
#997,#998,#999),#1039,.T.);
#1145=ADVANCED_FACE('Face appearance 1',(#1000,#1001,#1002,#1003,#1004),
#1040,.F.);
#1146=ADVANCED_FACE('Face appearance 1',(#1005),#1041,.F.);
#1147=ADVANCED_FACE('Face appearance 1',(#1006),#1042,.F.);
#1148=ADVANCED_FACE('Face appearance 1',(#1007),#1043,.T.);
#1149=ADVANCED_FACE('',(#1008),#1044,.T.);
#1150=ADVANCED_FACE('',(#1009),#1045,.F.);
#1151=ADVANCED_FACE('',(#1010),#1046,.F.);
#1152=ADVANCED_FACE('',(#1011),#1047,.T.);
#1153=ADVANCED_FACE('Face appearance 1',(#1012),#1048,.T.);
#1154=ADVANCED_FACE('Face appearance 1',(#1013),#1049,.F.);
#1155=CLOSED_SHELL('',(#1099,#1100,#1101,#1102,#1103,#1104,#1105,#1106,
#1107,#1108,#1109,#1110,#1111,#1112,#1113,#1114,#1115,#1116,#1117,#1118,
#1119,#1120,#1121,#1122,#1123,#1124,#1125,#1126,#1127,#1128,#1129,#1130,
#1131,#1132,#1133,#1134,#1135,#1136,#1137,#1138,#1139,#1140,#1141,#1142,
#1143,#1144,#1145,#1146,#1147,#1148));
#1156=CLOSED_SHELL('',(#1149,#1150,#1151,#1152,#1153,#1154));
#1157=STYLED_ITEM('',(#1159),#1461);
#1158=STYLED_ITEM('',(#1206),#1462);
#1159=PRESENTATION_STYLE_ASSIGNMENT((#1209));
#1160=PRESENTATION_STYLE_ASSIGNMENT((#1210));
#1161=PRESENTATION_STYLE_ASSIGNMENT((#1211));
#1162=PRESENTATION_STYLE_ASSIGNMENT((#1212));
#1163=PRESENTATION_STYLE_ASSIGNMENT((#1213));
#1164=PRESENTATION_STYLE_ASSIGNMENT((#1214));
#1165=PRESENTATION_STYLE_ASSIGNMENT((#1215));
#1166=PRESENTATION_STYLE_ASSIGNMENT((#1216));
#1167=PRESENTATION_STYLE_ASSIGNMENT((#1217));
#1168=PRESENTATION_STYLE_ASSIGNMENT((#1218));
#1169=PRESENTATION_STYLE_ASSIGNMENT((#1219));
#1170=PRESENTATION_STYLE_ASSIGNMENT((#1220));
#1171=PRESENTATION_STYLE_ASSIGNMENT((#1221));
#1172=PRESENTATION_STYLE_ASSIGNMENT((#1222));
#1173=PRESENTATION_STYLE_ASSIGNMENT((#1223));
#1174=PRESENTATION_STYLE_ASSIGNMENT((#1224));
#1175=PRESENTATION_STYLE_ASSIGNMENT((#1225));
#1176=PRESENTATION_STYLE_ASSIGNMENT((#1226));
#1177=PRESENTATION_STYLE_ASSIGNMENT((#1227));
#1178=PRESENTATION_STYLE_ASSIGNMENT((#1228));
#1179=PRESENTATION_STYLE_ASSIGNMENT((#1229));
#1180=PRESENTATION_STYLE_ASSIGNMENT((#1230));
#1181=PRESENTATION_STYLE_ASSIGNMENT((#1231));
#1182=PRESENTATION_STYLE_ASSIGNMENT((#1232));
#1183=PRESENTATION_STYLE_ASSIGNMENT((#1233));
#1184=PRESENTATION_STYLE_ASSIGNMENT((#1234));
#1185=PRESENTATION_STYLE_ASSIGNMENT((#1235));
#1186=PRESENTATION_STYLE_ASSIGNMENT((#1236));
#1187=PRESENTATION_STYLE_ASSIGNMENT((#1237));
#1188=PRESENTATION_STYLE_ASSIGNMENT((#1238));
#1189=PRESENTATION_STYLE_ASSIGNMENT((#1239));
#1190=PRESENTATION_STYLE_ASSIGNMENT((#1240));
#1191=PRESENTATION_STYLE_ASSIGNMENT((#1241));
#1192=PRESENTATION_STYLE_ASSIGNMENT((#1242));
#1193=PRESENTATION_STYLE_ASSIGNMENT((#1243));
#1194=PRESENTATION_STYLE_ASSIGNMENT((#1244));
#1195=PRESENTATION_STYLE_ASSIGNMENT((#1245));
#1196=PRESENTATION_STYLE_ASSIGNMENT((#1246));
#1197=PRESENTATION_STYLE_ASSIGNMENT((#1247));
#1198=PRESENTATION_STYLE_ASSIGNMENT((#1248));
#1199=PRESENTATION_STYLE_ASSIGNMENT((#1249));
#1200=PRESENTATION_STYLE_ASSIGNMENT((#1250));
#1201=PRESENTATION_STYLE_ASSIGNMENT((#1251));
#1202=PRESENTATION_STYLE_ASSIGNMENT((#1252));
#1203=PRESENTATION_STYLE_ASSIGNMENT((#1253));
#1204=PRESENTATION_STYLE_ASSIGNMENT((#1254));
#1205=PRESENTATION_STYLE_ASSIGNMENT((#1255));
#1206=PRESENTATION_STYLE_ASSIGNMENT((#1256));
#1207=PRESENTATION_STYLE_ASSIGNMENT((#1257));
#1208=PRESENTATION_STYLE_ASSIGNMENT((#1258));
#1209=SURFACE_STYLE_USAGE(.BOTH.,#1259);
#1210=SURFACE_STYLE_USAGE(.BOTH.,#1260);
#1211=SURFACE_STYLE_USAGE(.BOTH.,#1261);
#1212=SURFACE_STYLE_USAGE(.BOTH.,#1262);
#1213=SURFACE_STYLE_USAGE(.BOTH.,#1263);
#1214=SURFACE_STYLE_USAGE(.BOTH.,#1264);
#1215=SURFACE_STYLE_USAGE(.BOTH.,#1265);
#1216=SURFACE_STYLE_USAGE(.BOTH.,#1266);
#1217=SURFACE_STYLE_USAGE(.BOTH.,#1267);
#1218=SURFACE_STYLE_USAGE(.BOTH.,#1268);
#1219=SURFACE_STYLE_USAGE(.BOTH.,#1269);
#1220=SURFACE_STYLE_USAGE(.BOTH.,#1270);
#1221=SURFACE_STYLE_USAGE(.BOTH.,#1271);
#1222=SURFACE_STYLE_USAGE(.BOTH.,#1272);
#1223=SURFACE_STYLE_USAGE(.BOTH.,#1273);
#1224=SURFACE_STYLE_USAGE(.BOTH.,#1274);
#1225=SURFACE_STYLE_USAGE(.BOTH.,#1275);
#1226=SURFACE_STYLE_USAGE(.BOTH.,#1276);
#1227=SURFACE_STYLE_USAGE(.BOTH.,#1277);
#1228=SURFACE_STYLE_USAGE(.BOTH.,#1278);
#1229=SURFACE_STYLE_USAGE(.BOTH.,#1279);
#1230=SURFACE_STYLE_USAGE(.BOTH.,#1280);
#1231=SURFACE_STYLE_USAGE(.BOTH.,#1281);
#1232=SURFACE_STYLE_USAGE(.BOTH.,#1282);
#1233=SURFACE_STYLE_USAGE(.BOTH.,#1283);
#1234=SURFACE_STYLE_USAGE(.BOTH.,#1284);
#1235=SURFACE_STYLE_USAGE(.BOTH.,#1285);
#1236=SURFACE_STYLE_USAGE(.BOTH.,#1286);
#1237=SURFACE_STYLE_USAGE(.BOTH.,#1287);
#1238=SURFACE_STYLE_USAGE(.BOTH.,#1288);
#1239=SURFACE_STYLE_USAGE(.BOTH.,#1289);
#1240=SURFACE_STYLE_USAGE(.BOTH.,#1290);
#1241=SURFACE_STYLE_USAGE(.BOTH.,#1291);
#1242=SURFACE_STYLE_USAGE(.BOTH.,#1292);
#1243=SURFACE_STYLE_USAGE(.BOTH.,#1293);
#1244=SURFACE_STYLE_USAGE(.BOTH.,#1294);
#1245=SURFACE_STYLE_USAGE(.BOTH.,#1295);
#1246=SURFACE_STYLE_USAGE(.BOTH.,#1296);
#1247=SURFACE_STYLE_USAGE(.BOTH.,#1297);
#1248=SURFACE_STYLE_USAGE(.BOTH.,#1298);
#1249=SURFACE_STYLE_USAGE(.BOTH.,#1299);
#1250=SURFACE_STYLE_USAGE(.BOTH.,#1300);
#1251=SURFACE_STYLE_USAGE(.BOTH.,#1301);
#1252=SURFACE_STYLE_USAGE(.BOTH.,#1302);
#1253=SURFACE_STYLE_USAGE(.BOTH.,#1303);
#1254=SURFACE_STYLE_USAGE(.BOTH.,#1304);
#1255=SURFACE_STYLE_USAGE(.BOTH.,#1305);
#1256=SURFACE_STYLE_USAGE(.BOTH.,#1306);
#1257=SURFACE_STYLE_USAGE(.BOTH.,#1307);
#1258=SURFACE_STYLE_USAGE(.BOTH.,#1308);
#1259=SURFACE_SIDE_STYLE('',(#1309));
#1260=SURFACE_SIDE_STYLE('',(#1310));
#1261=SURFACE_SIDE_STYLE('',(#1311));
#1262=SURFACE_SIDE_STYLE('',(#1312));
#1263=SURFACE_SIDE_STYLE('',(#1313));
#1264=SURFACE_SIDE_STYLE('',(#1314));
#1265=SURFACE_SIDE_STYLE('',(#1315));
#1266=SURFACE_SIDE_STYLE('',(#1316));
#1267=SURFACE_SIDE_STYLE('',(#1317));
#1268=SURFACE_SIDE_STYLE('',(#1318));
#1269=SURFACE_SIDE_STYLE('',(#1319));
#1270=SURFACE_SIDE_STYLE('',(#1320));
#1271=SURFACE_SIDE_STYLE('',(#1321));
#1272=SURFACE_SIDE_STYLE('',(#1322));
#1273=SURFACE_SIDE_STYLE('',(#1323));
#1274=SURFACE_SIDE_STYLE('',(#1324));
#1275=SURFACE_SIDE_STYLE('',(#1325));
#1276=SURFACE_SIDE_STYLE('',(#1326));
#1277=SURFACE_SIDE_STYLE('',(#1327));
#1278=SURFACE_SIDE_STYLE('',(#1328));
#1279=SURFACE_SIDE_STYLE('',(#1329));
#1280=SURFACE_SIDE_STYLE('',(#1330));
#1281=SURFACE_SIDE_STYLE('',(#1331));
#1282=SURFACE_SIDE_STYLE('',(#1332));
#1283=SURFACE_SIDE_STYLE('',(#1333));
#1284=SURFACE_SIDE_STYLE('',(#1334));
#1285=SURFACE_SIDE_STYLE('',(#1335));
#1286=SURFACE_SIDE_STYLE('',(#1336));
#1287=SURFACE_SIDE_STYLE('',(#1337));
#1288=SURFACE_SIDE_STYLE('',(#1338));
#1289=SURFACE_SIDE_STYLE('',(#1339));
#1290=SURFACE_SIDE_STYLE('',(#1340));
#1291=SURFACE_SIDE_STYLE('',(#1341));
#1292=SURFACE_SIDE_STYLE('',(#1342));
#1293=SURFACE_SIDE_STYLE('',(#1343));
#1294=SURFACE_SIDE_STYLE('',(#1344));
#1295=SURFACE_SIDE_STYLE('',(#1345));
#1296=SURFACE_SIDE_STYLE('',(#1346));
#1297=SURFACE_SIDE_STYLE('',(#1347));
#1298=SURFACE_SIDE_STYLE('',(#1348));
#1299=SURFACE_SIDE_STYLE('',(#1349));
#1300=SURFACE_SIDE_STYLE('',(#1350));
#1301=SURFACE_SIDE_STYLE('',(#1351));
#1302=SURFACE_SIDE_STYLE('',(#1352));
#1303=SURFACE_SIDE_STYLE('',(#1353));
#1304=SURFACE_SIDE_STYLE('',(#1354));
#1305=SURFACE_SIDE_STYLE('',(#1355));
#1306=SURFACE_SIDE_STYLE('',(#1356));
#1307=SURFACE_SIDE_STYLE('',(#1357));
#1308=SURFACE_SIDE_STYLE('',(#1358));
#1309=SURFACE_STYLE_FILL_AREA(#1359);
#1310=SURFACE_STYLE_FILL_AREA(#1360);
#1311=SURFACE_STYLE_FILL_AREA(#1361);
#1312=SURFACE_STYLE_FILL_AREA(#1362);
#1313=SURFACE_STYLE_FILL_AREA(#1363);
#1314=SURFACE_STYLE_FILL_AREA(#1364);
#1315=SURFACE_STYLE_FILL_AREA(#1365);
#1316=SURFACE_STYLE_FILL_AREA(#1366);
#1317=SURFACE_STYLE_FILL_AREA(#1367);
#1318=SURFACE_STYLE_FILL_AREA(#1368);
#1319=SURFACE_STYLE_FILL_AREA(#1369);
#1320=SURFACE_STYLE_FILL_AREA(#1370);
#1321=SURFACE_STYLE_FILL_AREA(#1371);
#1322=SURFACE_STYLE_FILL_AREA(#1372);
#1323=SURFACE_STYLE_FILL_AREA(#1373);
#1324=SURFACE_STYLE_FILL_AREA(#1374);
#1325=SURFACE_STYLE_FILL_AREA(#1375);
#1326=SURFACE_STYLE_FILL_AREA(#1376);
#1327=SURFACE_STYLE_FILL_AREA(#1377);
#1328=SURFACE_STYLE_FILL_AREA(#1378);
#1329=SURFACE_STYLE_FILL_AREA(#1379);
#1330=SURFACE_STYLE_FILL_AREA(#1380);
#1331=SURFACE_STYLE_FILL_AREA(#1381);
#1332=SURFACE_STYLE_FILL_AREA(#1382);
#1333=SURFACE_STYLE_FILL_AREA(#1383);
#1334=SURFACE_STYLE_FILL_AREA(#1384);
#1335=SURFACE_STYLE_FILL_AREA(#1385);
#1336=SURFACE_STYLE_FILL_AREA(#1386);
#1337=SURFACE_STYLE_FILL_AREA(#1387);
#1338=SURFACE_STYLE_FILL_AREA(#1388);
#1339=SURFACE_STYLE_FILL_AREA(#1389);
#1340=SURFACE_STYLE_FILL_AREA(#1390);
#1341=SURFACE_STYLE_FILL_AREA(#1391);
#1342=SURFACE_STYLE_FILL_AREA(#1392);
#1343=SURFACE_STYLE_FILL_AREA(#1393);
#1344=SURFACE_STYLE_FILL_AREA(#1394);
#1345=SURFACE_STYLE_FILL_AREA(#1395);
#1346=SURFACE_STYLE_FILL_AREA(#1396);
#1347=SURFACE_STYLE_FILL_AREA(#1397);
#1348=SURFACE_STYLE_FILL_AREA(#1398);
#1349=SURFACE_STYLE_FILL_AREA(#1399);
#1350=SURFACE_STYLE_FILL_AREA(#1400);
#1351=SURFACE_STYLE_FILL_AREA(#1401);
#1352=SURFACE_STYLE_FILL_AREA(#1402);
#1353=SURFACE_STYLE_FILL_AREA(#1403);
#1354=SURFACE_STYLE_FILL_AREA(#1404);
#1355=SURFACE_STYLE_FILL_AREA(#1405);
#1356=SURFACE_STYLE_FILL_AREA(#1406);
#1357=SURFACE_STYLE_FILL_AREA(#1407);
#1358=SURFACE_STYLE_FILL_AREA(#1408);
#1359=FILL_AREA_STYLE('',(#1409));
#1360=FILL_AREA_STYLE('',(#1410));
#1361=FILL_AREA_STYLE('',(#1411));
#1362=FILL_AREA_STYLE('',(#1412));
#1363=FILL_AREA_STYLE('',(#1413));
#1364=FILL_AREA_STYLE('',(#1414));
#1365=FILL_AREA_STYLE('',(#1415));
#1366=FILL_AREA_STYLE('',(#1416));
#1367=FILL_AREA_STYLE('',(#1417));
#1368=FILL_AREA_STYLE('',(#1418));
#1369=FILL_AREA_STYLE('',(#1419));
#1370=FILL_AREA_STYLE('',(#1420));
#1371=FILL_AREA_STYLE('',(#1421));
#1372=FILL_AREA_STYLE('',(#1422));
#1373=FILL_AREA_STYLE('',(#1423));
#1374=FILL_AREA_STYLE('',(#1424));
#1375=FILL_AREA_STYLE('',(#1425));
#1376=FILL_AREA_STYLE('',(#1426));
#1377=FILL_AREA_STYLE('',(#1427));
#1378=FILL_AREA_STYLE('',(#1428));
#1379=FILL_AREA_STYLE('',(#1429));
#1380=FILL_AREA_STYLE('',(#1430));
#1381=FILL_AREA_STYLE('',(#1431));
#1382=FILL_AREA_STYLE('',(#1432));
#1383=FILL_AREA_STYLE('',(#1433));
#1384=FILL_AREA_STYLE('',(#1434));
#1385=FILL_AREA_STYLE('',(#1435));
#1386=FILL_AREA_STYLE('',(#1436));
#1387=FILL_AREA_STYLE('',(#1437));
#1388=FILL_AREA_STYLE('',(#1438));
#1389=FILL_AREA_STYLE('',(#1439));
#1390=FILL_AREA_STYLE('',(#1440));
#1391=FILL_AREA_STYLE('',(#1441));
#1392=FILL_AREA_STYLE('',(#1442));
#1393=FILL_AREA_STYLE('',(#1443));
#1394=FILL_AREA_STYLE('',(#1444));
#1395=FILL_AREA_STYLE('',(#1445));
#1396=FILL_AREA_STYLE('',(#1446));
#1397=FILL_AREA_STYLE('',(#1447));
#1398=FILL_AREA_STYLE('',(#1448));
#1399=FILL_AREA_STYLE('',(#1449));
#1400=FILL_AREA_STYLE('',(#1450));
#1401=FILL_AREA_STYLE('',(#1451));
#1402=FILL_AREA_STYLE('',(#1452));
#1403=FILL_AREA_STYLE('',(#1453));
#1404=FILL_AREA_STYLE('',(#1454));
#1405=FILL_AREA_STYLE('',(#1455));
#1406=FILL_AREA_STYLE('',(#1456));
#1407=FILL_AREA_STYLE('',(#1457));
#1408=FILL_AREA_STYLE('',(#1458));
#1409=FILL_AREA_STYLE_COLOUR('',#1459);
#1410=FILL_AREA_STYLE_COLOUR('',#1098);
#1411=FILL_AREA_STYLE_COLOUR('',#1098);
#1412=FILL_AREA_STYLE_COLOUR('',#1098);
#1413=FILL_AREA_STYLE_COLOUR('',#1098);
#1414=FILL_AREA_STYLE_COLOUR('',#1098);
#1415=FILL_AREA_STYLE_COLOUR('',#1098);
#1416=FILL_AREA_STYLE_COLOUR('',#1098);
#1417=FILL_AREA_STYLE_COLOUR('',#1098);
#1418=FILL_AREA_STYLE_COLOUR('',#1098);
#1419=FILL_AREA_STYLE_COLOUR('',#1098);
#1420=FILL_AREA_STYLE_COLOUR('',#1098);
#1421=FILL_AREA_STYLE_COLOUR('',#1098);
#1422=FILL_AREA_STYLE_COLOUR('',#1098);
#1423=FILL_AREA_STYLE_COLOUR('',#1098);
#1424=FILL_AREA_STYLE_COLOUR('',#1098);
#1425=FILL_AREA_STYLE_COLOUR('',#1098);
#1426=FILL_AREA_STYLE_COLOUR('',#1098);
#1427=FILL_AREA_STYLE_COLOUR('',#1098);
#1428=FILL_AREA_STYLE_COLOUR('',#1098);
#1429=FILL_AREA_STYLE_COLOUR('',#1098);
#1430=FILL_AREA_STYLE_COLOUR('',#1098);
#1431=FILL_AREA_STYLE_COLOUR('',#1098);
#1432=FILL_AREA_STYLE_COLOUR('',#1098);
#1433=FILL_AREA_STYLE_COLOUR('',#1098);
#1434=FILL_AREA_STYLE_COLOUR('',#1098);
#1435=FILL_AREA_STYLE_COLOUR('',#1098);
#1436=FILL_AREA_STYLE_COLOUR('',#1098);
#1437=FILL_AREA_STYLE_COLOUR('',#1098);
#1438=FILL_AREA_STYLE_COLOUR('',#1098);
#1439=FILL_AREA_STYLE_COLOUR('',#1098);
#1440=FILL_AREA_STYLE_COLOUR('',#1098);
#1441=FILL_AREA_STYLE_COLOUR('',#1098);
#1442=FILL_AREA_STYLE_COLOUR('',#1098);
#1443=FILL_AREA_STYLE_COLOUR('',#1098);
#1444=FILL_AREA_STYLE_COLOUR('',#1098);
#1445=FILL_AREA_STYLE_COLOUR('',#1098);
#1446=FILL_AREA_STYLE_COLOUR('',#1098);
#1447=FILL_AREA_STYLE_COLOUR('',#1098);
#1448=FILL_AREA_STYLE_COLOUR('',#1098);
#1449=FILL_AREA_STYLE_COLOUR('',#1098);
#1450=FILL_AREA_STYLE_COLOUR('',#1098);
#1451=FILL_AREA_STYLE_COLOUR('',#1098);
#1452=FILL_AREA_STYLE_COLOUR('',#1098);
#1453=FILL_AREA_STYLE_COLOUR('',#1098);
#1454=FILL_AREA_STYLE_COLOUR('',#1098);
#1455=FILL_AREA_STYLE_COLOUR('',#1098);
#1456=FILL_AREA_STYLE_COLOUR('',#1460);
#1457=FILL_AREA_STYLE_COLOUR('',#1098);
#1458=FILL_AREA_STYLE_COLOUR('',#1098);
#1459=COLOUR_RGB('',0.647058823529412,0.647058823529412,0.647058823529412);
#1460=COLOUR_RGB('',0.615686274509804,0.811764705882353,0.929411764705882);
#1461=MANIFOLD_SOLID_BREP('Part 2',#1155);
#1462=MANIFOLD_SOLID_BREP('Part 1',#1156);
#1463=SHAPE_DEFINITION_REPRESENTATION(#2199,#1465);
#1464=SHAPE_DEFINITION_REPRESENTATION(#2200,#1466);
#1465=SHAPE_REPRESENTATION('Part 2',(#1467),#2189);
#1466=SHAPE_REPRESENTATION('Part 1',(#1558),#2190);
#1467=AXIS2_PLACEMENT_3D('',#1873,#1565,#1566);
#1468=AXIS2_PLACEMENT_3D('',#1874,#1567,#1568);
#1469=AXIS2_PLACEMENT_3D('',#1891,#1577,#1578);
#1470=AXIS2_PLACEMENT_3D('',#1900,#1583,#1584);
#1471=AXIS2_PLACEMENT_3D('',#1914,#1592,#1593);
#1472=AXIS2_PLACEMENT_3D('',#1920,#1597,#1598);
#1473=AXIS2_PLACEMENT_3D('',#1926,#1602,#1603);
#1474=AXIS2_PLACEMENT_3D('',#1932,#1607,#1608);
#1475=AXIS2_PLACEMENT_3D('',#1933,#1609,#1610);
#1476=AXIS2_PLACEMENT_3D('',#1935,#1611,#1612);
#1477=AXIS2_PLACEMENT_3D('',#1937,#1613,#1614);
#1478=AXIS2_PLACEMENT_3D('',#1938,#1615,#1616);
#1479=AXIS2_PLACEMENT_3D('',#1940,#1617,#1618);
#1480=AXIS2_PLACEMENT_3D('',#1942,#1619,#1620);
#1481=AXIS2_PLACEMENT_3D('',#1943,#1621,#1622);
#1482=AXIS2_PLACEMENT_3D('',#1945,#1623,#1624);
#1483=AXIS2_PLACEMENT_3D('',#1947,#1625,#1626);
#1484=AXIS2_PLACEMENT_3D('',#1948,#1627,#1628);
#1485=AXIS2_PLACEMENT_3D('',#1950,#1629,#1630);
#1486=AXIS2_PLACEMENT_3D('',#1952,#1631,#1632);
#1487=AXIS2_PLACEMENT_3D('',#1955,#1635,#1636);
#1488=AXIS2_PLACEMENT_3D('',#1958,#1639,#1640);
#1489=AXIS2_PLACEMENT_3D('',#1959,#1641,#1642);
#1490=AXIS2_PLACEMENT_3D('',#1960,#1643,#1644);
#1491=AXIS2_PLACEMENT_3D('',#1965,#1646,#1647);
#1492=AXIS2_PLACEMENT_3D('',#1968,#1649,#1650);
#1493=AXIS2_PLACEMENT_3D('',#1974,#1654,#1655);
#1494=AXIS2_PLACEMENT_3D('',#1975,#1656,#1657);
#1495=AXIS2_PLACEMENT_3D('',#1979,#1659,#1660);
#1496=AXIS2_PLACEMENT_3D('',#1980,#1661,#1662);
#1497=AXIS2_PLACEMENT_3D('',#1986,#1666,#1667);
#1498=AXIS2_PLACEMENT_3D('',#1987,#1668,#1669);
#1499=AXIS2_PLACEMENT_3D('',#1991,#1671,#1672);
#1500=AXIS2_PLACEMENT_3D('',#1992,#1673,#1674);
#1501=AXIS2_PLACEMENT_3D('',#1998,#1678,#1679);
#1502=AXIS2_PLACEMENT_3D('',#1999,#1680,#1681);
#1503=AXIS2_PLACEMENT_3D('',#2003,#1683,#1684);
#1504=AXIS2_PLACEMENT_3D('',#2004,#1685,#1686);
#1505=AXIS2_PLACEMENT_3D('',#2005,#1687,#1688);
#1506=AXIS2_PLACEMENT_3D('',#2010,#1690,#1691);
#1507=AXIS2_PLACEMENT_3D('',#2013,#1693,#1694);
#1508=AXIS2_PLACEMENT_3D('',#2019,#1698,#1699);
#1509=AXIS2_PLACEMENT_3D('',#2020,#1700,#1701);
#1510=AXIS2_PLACEMENT_3D('',#2024,#1703,#1704);
#1511=AXIS2_PLACEMENT_3D('',#2025,#1705,#1706);
#1512=AXIS2_PLACEMENT_3D('',#2031,#1710,#1711);
#1513=AXIS2_PLACEMENT_3D('',#2032,#1712,#1713);
#1514=AXIS2_PLACEMENT_3D('',#2036,#1715,#1716);
#1515=AXIS2_PLACEMENT_3D('',#2037,#1717,#1718);
#1516=AXIS2_PLACEMENT_3D('',#2043,#1722,#1723);
#1517=AXIS2_PLACEMENT_3D('',#2044,#1724,#1725);
#1518=AXIS2_PLACEMENT_3D('',#2048,#1727,#1728);
#1519=AXIS2_PLACEMENT_3D('',#2049,#1729,#1730);
#1520=AXIS2_PLACEMENT_3D('',#2050,#1731,#1732);
#1521=AXIS2_PLACEMENT_3D('',#2055,#1734,#1735);
#1522=AXIS2_PLACEMENT_3D('',#2058,#1737,#1738);
#1523=AXIS2_PLACEMENT_3D('',#2064,#1742,#1743);
#1524=AXIS2_PLACEMENT_3D('',#2065,#1744,#1745);
#1525=AXIS2_PLACEMENT_3D('',#2069,#1747,#1748);
#1526=AXIS2_PLACEMENT_3D('',#2070,#1749,#1750);
#1527=AXIS2_PLACEMENT_3D('',#2076,#1754,#1755);
#1528=AXIS2_PLACEMENT_3D('',#2077,#1756,#1757);
#1529=AXIS2_PLACEMENT_3D('',#2081,#1759,#1760);
#1530=AXIS2_PLACEMENT_3D('',#2082,#1761,#1762);
#1531=AXIS2_PLACEMENT_3D('',#2088,#1766,#1767);
#1532=AXIS2_PLACEMENT_3D('',#2089,#1768,#1769);
#1533=AXIS2_PLACEMENT_3D('',#2093,#1771,#1772);
#1534=AXIS2_PLACEMENT_3D('',#2094,#1773,#1774);
#1535=AXIS2_PLACEMENT_3D('',#2095,#1775,#1776);
#1536=AXIS2_PLACEMENT_3D('',#2100,#1778,#1779);
#1537=AXIS2_PLACEMENT_3D('',#2103,#1781,#1782);
#1538=AXIS2_PLACEMENT_3D('',#2109,#1786,#1787);
#1539=AXIS2_PLACEMENT_3D('',#2110,#1788,#1789);
#1540=AXIS2_PLACEMENT_3D('',#2114,#1791,#1792);
#1541=AXIS2_PLACEMENT_3D('',#2115,#1793,#1794);
#1542=AXIS2_PLACEMENT_3D('',#2121,#1798,#1799);
#1543=AXIS2_PLACEMENT_3D('',#2122,#1800,#1801);
#1544=AXIS2_PLACEMENT_3D('',#2126,#1803,#1804);
#1545=AXIS2_PLACEMENT_3D('',#2127,#1805,#1806);
#1546=AXIS2_PLACEMENT_3D('',#2133,#1810,#1811);
#1547=AXIS2_PLACEMENT_3D('',#2134,#1812,#1813);
#1548=AXIS2_PLACEMENT_3D('',#2138,#1815,#1816);
#1549=AXIS2_PLACEMENT_3D('',#2139,#1817,#1818);
#1550=AXIS2_PLACEMENT_3D('',#2142,#1821,#1822);
#1551=AXIS2_PLACEMENT_3D('',#2145,#1825,#1826);
#1552=AXIS2_PLACEMENT_3D('',#2148,#1829,#1830);
#1553=AXIS2_PLACEMENT_3D('',#2151,#1833,#1834);
#1554=AXIS2_PLACEMENT_3D('',#2152,#1835,#1836);
#1555=AXIS2_PLACEMENT_3D('',#2155,#1839,#1840);
#1556=AXIS2_PLACEMENT_3D('',#2157,#1842,#1843);
#1557=AXIS2_PLACEMENT_3D('',#2159,#1845,#1846);
#1558=AXIS2_PLACEMENT_3D('',#2160,#1847,#1848);
#1559=AXIS2_PLACEMENT_3D('',#2161,#1849,#1850);
#1560=AXIS2_PLACEMENT_3D('',#2170,#1855,#1856);
#1561=AXIS2_PLACEMENT_3D('',#2176,#1860,#1861);
#1562=AXIS2_PLACEMENT_3D('',#2182,#1865,#1866);
#1563=AXIS2_PLACEMENT_3D('',#2185,#1869,#1870);
#1564=AXIS2_PLACEMENT_3D('',#2186,#1871,#1872);
#1565=DIRECTION('',(0.,0.,1.));
#1566=DIRECTION('',(1.,0.,0.));
#1567=DIRECTION('',(-1.,0.,0.));
#1568=DIRECTION('',(0.,0.,1.));
#1569=DIRECTION('',(0.,1.,0.));
#1570=DIRECTION('',(0.,0.,-1.));
#1571=DIRECTION('',(0.,1.,0.));
#1572=DIRECTION('',(0.,0.,-1.));
#1573=DIRECTION('',(0.,0.,-1.));
#1574=DIRECTION('',(0.,-1.,1.7347234759768E-16));
#1575=DIRECTION('',(0.,0.,-1.));
#1576=DIRECTION('',(0.,-1.,1.7347234759768E-16));
#1577=DIRECTION('',(0.,1.,0.));
#1578=DIRECTION('',(0.,0.,1.));
#1579=DIRECTION('',(1.,0.,0.));
#1580=DIRECTION('',(0.,0.,-1.));
#1581=DIRECTION('',(1.,0.,0.));
#1582=DIRECTION('',(0.,0.,-1.));
#1583=DIRECTION('',(-1.,-1.55930200087803E-16,0.));
#1584=DIRECTION('',(1.55930200087803E-16,-1.,0.));
#1585=DIRECTION('',(-1.55930200087803E-16,1.,0.));
#1586=DIRECTION('',(0.,0.,-1.));
#1587=DIRECTION('',(1.55930200087803E-16,-1.,1.7347234759768E-16));
#1588=DIRECTION('',(0.,0.,-1.));
#1589=DIRECTION('',(-1.55930200087803E-16,1.,0.));
#1590=DIRECTION('',(-1.55930200087803E-16,1.,0.));
#1591=DIRECTION('',(0.,0.,-1.));
#1592=DIRECTION('',(0.,1.,0.));
#1593=DIRECTION('',(0.,0.,1.));
#1594=DIRECTION('',(1.,0.,0.));
#1595=DIRECTION('',(0.,0.,-1.));
#1596=DIRECTION('',(1.,0.,0.));
#1597=DIRECTION('',(0.,1.,0.));
#1598=DIRECTION('',(0.,0.,1.));
#1599=DIRECTION('',(1.,0.,0.));
#1600=DIRECTION('',(0.,0.,-1.));
#1601=DIRECTION('',(1.,0.,0.));
#1602=DIRECTION('',(-1.,-1.61369625672261E-16,0.));
#1603=DIRECTION('',(1.61369625672261E-16,-1.,0.));
#1604=DIRECTION('',(-1.61369625672261E-16,1.,0.));
#1605=DIRECTION('',(0.,0.,-1.));
#1606=DIRECTION('',(-1.61369625672261E-16,1.,0.));
#1607=DIRECTION('',(0.,0.,-1.));
#1608=DIRECTION('',(-1.,0.,0.));
#1609=DIRECTION('',(0.,0.,1.));
#1610=DIRECTION('',(1.,0.,0.));
#1611=DIRECTION('',(0.,0.,1.));
#1612=DIRECTION('',(1.,0.,0.));
#1613=DIRECTION('',(0.,0.,-1.));
#1614=DIRECTION('',(-1.,0.,0.));
#1615=DIRECTION('',(0.,0.,1.));
#1616=DIRECTION('',(1.,0.,0.));
#1617=DIRECTION('',(0.,0.,1.));
#1618=DIRECTION('',(1.,0.,0.));
#1619=DIRECTION('',(0.,0.,-1.));
#1620=DIRECTION('',(-1.,0.,0.));
#1621=DIRECTION('',(0.,0.,1.));
#1622=DIRECTION('',(1.,0.,0.));
#1623=DIRECTION('',(0.,0.,1.));
#1624=DIRECTION('',(1.,0.,0.));
#1625=DIRECTION('',(0.,0.,-1.));
#1626=DIRECTION('',(-1.,0.,0.));
#1627=DIRECTION('',(0.,0.,1.));
#1628=DIRECTION('',(1.,0.,0.));
#1629=DIRECTION('',(0.,0.,1.));
#1630=DIRECTION('',(1.,0.,0.));
#1631=DIRECTION('',(0.,1.,0.));
#1632=DIRECTION('',(0.,0.,1.));
#1633=DIRECTION('',(1.,0.,0.));
#1634=DIRECTION('',(1.,0.,0.));
#1635=DIRECTION('',(-1.,-1.94912750109753E-16,0.));
#1636=DIRECTION('',(1.94912750109753E-16,-1.,0.));
#1637=DIRECTION('',(-1.94912750109753E-16,1.,0.));
#1638=DIRECTION('',(-1.94912750109753E-16,1.,0.));
#1639=DIRECTION('',(0.,0.,1.));
#1640=DIRECTION('',(1.,0.,0.));
#1641=DIRECTION('',(0.,0.,-1.));
#1642=DIRECTION('',(-1.,0.,0.));
#1643=DIRECTION('',(0.,0.,1.));
#1644=DIRECTION('',(6.93889390390722E-15,1.,0.));
#1645=DIRECTION('',(0.,0.,-1.));
#1646=DIRECTION('',(0.,0.,1.));
#1647=DIRECTION('',(6.93889390390722E-15,1.,0.));
#1648=DIRECTION('',(0.,0.,-1.));
#1649=DIRECTION('',(0.,1.,0.));
#1650=DIRECTION('',(0.,0.,1.));
#1651=DIRECTION('',(1.,0.,0.));
#1652=DIRECTION('',(0.,0.,-1.));
#1653=DIRECTION('',(1.,0.,0.));
#1654=DIRECTION('',(0.,0.,-1.));
#1655=DIRECTION('',(-1.,0.,0.));
#1656=DIRECTION('',(0.,0.,1.));
#1657=DIRECTION('',(1.,0.,0.));
#1658=DIRECTION('',(0.,0.,-1.));
#1659=DIRECTION('',(0.,0.,1.));
#1660=DIRECTION('',(1.,0.,0.));
#1661=DIRECTION('',(1.,0.,0.));
#1662=DIRECTION('',(0.,0.,-1.));
#1663=DIRECTION('',(0.,-1.,0.));
#1664=DIRECTION('',(0.,0.,-1.));
#1665=DIRECTION('',(0.,-1.,0.));
#1666=DIRECTION('',(0.,0.,-1.));
#1667=DIRECTION('',(-1.,0.,0.));
#1668=DIRECTION('',(0.,0.,1.));
#1669=DIRECTION('',(1.17093834628434E-14,-1.,0.));
#1670=DIRECTION('',(0.,0.,-1.));
#1671=DIRECTION('',(0.,0.,1.));
#1672=DIRECTION('',(1.17093834628434E-14,-1.,0.));
#1673=DIRECTION('',(0.,1.,0.));
#1674=DIRECTION('',(0.,0.,1.));
#1675=DIRECTION('',(1.,0.,0.));
#1676=DIRECTION('',(0.,0.,-1.));
#1677=DIRECTION('',(1.,0.,0.));
#1678=DIRECTION('',(0.,0.,-1.));
#1679=DIRECTION('',(-1.,0.,0.));
#1680=DIRECTION('',(0.,0.,1.));
#1681=DIRECTION('',(-1.,0.,0.));
#1682=DIRECTION('',(0.,0.,-1.));
#1683=DIRECTION('',(0.,0.,1.));
#1684=DIRECTION('',(-1.,0.,0.));
#1685=DIRECTION('',(0.,0.,-1.));
#1686=DIRECTION('',(-1.,0.,0.));
#1687=DIRECTION('',(0.,0.,1.));
#1688=DIRECTION('',(6.93889390390722E-15,1.,0.));
#1689=DIRECTION('',(0.,0.,-1.));
#1690=DIRECTION('',(0.,0.,1.));
#1691=DIRECTION('',(6.93889390390722E-15,1.,0.));
#1692=DIRECTION('',(0.,0.,-1.));
#1693=DIRECTION('',(0.,1.,0.));
#1694=DIRECTION('',(0.,0.,1.));
#1695=DIRECTION('',(1.,0.,0.));
#1696=DIRECTION('',(0.,0.,-1.));
#1697=DIRECTION('',(1.,0.,0.));
#1698=DIRECTION('',(0.,0.,-1.));
#1699=DIRECTION('',(-1.,0.,0.));
#1700=DIRECTION('',(0.,0.,1.));
#1701=DIRECTION('',(1.,0.,0.));
#1702=DIRECTION('',(0.,0.,-1.));
#1703=DIRECTION('',(0.,0.,1.));
#1704=DIRECTION('',(1.,0.,0.));
#1705=DIRECTION('',(1.,0.,0.));
#1706=DIRECTION('',(0.,0.,-1.));
#1707=DIRECTION('',(0.,-1.,0.));
#1708=DIRECTION('',(0.,0.,-1.));
#1709=DIRECTION('',(0.,-1.,0.));
#1710=DIRECTION('',(0.,0.,-1.));
#1711=DIRECTION('',(-1.,0.,0.));
#1712=DIRECTION('',(0.,0.,1.));
#1713=DIRECTION('',(1.38777878078144E-14,-1.,0.));
#1714=DIRECTION('',(0.,0.,-1.));
#1715=DIRECTION('',(0.,0.,1.));
#1716=DIRECTION('',(1.38777878078144E-14,-1.,0.));
#1717=DIRECTION('',(0.,1.,0.));
#1718=DIRECTION('',(0.,0.,1.));
#1719=DIRECTION('',(1.,0.,0.));
#1720=DIRECTION('',(0.,0.,-1.));
#1721=DIRECTION('',(1.,0.,0.));
#1722=DIRECTION('',(0.,0.,-1.));
#1723=DIRECTION('',(-1.,0.,0.));
#1724=DIRECTION('',(0.,0.,1.));
#1725=DIRECTION('',(-1.,0.,0.));
#1726=DIRECTION('',(0.,0.,-1.));
#1727=DIRECTION('',(0.,0.,1.));
#1728=DIRECTION('',(-1.,0.,0.));
#1729=DIRECTION('',(0.,0.,-1.));
#1730=DIRECTION('',(-1.,0.,0.));
#1731=DIRECTION('',(0.,0.,1.));
#1732=DIRECTION('',(0.,1.,0.));
#1733=DIRECTION('',(0.,0.,-1.));
#1734=DIRECTION('',(0.,0.,1.));
#1735=DIRECTION('',(0.,1.,0.));
#1736=DIRECTION('',(0.,0.,-1.));
#1737=DIRECTION('',(0.,1.,0.));
#1738=DIRECTION('',(0.,0.,1.));
#1739=DIRECTION('',(1.,0.,0.));
#1740=DIRECTION('',(0.,0.,-1.));
#1741=DIRECTION('',(1.,0.,0.));
#1742=DIRECTION('',(0.,0.,-1.));
#1743=DIRECTION('',(-1.,0.,0.));
#1744=DIRECTION('',(0.,0.,1.));
#1745=DIRECTION('',(1.,0.,0.));
#1746=DIRECTION('',(0.,0.,-1.));
#1747=DIRECTION('',(0.,0.,1.));
#1748=DIRECTION('',(1.,0.,0.));
#1749=DIRECTION('',(1.,0.,0.));
#1750=DIRECTION('',(0.,0.,-1.));
#1751=DIRECTION('',(0.,-1.,0.));
#1752=DIRECTION('',(0.,0.,-1.));
#1753=DIRECTION('',(0.,-1.,0.));
#1754=DIRECTION('',(0.,0.,-1.));
#1755=DIRECTION('',(-1.,0.,0.));
#1756=DIRECTION('',(0.,0.,1.));
#1757=DIRECTION('',(1.38777878078144E-14,-1.,0.));
#1758=DIRECTION('',(0.,0.,-1.));
#1759=DIRECTION('',(0.,0.,1.));
#1760=DIRECTION('',(1.38777878078144E-14,-1.,0.));
#1761=DIRECTION('',(0.,1.,0.));
#1762=DIRECTION('',(0.,0.,1.));
#1763=DIRECTION('',(1.,0.,0.));
#1764=DIRECTION('',(0.,0.,-1.));
#1765=DIRECTION('',(1.,0.,0.));
#1766=DIRECTION('',(0.,0.,-1.));
#1767=DIRECTION('',(-1.,0.,0.));
#1768=DIRECTION('',(0.,0.,1.));
#1769=DIRECTION('',(-1.,-2.08166817117214E-14,0.));
#1770=DIRECTION('',(0.,0.,-1.));
#1771=DIRECTION('',(0.,0.,1.));
#1772=DIRECTION('',(-1.,-2.08166817117214E-14,0.));
#1773=DIRECTION('',(0.,0.,-1.));
#1774=DIRECTION('',(-1.,0.,0.));
#1775=DIRECTION('',(0.,0.,1.));
#1776=DIRECTION('',(0.,1.,0.));
#1777=DIRECTION('',(0.,0.,-1.));
#1778=DIRECTION('',(0.,0.,1.));
#1779=DIRECTION('',(0.,1.,0.));
#1780=DIRECTION('',(0.,0.,-1.));
#1781=DIRECTION('',(0.,1.,0.));
#1782=DIRECTION('',(0.,0.,1.));
#1783=DIRECTION('',(1.,0.,0.));
#1784=DIRECTION('',(0.,0.,-1.));
#1785=DIRECTION('',(1.,0.,0.));
#1786=DIRECTION('',(0.,0.,-1.));
#1787=DIRECTION('',(-1.,0.,0.));
#1788=DIRECTION('',(0.,0.,1.));
#1789=DIRECTION('',(1.,0.,0.));
#1790=DIRECTION('',(0.,0.,-1.));
#1791=DIRECTION('',(0.,0.,1.));
#1792=DIRECTION('',(1.,0.,0.));
#1793=DIRECTION('',(1.,0.,0.));
#1794=DIRECTION('',(0.,0.,-1.));
#1795=DIRECTION('',(0.,-1.,0.));
#1796=DIRECTION('',(0.,0.,-1.));
#1797=DIRECTION('',(0.,-1.,0.));
#1798=DIRECTION('',(0.,0.,-1.));
#1799=DIRECTION('',(-1.,0.,0.));
#1800=DIRECTION('',(0.,0.,1.));
#1801=DIRECTION('',(0.,-1.,0.));
#1802=DIRECTION('',(0.,0.,-1.));
#1803=DIRECTION('',(0.,0.,1.));
#1804=DIRECTION('',(0.,-1.,0.));
#1805=DIRECTION('',(0.,1.,0.));
#1806=DIRECTION('',(0.,0.,1.));
#1807=DIRECTION('',(1.,0.,0.));
#1808=DIRECTION('',(0.,0.,-1.));
#1809=DIRECTION('',(1.,0.,0.));
#1810=DIRECTION('',(0.,0.,-1.));
#1811=DIRECTION('',(-1.,0.,0.));
#1812=DIRECTION('',(0.,0.,1.));
#1813=DIRECTION('',(-1.,0.,0.));
#1814=DIRECTION('',(0.,0.,-1.));
#1815=DIRECTION('',(0.,0.,1.));
#1816=DIRECTION('',(-1.,0.,0.));
#1817=DIRECTION('',(1.,0.,0.));
#1818=DIRECTION('',(0.,0.,-1.));
#1819=DIRECTION('',(0.,-1.,0.));
#1820=DIRECTION('',(0.,-1.,0.));
#1821=DIRECTION('',(1.,0.,0.));
#1822=DIRECTION('',(0.,0.,-1.));
#1823=DIRECTION('',(0.,-1.,0.));
#1824=DIRECTION('',(0.,-1.,0.));
#1825=DIRECTION('',(1.,0.,0.));
#1826=DIRECTION('',(0.,0.,-1.));
#1827=DIRECTION('',(0.,-1.,0.));
#1828=DIRECTION('',(0.,-1.,0.));
#1829=DIRECTION('',(1.,0.,0.));
#1830=DIRECTION('',(0.,0.,-1.));
#1831=DIRECTION('',(0.,-1.,0.));
#1832=DIRECTION('',(0.,-1.,0.));
#1833=DIRECTION('',(0.,0.,1.));
#1834=DIRECTION('',(1.,0.,0.));
#1835=DIRECTION('',(0.,0.,1.));
#1836=DIRECTION('',(1.,0.,0.));
#1837=DIRECTION('',(-1.,0.,0.));
#1838=DIRECTION('',(-1.,0.,0.));
#1839=DIRECTION('',(0.,1.,0.));
#1840=DIRECTION('',(0.,0.,1.));
#1841=DIRECTION('',(-1.,0.,0.));
#1842=DIRECTION('',(0.,-1.7347234759768E-16,-1.));
#1843=DIRECTION('',(0.,1.,-1.7347234759768E-16));
#1844=DIRECTION('',(-1.,0.,0.));
#1845=DIRECTION('',(0.,1.,0.));
#1846=DIRECTION('',(0.,0.,1.));
#1847=DIRECTION('',(0.,0.,1.));
#1848=DIRECTION('',(1.,0.,0.));
#1849=DIRECTION('',(-1.,-1.55930200087803E-16,0.));
#1850=DIRECTION('',(1.55930200087803E-16,-1.,0.));
#1851=DIRECTION('',(-1.55930200087803E-16,1.,0.));
#1852=DIRECTION('',(0.,0.,-1.));
#1853=DIRECTION('',(-1.55930200087803E-16,1.,0.));
#1854=DIRECTION('',(0.,0.,-1.));
#1855=DIRECTION('',(0.,1.,0.));
#1856=DIRECTION('',(0.,0.,1.));
#1857=DIRECTION('',(1.,0.,0.));
#1858=DIRECTION('',(0.,0.,-1.));
#1859=DIRECTION('',(1.,0.,0.));
#1860=DIRECTION('',(-1.,-1.94912750109753E-16,0.));
#1861=DIRECTION('',(1.94912750109753E-16,-1.,0.));
#1862=DIRECTION('',(-1.94912750109753E-16,1.,0.));
#1863=DIRECTION('',(0.,0.,-1.));
#1864=DIRECTION('',(-1.94912750109753E-16,1.,0.));
#1865=DIRECTION('',(0.,1.,0.));
#1866=DIRECTION('',(0.,0.,1.));
#1867=DIRECTION('',(1.,0.,0.));
#1868=DIRECTION('',(1.,0.,0.));
#1869=DIRECTION('',(0.,0.,1.));
#1870=DIRECTION('',(1.,0.,0.));
#1871=DIRECTION('',(0.,0.,1.));
#1872=DIRECTION('',(1.,0.,0.));
#1873=CARTESIAN_POINT('',(0.,0.,0.));
#1874=CARTESIAN_POINT('',(-0.0646619514352315,-0.0126234208196402,0.013));
#1875=CARTESIAN_POINT('',(-0.0646619514352315,-0.0126234208196402,0.));
#1876=CARTESIAN_POINT('',(-0.0646619514352315,-0.0448734208196402,0.));
#1877=CARTESIAN_POINT('',(-0.0646619514352315,0.0196265791803599,0.));
#1878=CARTESIAN_POINT('',(-0.0646619514352315,-0.0448734208196402,0.013));
#1879=CARTESIAN_POINT('',(-0.0646619514352315,-0.0448734208196402,0.016));
#1880=CARTESIAN_POINT('',(-0.0646619514352315,-0.0126234208196402,0.016));
#1881=CARTESIAN_POINT('',(-0.0646619514352315,0.0196265791803599,0.016));
#1882=CARTESIAN_POINT('',(-0.0646619514352315,0.0196265791803599,0.013));
#1883=CARTESIAN_POINT('',(-0.0646619514352315,-0.00762342081964016,0.01125));
#1884=CARTESIAN_POINT('',(-0.0646619514352315,-0.00762342081964016,0.013));
#1885=CARTESIAN_POINT('',(-0.0646619514352315,-0.00762342081964016,0.0095));
#1886=CARTESIAN_POINT('',(-0.0646619514352315,-0.0126234208196402,0.013));
#1887=CARTESIAN_POINT('',(-0.0646619514352315,-0.0176234208196401,0.013));
#1888=CARTESIAN_POINT('',(-0.0646619514352315,-0.0176234208196401,0.01125));
#1889=CARTESIAN_POINT('',(-0.0646619514352315,-0.0176234208196401,0.0095));
#1890=CARTESIAN_POINT('',(-0.0646619514352315,-0.0126234208196402,0.0095));
#1891=CARTESIAN_POINT('',(-0.0244119514352315,-0.0348734208196401,0.013));
#1892=CARTESIAN_POINT('',(-0.0244119514352315,-0.0348734208196401,0.));
#1893=CARTESIAN_POINT('',(-0.0546619514352315,-0.0348734208196401,0.));
#1894=CARTESIAN_POINT('',(0.00583804856476846,-0.0348734208196401,0.));
#1895=CARTESIAN_POINT('',(-0.0546619514352315,-0.0348734208196401,0.013));
#1896=CARTESIAN_POINT('',(-0.0546619514352315,-0.0348734208196401,0.013));
#1897=CARTESIAN_POINT('',(-0.0244119514352315,-0.0348734208196401,0.013));
#1898=CARTESIAN_POINT('',(0.00583804856476846,-0.0348734208196401,0.013));
#1899=CARTESIAN_POINT('',(0.00583804856476846,-0.0348734208196401,0.013));
#1900=CARTESIAN_POINT('',(-0.0546619514352315,-0.0126234208196401,0.013));
#1901=CARTESIAN_POINT('',(-0.0546619514352315,-0.0126234208196401,0.013));
#1902=CARTESIAN_POINT('',(-0.0546619514352315,-0.00762342081964016,0.013));
#1903=CARTESIAN_POINT('',(-0.0546619514352315,0.00962657918035984,0.013));
#1904=CARTESIAN_POINT('',(-0.0546619514352315,-0.00762342081964016,0.013));
#1905=CARTESIAN_POINT('',(-0.0546619514352315,-0.00762342081964016,0.0095));
#1906=CARTESIAN_POINT('',(-0.0546619514352315,-0.0126234208196401,0.0095));
#1907=CARTESIAN_POINT('',(-0.0546619514352315,-0.0176234208196401,0.0095));
#1908=CARTESIAN_POINT('',(-0.0546619514352315,-0.0176234208196401,0.013));
#1909=CARTESIAN_POINT('',(-0.0546619514352315,-0.0176234208196401,0.013));
#1910=CARTESIAN_POINT('',(-0.0546619514352315,-0.0126234208196401,0.013));
#1911=CARTESIAN_POINT('',(-0.0546619514352315,-0.0126234208196401,0.));
#1912=CARTESIAN_POINT('',(-0.0546619514352315,0.00962657918035984,0.));
#1913=CARTESIAN_POINT('',(-0.0546619514352315,0.00962657918035984,0.013));
#1914=CARTESIAN_POINT('',(-0.0244119514352315,0.00962657918035984,0.013));
#1915=CARTESIAN_POINT('',(-0.0244119514352315,0.00962657918035984,0.));
#1916=CARTESIAN_POINT('',(0.00583804856476845,0.00962657918035985,0.));
#1917=CARTESIAN_POINT('',(0.00583804856476845,0.00962657918035985,0.013));
#1918=CARTESIAN_POINT('',(0.00583804856476845,0.00962657918035985,0.013));
#1919=CARTESIAN_POINT('',(-0.0244119514352315,0.00962657918035984,0.013));
#1920=CARTESIAN_POINT('',(-0.0244119514352315,-0.0448734208196402,0.013));
#1921=CARTESIAN_POINT('',(-0.0244119514352315,-0.0448734208196402,0.));
#1922=CARTESIAN_POINT('',(0.0158380485647685,-0.0448734208196402,0.));
#1923=CARTESIAN_POINT('',(0.0158380485647685,-0.0448734208196402,0.013));
#1924=CARTESIAN_POINT('',(0.0158380485647685,-0.0448734208196402,0.016));
#1925=CARTESIAN_POINT('',(-0.0244119514352315,-0.0448734208196402,0.016));
#1926=CARTESIAN_POINT('',(0.0158380485647685,-0.0126234208196402,0.013));
#1927=CARTESIAN_POINT('',(0.0158380485647685,-0.0126234208196402,0.));
#1928=CARTESIAN_POINT('',(0.0158380485647685,0.0196265791803599,0.));
#1929=CARTESIAN_POINT('',(0.0158380485647685,0.0196265791803599,0.013));
#1930=CARTESIAN_POINT('',(0.0158380485647685,0.0196265791803599,0.016));
#1931=CARTESIAN_POINT('',(0.0158380485647685,-0.0126234208196402,0.016));
#1932=CARTESIAN_POINT('',(-0.0582119514352316,0.0131765791803598,0.013));
#1933=CARTESIAN_POINT('',(-0.0582119514352316,0.0131765791803598,0.));
#1934=CARTESIAN_POINT('',(-0.0567619514352316,0.0131765791803598,0.));
#1935=CARTESIAN_POINT('',(-0.0582119514352316,0.0131765791803598,0.016));
#1936=CARTESIAN_POINT('',(-0.0567619514352316,0.0131765791803598,0.016));
#1937=CARTESIAN_POINT('',(0.00938804856476846,0.0131765791803598,0.013));
#1938=CARTESIAN_POINT('',(0.00938804856476846,0.0131765791803598,0.));
#1939=CARTESIAN_POINT('',(0.0108380485647685,0.0131765791803598,0.));
#1940=CARTESIAN_POINT('',(0.00938804856476846,0.0131765791803598,0.016));
#1941=CARTESIAN_POINT('',(0.0108380485647685,0.0131765791803598,0.016));
#1942=CARTESIAN_POINT('',(0.00938804856476847,-0.0384234208196401,0.013));
#1943=CARTESIAN_POINT('',(0.00938804856476847,-0.0384234208196401,0.));
#1944=CARTESIAN_POINT('',(0.0108380485647685,-0.0384234208196401,0.));
#1945=CARTESIAN_POINT('',(0.00938804856476847,-0.0384234208196401,0.016));
#1946=CARTESIAN_POINT('',(0.0108380485647685,-0.0384234208196401,0.016));
#1947=CARTESIAN_POINT('',(-0.0582119514352315,-0.0384234208196401,0.013));
#1948=CARTESIAN_POINT('',(-0.0582119514352315,-0.0384234208196401,0.));
#1949=CARTESIAN_POINT('',(-0.0567619514352315,-0.0384234208196401,0.));
#1950=CARTESIAN_POINT('',(-0.0582119514352315,-0.0384234208196401,0.016));
#1951=CARTESIAN_POINT('',(-0.0567619514352315,-0.0384234208196401,0.016));
#1952=CARTESIAN_POINT('',(-0.0244119514352315,0.0196265791803599,0.013));
#1953=CARTESIAN_POINT('',(-0.0244119514352315,0.0196265791803599,0.));
#1954=CARTESIAN_POINT('',(-0.0244119514352315,0.0196265791803599,0.016));
#1955=CARTESIAN_POINT('',(0.00583804856476846,-0.0126234208196402,0.013));
#1956=CARTESIAN_POINT('',(0.00583804856476846,-0.0126234208196402,0.));
#1957=CARTESIAN_POINT('',(0.00583804856476846,-0.0126234208196402,0.013));
#1958=CARTESIAN_POINT('',(-0.0244119514352315,-0.0126234208196402,0.));
#1959=CARTESIAN_POINT('',(-0.0118619514352315,-0.0156484208196402,0.016));
#1960=CARTESIAN_POINT('',(-0.0118619514352315,-0.0156484208196402,0.013));
#1961=CARTESIAN_POINT('',(-0.0118619514352315,-0.0151484208196402,0.013));
#1962=CARTESIAN_POINT('',(-0.0123619514352315,-0.0156484208196402,0.013));
#1963=CARTESIAN_POINT('',(-0.0118619514352315,-0.0151484208196402,0.016));
#1964=CARTESIAN_POINT('',(-0.0118619514352315,-0.0151484208196402,0.016));
#1965=CARTESIAN_POINT('',(-0.0118619514352315,-0.0156484208196402,0.016));
#1966=CARTESIAN_POINT('',(-0.0123619514352315,-0.0156484208196402,0.016));
#1967=CARTESIAN_POINT('',(-0.0123619514352315,-0.0156484208196402,0.016));
#1968=CARTESIAN_POINT('',(-0.00536195143523153,-0.0151484208196402,0.016));
#1969=CARTESIAN_POINT('',(-0.00536195143523153,-0.0151484208196402,0.013));
#1970=CARTESIAN_POINT('',(0.00113804856476847,-0.0151484208196402,0.013));
#1971=CARTESIAN_POINT('',(0.00113804856476847,-0.0151484208196402,0.016));
#1972=CARTESIAN_POINT('',(0.00113804856476847,-0.0151484208196402,0.016));
#1973=CARTESIAN_POINT('',(-0.00536195143523153,-0.0151484208196402,0.016));
#1974=CARTESIAN_POINT('',(0.00113804856476847,-0.0156484208196402,0.016));
#1975=CARTESIAN_POINT('',(0.00113804856476847,-0.0156484208196402,0.013));
#1976=CARTESIAN_POINT('',(0.00163804856476847,-0.0156484208196402,0.013));
#1977=CARTESIAN_POINT('',(0.00163804856476847,-0.0156484208196402,0.016));
#1978=CARTESIAN_POINT('',(0.00163804856476847,-0.0156484208196402,0.016));
#1979=CARTESIAN_POINT('',(0.00113804856476847,-0.0156484208196402,0.016));
#1980=CARTESIAN_POINT('',(0.00163804856476847,-0.0221484208196401,0.016));
#1981=CARTESIAN_POINT('',(0.00163804856476847,-0.0221484208196401,0.013));
#1982=CARTESIAN_POINT('',(0.00163804856476846,-0.0286484208196402,0.013));
#1983=CARTESIAN_POINT('',(0.00163804856476846,-0.0286484208196402,0.016));
#1984=CARTESIAN_POINT('',(0.00163804856476846,-0.0286484208196402,0.016));
#1985=CARTESIAN_POINT('',(0.00163804856476847,-0.0221484208196401,0.016));
#1986=CARTESIAN_POINT('',(0.00113804856476846,-0.0286484208196402,0.016));
#1987=CARTESIAN_POINT('',(0.00113804856476846,-0.0286484208196402,0.013));
#1988=CARTESIAN_POINT('',(0.00113804856476847,-0.0291484208196402,0.013));
#1989=CARTESIAN_POINT('',(0.00113804856476847,-0.0291484208196402,0.016));
#1990=CARTESIAN_POINT('',(0.00113804856476847,-0.0291484208196402,0.016));
#1991=CARTESIAN_POINT('',(0.00113804856476846,-0.0286484208196402,0.016));
#1992=CARTESIAN_POINT('',(-0.00536195143523153,-0.0291484208196402,0.016));
#1993=CARTESIAN_POINT('',(-0.00536195143523153,-0.0291484208196402,0.013));
#1994=CARTESIAN_POINT('',(-0.0118619514352315,-0.0291484208196402,0.013));
#1995=CARTESIAN_POINT('',(-0.0118619514352315,-0.0291484208196402,0.016));
#1996=CARTESIAN_POINT('',(-0.0118619514352315,-0.0291484208196402,0.016));
#1997=CARTESIAN_POINT('',(-0.00536195143523153,-0.0291484208196402,0.016));
#1998=CARTESIAN_POINT('',(-0.0118619514352315,-0.0286484208196402,0.016));
#1999=CARTESIAN_POINT('',(-0.0118619514352315,-0.0286484208196402,0.013));
#2000=CARTESIAN_POINT('',(-0.0123619514352315,-0.0286484208196402,0.013));
#2001=CARTESIAN_POINT('',(-0.0123619514352315,-0.0286484208196402,0.016));
#2002=CARTESIAN_POINT('',(-0.0123619514352315,-0.0286484208196402,0.016));
#2003=CARTESIAN_POINT('',(-0.0118619514352315,-0.0286484208196402,0.016));
#2004=CARTESIAN_POINT('',(-0.0309119514352315,-0.0156484208196402,0.016));
#2005=CARTESIAN_POINT('',(-0.0309119514352315,-0.0156484208196402,0.013));
#2006=CARTESIAN_POINT('',(-0.0309119514352315,-0.0151484208196402,0.013));
#2007=CARTESIAN_POINT('',(-0.0314119514352315,-0.0156484208196402,0.013));
#2008=CARTESIAN_POINT('',(-0.0309119514352315,-0.0151484208196402,0.016));
#2009=CARTESIAN_POINT('',(-0.0309119514352315,-0.0151484208196402,0.016));
#2010=CARTESIAN_POINT('',(-0.0309119514352315,-0.0156484208196402,0.016));
#2011=CARTESIAN_POINT('',(-0.0314119514352315,-0.0156484208196402,0.016));
#2012=CARTESIAN_POINT('',(-0.0314119514352315,-0.0156484208196402,0.016));
#2013=CARTESIAN_POINT('',(-0.0244119514352315,-0.0151484208196402,0.016));
#2014=CARTESIAN_POINT('',(-0.0244119514352315,-0.0151484208196402,0.013));
#2015=CARTESIAN_POINT('',(-0.0179119514352316,-0.0151484208196402,0.013));
#2016=CARTESIAN_POINT('',(-0.0179119514352316,-0.0151484208196402,0.016));
#2017=CARTESIAN_POINT('',(-0.0179119514352316,-0.0151484208196402,0.016));
#2018=CARTESIAN_POINT('',(-0.0244119514352315,-0.0151484208196402,0.016));
#2019=CARTESIAN_POINT('',(-0.0179119514352315,-0.0156484208196402,0.016));
#2020=CARTESIAN_POINT('',(-0.0179119514352315,-0.0156484208196402,0.013));
#2021=CARTESIAN_POINT('',(-0.0174119514352316,-0.0156484208196402,0.013));
#2022=CARTESIAN_POINT('',(-0.0174119514352316,-0.0156484208196402,0.016));
#2023=CARTESIAN_POINT('',(-0.0174119514352316,-0.0156484208196402,0.016));
#2024=CARTESIAN_POINT('',(-0.0179119514352315,-0.0156484208196402,0.016));
#2025=CARTESIAN_POINT('',(-0.0174119514352316,-0.0221484208196401,0.016));
#2026=CARTESIAN_POINT('',(-0.0174119514352316,-0.0221484208196401,0.013));
#2027=CARTESIAN_POINT('',(-0.0174119514352316,-0.0286484208196402,0.013));
#2028=CARTESIAN_POINT('',(-0.0174119514352316,-0.0286484208196402,0.016));
#2029=CARTESIAN_POINT('',(-0.0174119514352316,-0.0286484208196402,0.016));
#2030=CARTESIAN_POINT('',(-0.0174119514352316,-0.0221484208196401,0.016));
#2031=CARTESIAN_POINT('',(-0.0179119514352316,-0.0286484208196402,0.016));
#2032=CARTESIAN_POINT('',(-0.0179119514352316,-0.0286484208196402,0.013));
#2033=CARTESIAN_POINT('',(-0.0179119514352316,-0.0291484208196402,0.013));
#2034=CARTESIAN_POINT('',(-0.0179119514352316,-0.0291484208196402,0.016));
#2035=CARTESIAN_POINT('',(-0.0179119514352316,-0.0291484208196402,0.016));
#2036=CARTESIAN_POINT('',(-0.0179119514352316,-0.0286484208196402,0.016));
#2037=CARTESIAN_POINT('',(-0.0244119514352315,-0.0291484208196402,0.016));
#2038=CARTESIAN_POINT('',(-0.0244119514352315,-0.0291484208196402,0.013));
#2039=CARTESIAN_POINT('',(-0.0309119514352315,-0.0291484208196402,0.013));
#2040=CARTESIAN_POINT('',(-0.0309119514352315,-0.0291484208196402,0.016));
#2041=CARTESIAN_POINT('',(-0.0309119514352315,-0.0291484208196402,0.016));
#2042=CARTESIAN_POINT('',(-0.0244119514352315,-0.0291484208196402,0.016));
#2043=CARTESIAN_POINT('',(-0.0309119514352315,-0.0286484208196402,0.016));
#2044=CARTESIAN_POINT('',(-0.0309119514352315,-0.0286484208196402,0.013));
#2045=CARTESIAN_POINT('',(-0.0314119514352315,-0.0286484208196402,0.013));
#2046=CARTESIAN_POINT('',(-0.0314119514352315,-0.0286484208196402,0.016));
#2047=CARTESIAN_POINT('',(-0.0314119514352315,-0.0286484208196402,0.016));
#2048=CARTESIAN_POINT('',(-0.0309119514352315,-0.0286484208196402,0.016));
#2049=CARTESIAN_POINT('',(-0.0499619514352315,-0.0156484208196402,0.016));
#2050=CARTESIAN_POINT('',(-0.0499619514352315,-0.0156484208196402,0.013));
#2051=CARTESIAN_POINT('',(-0.0499619514352315,-0.0151484208196402,0.013));
#2052=CARTESIAN_POINT('',(-0.0504619514352315,-0.0156484208196402,0.013));
#2053=CARTESIAN_POINT('',(-0.0499619514352315,-0.0151484208196402,0.016));
#2054=CARTESIAN_POINT('',(-0.0499619514352315,-0.0151484208196402,0.016));
#2055=CARTESIAN_POINT('',(-0.0499619514352315,-0.0156484208196402,0.016));
#2056=CARTESIAN_POINT('',(-0.0504619514352315,-0.0156484208196402,0.016));
#2057=CARTESIAN_POINT('',(-0.0504619514352315,-0.0156484208196402,0.016));
#2058=CARTESIAN_POINT('',(-0.0434619514352315,-0.0151484208196402,0.016));
#2059=CARTESIAN_POINT('',(-0.0434619514352315,-0.0151484208196402,0.013));
#2060=CARTESIAN_POINT('',(-0.0369619514352315,-0.0151484208196402,0.013));
#2061=CARTESIAN_POINT('',(-0.0369619514352315,-0.0151484208196402,0.016));
#2062=CARTESIAN_POINT('',(-0.0369619514352315,-0.0151484208196402,0.016));
#2063=CARTESIAN_POINT('',(-0.0434619514352315,-0.0151484208196402,0.016));
#2064=CARTESIAN_POINT('',(-0.0369619514352315,-0.0156484208196402,0.016));
#2065=CARTESIAN_POINT('',(-0.0369619514352315,-0.0156484208196402,0.013));
#2066=CARTESIAN_POINT('',(-0.0364619514352315,-0.0156484208196402,0.013));
#2067=CARTESIAN_POINT('',(-0.0364619514352315,-0.0156484208196402,0.016));
#2068=CARTESIAN_POINT('',(-0.0364619514352315,-0.0156484208196402,0.016));
#2069=CARTESIAN_POINT('',(-0.0369619514352315,-0.0156484208196402,0.016));
#2070=CARTESIAN_POINT('',(-0.0364619514352315,-0.0221484208196401,0.016));
#2071=CARTESIAN_POINT('',(-0.0364619514352315,-0.0221484208196401,0.013));
#2072=CARTESIAN_POINT('',(-0.0364619514352315,-0.0286484208196402,0.013));
#2073=CARTESIAN_POINT('',(-0.0364619514352315,-0.0286484208196402,0.016));
#2074=CARTESIAN_POINT('',(-0.0364619514352315,-0.0286484208196402,0.016));
#2075=CARTESIAN_POINT('',(-0.0364619514352315,-0.0221484208196401,0.016));
#2076=CARTESIAN_POINT('',(-0.0369619514352315,-0.0286484208196402,0.016));
#2077=CARTESIAN_POINT('',(-0.0369619514352315,-0.0286484208196402,0.013));
#2078=CARTESIAN_POINT('',(-0.0369619514352315,-0.0291484208196402,0.013));
#2079=CARTESIAN_POINT('',(-0.0369619514352315,-0.0291484208196402,0.016));
#2080=CARTESIAN_POINT('',(-0.0369619514352315,-0.0291484208196402,0.016));
#2081=CARTESIAN_POINT('',(-0.0369619514352315,-0.0286484208196402,0.016));
#2082=CARTESIAN_POINT('',(-0.0434619514352315,-0.0291484208196402,0.016));
#2083=CARTESIAN_POINT('',(-0.0434619514352315,-0.0291484208196402,0.013));
#2084=CARTESIAN_POINT('',(-0.0499619514352315,-0.0291484208196402,0.013));
#2085=CARTESIAN_POINT('',(-0.0499619514352315,-0.0291484208196402,0.016));
#2086=CARTESIAN_POINT('',(-0.0499619514352315,-0.0291484208196402,0.016));
#2087=CARTESIAN_POINT('',(-0.0434619514352315,-0.0291484208196402,0.016));
#2088=CARTESIAN_POINT('',(-0.0499619514352315,-0.0286484208196402,0.016));
#2089=CARTESIAN_POINT('',(-0.0499619514352315,-0.0286484208196402,0.013));
#2090=CARTESIAN_POINT('',(-0.0504619514352315,-0.0286484208196402,0.013));
#2091=CARTESIAN_POINT('',(-0.0504619514352315,-0.0286484208196402,0.016));
#2092=CARTESIAN_POINT('',(-0.0504619514352315,-0.0286484208196402,0.016));
#2093=CARTESIAN_POINT('',(-0.0499619514352315,-0.0286484208196402,0.016));
#2094=CARTESIAN_POINT('',(-0.0309119514352315,0.00340157918035985,0.016));
#2095=CARTESIAN_POINT('',(-0.0309119514352315,0.00340157918035985,0.013));
#2096=CARTESIAN_POINT('',(-0.0309119514352315,0.00390157918035985,0.013));
#2097=CARTESIAN_POINT('',(-0.0314119514352315,0.00340157918035985,0.013));
#2098=CARTESIAN_POINT('',(-0.0309119514352315,0.00390157918035985,0.016));
#2099=CARTESIAN_POINT('',(-0.0309119514352315,0.00390157918035985,0.016));
#2100=CARTESIAN_POINT('',(-0.0309119514352315,0.00340157918035985,0.016));
#2101=CARTESIAN_POINT('',(-0.0314119514352315,0.00340157918035985,0.016));
#2102=CARTESIAN_POINT('',(-0.0314119514352315,0.00340157918035985,0.016));
#2103=CARTESIAN_POINT('',(-0.0244119514352315,0.00390157918035985,0.016));
#2104=CARTESIAN_POINT('',(-0.0244119514352315,0.00390157918035985,0.013));
#2105=CARTESIAN_POINT('',(-0.0179119514352316,0.00390157918035984,0.013));
#2106=CARTESIAN_POINT('',(-0.0179119514352316,0.00390157918035984,0.016));
#2107=CARTESIAN_POINT('',(-0.0179119514352316,0.00390157918035984,0.016));
#2108=CARTESIAN_POINT('',(-0.0244119514352315,0.00390157918035985,0.016));
#2109=CARTESIAN_POINT('',(-0.0179119514352316,0.00340157918035985,0.016));
#2110=CARTESIAN_POINT('',(-0.0179119514352316,0.00340157918035985,0.013));
#2111=CARTESIAN_POINT('',(-0.0174119514352316,0.00340157918035985,0.013));
#2112=CARTESIAN_POINT('',(-0.0174119514352316,0.00340157918035985,0.016));
#2113=CARTESIAN_POINT('',(-0.0174119514352316,0.00340157918035985,0.016));
#2114=CARTESIAN_POINT('',(-0.0179119514352316,0.00340157918035985,0.016));
#2115=CARTESIAN_POINT('',(-0.0174119514352316,-0.00309842081964015,0.016));
#2116=CARTESIAN_POINT('',(-0.0174119514352316,-0.00309842081964015,0.013));
#2117=CARTESIAN_POINT('',(-0.0174119514352316,-0.00959842081964015,0.013));
#2118=CARTESIAN_POINT('',(-0.0174119514352316,-0.00959842081964015,0.016));
#2119=CARTESIAN_POINT('',(-0.0174119514352316,-0.00959842081964015,0.016));
#2120=CARTESIAN_POINT('',(-0.0174119514352316,-0.00309842081964015,0.016));
#2121=CARTESIAN_POINT('',(-0.0179119514352316,-0.00959842081964015,0.016));
#2122=CARTESIAN_POINT('',(-0.0179119514352316,-0.00959842081964015,0.013));
#2123=CARTESIAN_POINT('',(-0.0179119514352316,-0.0100984208196401,0.013));
#2124=CARTESIAN_POINT('',(-0.0179119514352316,-0.0100984208196401,0.016));
#2125=CARTESIAN_POINT('',(-0.0179119514352316,-0.0100984208196401,0.016));
#2126=CARTESIAN_POINT('',(-0.0179119514352316,-0.00959842081964015,0.016));
#2127=CARTESIAN_POINT('',(-0.0244119514352315,-0.0100984208196401,0.016));
#2128=CARTESIAN_POINT('',(-0.0244119514352315,-0.0100984208196401,0.013));
#2129=CARTESIAN_POINT('',(-0.0309119514352315,-0.0100984208196401,0.013));
#2130=CARTESIAN_POINT('',(-0.0309119514352315,-0.0100984208196401,0.016));
#2131=CARTESIAN_POINT('',(-0.0309119514352315,-0.0100984208196401,0.016));
#2132=CARTESIAN_POINT('',(-0.0244119514352315,-0.0100984208196401,0.016));
#2133=CARTESIAN_POINT('',(-0.0309119514352315,-0.00959842081964015,0.016));
#2134=CARTESIAN_POINT('',(-0.0309119514352315,-0.00959842081964015,0.013));
#2135=CARTESIAN_POINT('',(-0.0314119514352315,-0.00959842081964015,0.013));
#2136=CARTESIAN_POINT('',(-0.0314119514352315,-0.00959842081964015,0.016));
#2137=CARTESIAN_POINT('',(-0.0314119514352315,-0.00959842081964015,0.016));
#2138=CARTESIAN_POINT('',(-0.0309119514352315,-0.00959842081964015,0.016));
#2139=CARTESIAN_POINT('',(-0.0314119514352315,-0.0221484208196401,0.016));
#2140=CARTESIAN_POINT('',(-0.0314119514352315,-0.0221484208196401,0.013));
#2141=CARTESIAN_POINT('',(-0.0314119514352315,-0.0221484208196401,0.016));
#2142=CARTESIAN_POINT('',(-0.0504619514352315,-0.0221484208196401,0.016));
#2143=CARTESIAN_POINT('',(-0.0504619514352315,-0.0221484208196401,0.013));
#2144=CARTESIAN_POINT('',(-0.0504619514352315,-0.0221484208196401,0.016));
#2145=CARTESIAN_POINT('',(-0.0314119514352315,-0.00309842081964015,0.016));
#2146=CARTESIAN_POINT('',(-0.0314119514352315,-0.00309842081964015,0.013));
#2147=CARTESIAN_POINT('',(-0.0314119514352315,-0.00309842081964015,0.016));
#2148=CARTESIAN_POINT('',(-0.0123619514352315,-0.0221484208196401,0.016));
#2149=CARTESIAN_POINT('',(-0.0123619514352315,-0.0221484208196401,0.013));
#2150=CARTESIAN_POINT('',(-0.0123619514352315,-0.0221484208196401,0.016));
#2151=CARTESIAN_POINT('',(-0.0244119514352315,-0.0126234208196402,0.016));
#2152=CARTESIAN_POINT('',(-0.0244119514352315,-0.0126234208196402,0.013));
#2153=CARTESIAN_POINT('',(-0.0396619514352315,-0.0176234208196401,0.013));
#2154=CARTESIAN_POINT('',(-0.0396619514352315,-0.00762342081964016,0.013));
#2155=CARTESIAN_POINT('',(-0.0396619514352315,-0.00762342081964016,0.01125));
#2156=CARTESIAN_POINT('',(-0.0396619514352315,-0.00762342081964016,0.0095));
#2157=CARTESIAN_POINT('',(-0.0396619514352315,-0.0126234208196402,0.0095));
#2158=CARTESIAN_POINT('',(-0.0396619514352315,-0.0176234208196401,0.0095));
#2159=CARTESIAN_POINT('',(-0.0396619514352315,-0.0176234208196401,0.01125));
#2160=CARTESIAN_POINT('',(0.,0.,0.));
#2161=CARTESIAN_POINT('',(-0.0546619514352315,-0.0126234208196401,0.003));
#2162=CARTESIAN_POINT('',(-0.0546619514352315,-0.0126234208196401,0.));
#2163=CARTESIAN_POINT('',(-0.0546619514352315,-0.0348734208196401,0.));
#2164=CARTESIAN_POINT('',(-0.0546619514352315,0.00962657918035984,0.));
#2165=CARTESIAN_POINT('',(-0.0546619514352315,-0.0348734208196401,0.003));
#2166=CARTESIAN_POINT('',(-0.0546619514352315,-0.0348734208196401,0.003));
#2167=CARTESIAN_POINT('',(-0.0546619514352315,-0.0126234208196401,0.003));
#2168=CARTESIAN_POINT('',(-0.0546619514352315,0.00962657918035984,0.003));
#2169=CARTESIAN_POINT('',(-0.0546619514352315,0.00962657918035984,0.003));
#2170=CARTESIAN_POINT('',(-0.0244119514352315,-0.0348734208196401,0.003));
#2171=CARTESIAN_POINT('',(-0.0244119514352315,-0.0348734208196401,0.));
#2172=CARTESIAN_POINT('',(0.00583804856476846,-0.0348734208196401,0.));
#2173=CARTESIAN_POINT('',(0.00583804856476846,-0.0348734208196401,0.003));
#2174=CARTESIAN_POINT('',(0.00583804856476846,-0.0348734208196401,0.003));
#2175=CARTESIAN_POINT('',(-0.0244119514352315,-0.0348734208196401,0.003));
#2176=CARTESIAN_POINT('',(0.00583804856476846,-0.0126234208196402,0.003));
#2177=CARTESIAN_POINT('',(0.00583804856476846,-0.0126234208196402,0.));
#2178=CARTESIAN_POINT('',(0.00583804856476845,0.00962657918035985,0.));
#2179=CARTESIAN_POINT('',(0.00583804856476845,0.00962657918035985,0.003));
#2180=CARTESIAN_POINT('',(0.00583804856476845,0.00962657918035985,0.003));
#2181=CARTESIAN_POINT('',(0.00583804856476846,-0.0126234208196402,0.003));
#2182=CARTESIAN_POINT('',(-0.0244119514352315,0.00962657918035984,0.003));
#2183=CARTESIAN_POINT('',(-0.0244119514352315,0.00962657918035984,0.));
#2184=CARTESIAN_POINT('',(-0.0244119514352315,0.00962657918035984,0.003));
#2185=CARTESIAN_POINT('',(-0.0244119514352315,-0.0126234208196402,0.003));
#2186=CARTESIAN_POINT('',(-0.0244119514352315,-0.0126234208196402,0.));
#2187=MECHANICAL_DESIGN_GEOMETRIC_PRESENTATION_REPRESENTATION('',(#1157,
#1050,#1051,#1052,#1053,#1054,#1055,#1056,#1057,#1058,#1059,#1060,#1061,
#1062,#1063,#1064,#1065,#1066,#1067,#1068,#1069,#1070,#1071,#1072,#1073,
#1074,#1075,#1076,#1077,#1078,#1079,#1080,#1081,#1082,#1083,#1084,#1085,
#1086,#1087,#1088,#1089,#1090,#1091,#1092,#1093,#1094,#1095),#2189);
#2188=MECHANICAL_DESIGN_GEOMETRIC_PRESENTATION_REPRESENTATION('',(#1158,
#1096,#1097),#2190);
#2189=(
GEOMETRIC_REPRESENTATION_CONTEXT(3)
GLOBAL_UNCERTAINTY_ASSIGNED_CONTEXT((#2191))
GLOBAL_UNIT_ASSIGNED_CONTEXT((#2197,#2195,#2193))
REPRESENTATION_CONTEXT('Part 2','TOP_LEVEL_ASSEMBLY_PART')
);
#2190=(
GEOMETRIC_REPRESENTATION_CONTEXT(3)
GLOBAL_UNCERTAINTY_ASSIGNED_CONTEXT((#2192))
GLOBAL_UNIT_ASSIGNED_CONTEXT((#2198,#2196,#2194))
REPRESENTATION_CONTEXT('Part 1','TOP_LEVEL_ASSEMBLY_PART')
);
#2191=UNCERTAINTY_MEASURE_WITH_UNIT(LENGTH_MEASURE(1.E-8),#2197,
'DISTANCE_ACCURACY_VALUE','Maximum Tolerance applied to model');
#2192=UNCERTAINTY_MEASURE_WITH_UNIT(LENGTH_MEASURE(1.E-8),#2198,
'DISTANCE_ACCURACY_VALUE','Maximum Tolerance applied to model');
#2193=(
NAMED_UNIT(*)
SI_UNIT($,.STERADIAN.)
SOLID_ANGLE_UNIT()
);
#2194=(
NAMED_UNIT(*)
SI_UNIT($,.STERADIAN.)
SOLID_ANGLE_UNIT()
);
#2195=(
NAMED_UNIT(*)
PLANE_ANGLE_UNIT()
SI_UNIT($,.RADIAN.)
);
#2196=(
NAMED_UNIT(*)
PLANE_ANGLE_UNIT()
SI_UNIT($,.RADIAN.)
);
#2197=(
LENGTH_UNIT()
NAMED_UNIT(*)
SI_UNIT($,.METRE.)
);
#2198=(
LENGTH_UNIT()
NAMED_UNIT(*)
SI_UNIT($,.METRE.)
);
#2199=PRODUCT_DEFINITION_SHAPE('','',#2201);
#2200=PRODUCT_DEFINITION_SHAPE('','',#2202);
#2201=PRODUCT_DEFINITION('','',#2205,#2203);
#2202=PRODUCT_DEFINITION('','',#2206,#2204);
#2203=PRODUCT_DEFINITION_CONTEXT('',#2217,'design');
#2204=PRODUCT_DEFINITION_CONTEXT('',#2218,'design');
#2205=PRODUCT_DEFINITION_FORMATION_WITH_SPECIFIED_SOURCE('','',#2209,
 .NOT_KNOWN.);
#2206=PRODUCT_DEFINITION_FORMATION_WITH_SPECIFIED_SOURCE('','',#2210,
 .NOT_KNOWN.);
#2207=PRODUCT_RELATED_PRODUCT_CATEGORY('','',(#2209));
#2208=PRODUCT_RELATED_PRODUCT_CATEGORY('','',(#2210));
#2209=PRODUCT('Part 2','Part 2','Part 2',(#2213));
#2210=PRODUCT('Part 1','Part 1','Part 1',(#2214));
#2211=PRODUCT_CATEGORY('','');
#2212=PRODUCT_CATEGORY('','');
#2213=PRODUCT_CONTEXT('',#2217,'mechanical');
#2214=PRODUCT_CONTEXT('',#2218,'mechanical');
#2215=APPLICATION_PROTOCOL_DEFINITION('international standard',
'ap242_managed_model_based_3d_engineering',2020,#2217);
#2216=APPLICATION_PROTOCOL_DEFINITION('international standard',
'ap242_managed_model_based_3d_engineering',2020,#2218);
#2217=APPLICATION_CONTEXT('managed model based 3d engineering');
#2218=APPLICATION_CONTEXT('managed model based 3d engineering');
ENDSEC;
END-ISO-10303-21;
